Zoikabold.ufo
<glyph name="exclam" format="2">
  <advance width="250"/>
  <unicode hex="0021"/>
  <outline>
    <contour>
      <point x="125" y="182" type="curve" smooth="yes"/>
      <point x="137" y="182"/>
      <point x="148.333" y="179.667"/>
      <point x="159" y="175" type="curve" smooth="yes"/>
      <point x="169.667" y="170.333"/>
      <point x="179" y="164"/>
      <point x="187" y="156" type="curve" smooth="yes"/>
      <point x="195" y="148"/>
      <point x="201.333" y="138.5"/>
      <point x="206" y="127.5" type="curve" smooth="yes"/>
      <point x="210.667" y="116.5"/>
      <point x="213" y="105"/>
      <point x="213" y="93" type="curve" smooth="yes"/>
      <point x="213" y="68.333"/>
      <point x="204.333" y="47.5"/>
      <point x="187" y="30.5" type="curve" smooth="yes"/>
      <point x="169.667" y="13.5"/>
      <point x="149" y="5"/>
      <point x="125" y="5" type="curve" smooth="yes"/>
      <point x="100.333" y="5"/>
      <point x="79.333" y="13.5"/>
      <point x="62" y="30.5" type="curve" smooth="yes"/>
      <point x="44.667" y="47.5"/>
      <point x="36" y="68.333"/>
      <point x="36" y="93" type="curve" smooth="yes"/>
      <point x="36" y="117.667"/>
      <point x="44.667" y="138.667"/>
      <point x="62" y="156" type="curve" smooth="yes"/>
      <point x="79.333" y="173.333"/>
      <point x="100.333" y="182"/>
    </contour>
    <contour>
      <point x="37" y="780" type="line"/>
      <point x="44" y="780.001" type="line"/>
      <point x="214" y="780.001" type="line"/>
      <point x="214" y="242.001" type="line" smooth="yes"/>
      <point x="214" y="234.001"/>
      <point x="216" y="228.168"/>
      <point x="220" y="224.501" type="curve" smooth="yes"/>
      <point x="224" y="220.834"/>
      <point x="226.667" y="218.667"/>
      <point x="228" y="218" type="curve" smooth="yes"/>
      <point x="231.333" y="216"/>
      <point x="233" y="213.333"/>
      <point x="233" y="210" type="curve" smooth="yes"/>
      <point x="233" y="203.333"/>
      <point x="230" y="200"/>
      <point x="224" y="200" type="curve" smooth="yes"/>
      <point x="223" y="200" type="line"/>
      <point x="126" y="200" type="line" smooth="yes"/>
      <point x="114" y="200"/>
      <point x="102.5" y="202.333"/>
      <point x="91.5" y="207" type="curve" smooth="yes"/>
      <point x="80.5" y="211.667"/>
      <point x="71" y="218"/>
      <point x="63" y="226" type="curve" smooth="yes"/>
      <point x="55" y="234"/>
      <point x="48.667" y="243.333"/>
      <point x="44" y="254" type="curve" smooth="yes"/>
      <point x="39.333" y="264.667"/>
      <point x="37" y="276"/>
      <point x="37" y="288" type="curve" smooth="yes"/>
    </contour>
  </outline>
</glyph>
<glyph name="numbersign" format="2">
  <advance width="833"/>
  <unicode hex="0023"/>
  <outline>
    <contour>
      <point x="711" y="294" type="line" smooth="yes"/>
      <point x="732.333" y="292"/>
      <point x="749.827" y="282.495"/>
      <point x="763.494" y="265.495" type="curve" smooth="yes"/>
      <point x="777.161" y="248.495"/>
      <point x="782.994" y="229.328"/>
      <point x="780.994" y="207.995" type="curve" smooth="yes"/>
      <point x="779.661" y="197.328"/>
      <point x="776.494" y="187.661"/>
      <point x="771.494" y="178.994" type="curve" smooth="yes"/>
      <point x="766.494" y="170.327"/>
      <point x="760.161" y="162.827"/>
      <point x="752.494" y="156.494" type="curve" smooth="yes"/>
      <point x="744.827" y="150.161"/>
      <point x="735.994" y="145.328"/>
      <point x="725.994" y="141.995" type="curve" smooth="yes"/>
      <point x="715.994" y="138.662"/>
      <point x="705.661" y="137.662"/>
      <point x="694.994" y="138.995" type="curve" smooth="yes"/>
      <point x="617.994" y="146.995" type="line"/>
      <point x="614.661" y="125.662"/>
      <point x="604.828" y="108.495"/>
      <point x="588.495" y="95.4951" type="curve" smooth="yes"/>
      <point x="572.162" y="82.4951"/>
      <point x="553.329" y="77.3281"/>
      <point x="531.996" y="79.9951" type="curve" smooth="yes"/>
      <point x="511.329" y="81.9951"/>
      <point x="494.329" y="90.9951"/>
      <point x="480.996" y="106.995" type="curve" smooth="yes"/>
      <point x="467.663" y="122.995"/>
      <point x="461.663" y="141.328"/>
      <point x="462.996" y="161.995" type="curve"/>
      <point x="329.996" y="175.995" type="line"/>
      <point x="321.996" y="97.9951" type="line" smooth="yes"/>
      <point x="319.996" y="76.6621"/>
      <point x="310.663" y="59.1621"/>
      <point x="293.996" y="45.4951" type="curve" smooth="yes"/>
      <point x="277.329" y="31.8281"/>
      <point x="258.329" y="26.3281"/>
      <point x="236.996" y="28.9951" type="curve" smooth="yes"/>
      <point x="226.329" y="29.6621"/>
      <point x="216.496" y="32.6621"/>
      <point x="207.496" y="37.9951" type="curve" smooth="yes"/>
      <point x="198.496" y="43.3281"/>
      <point x="190.829" y="49.8281"/>
      <point x="184.496" y="57.4951" type="curve" smooth="yes"/>
      <point x="178.163" y="65.1621"/>
      <point x="173.33" y="73.8291"/>
      <point x="169.997" y="83.4961" type="curve" smooth="yes"/>
      <point x="166.664" y="93.1631"/>
      <point x="165.664" y="103.33"/>
      <point x="166.997" y="113.997" type="curve" smooth="yes"/>
      <point x="174.997" y="191.997" type="line"/>
      <point x="154.33" y="194.664"/>
      <point x="137.497" y="204.164"/>
      <point x="124.497" y="220.497" type="curve" smooth="yes"/>
      <point x="111.497" y="236.83"/>
      <point x="105.997" y="255.663"/>
      <point x="107.997" y="276.996" type="curve" smooth="yes"/>
      <point x="109.997" y="298.329"/>
      <point x="118.997" y="315.662"/>
      <point x="134.997" y="328.995" type="curve" smooth="yes"/>
      <point x="150.997" y="342.328"/>
      <point x="169.664" y="348.328"/>
      <point x="190.997" y="346.995" type="curve"/>
      <point x="203.997" y="478.995" type="line"/>
      <point x="126.997" y="486.995" type="line" smooth="yes"/>
      <point x="116.33" y="487.662"/>
      <point x="106.497" y="490.662"/>
      <point x="97.4971" y="495.995" type="curve" smooth="yes"/>
      <point x="88.4971" y="501.328"/>
      <point x="80.8301" y="507.828"/>
      <point x="74.4971" y="515.495" type="curve" smooth="yes"/>
      <point x="68.1641" y="523.162"/>
      <point x="63.3311" y="531.829"/>
      <point x="59.998" y="541.496" type="curve" smooth="yes"/>
      <point x="56.665" y="551.163"/>
      <point x="55.665" y="561.33"/>
      <point x="56.998" y="571.997" type="curve" smooth="yes"/>
      <point x="57.665" y="582.664"/>
      <point x="60.665" y="592.497"/>
      <point x="65.998" y="601.497" type="curve" smooth="yes"/>
      <point x="71.3311" y="610.497"/>
      <point x="77.8311" y="618.164"/>
      <point x="85.498" y="624.497" type="curve" smooth="yes"/>
      <point x="93.165" y="630.83"/>
      <point x="101.832" y="635.497"/>
      <point x="111.499" y="638.497" type="curve" smooth="yes"/>
      <point x="121.166" y="641.497"/>
      <point x="131.333" y="642.664"/>
      <point x="142" y="641.997" type="curve" smooth="yes"/>
      <point x="220" y="633.997" type="line"/>
      <point x="223.333" y="654.664"/>
      <point x="233" y="671.497"/>
      <point x="249" y="684.497" type="curve" smooth="yes"/>
      <point x="265" y="697.497"/>
      <point x="283.667" y="702.997"/>
      <point x="305" y="700.997" type="curve" smooth="yes"/>
      <point x="326.333" y="698.997"/>
      <point x="343.666" y="689.997"/>
      <point x="356.999" y="673.997" type="curve" smooth="yes"/>
      <point x="370.332" y="657.997"/>
      <point x="376.332" y="639.33"/>
      <point x="374.999" y="617.997" type="curve"/>
      <point x="507.999" y="604.997" type="line"/>
      <point x="514.999" y="682.997" type="line" smooth="yes"/>
      <point x="517.666" y="703.664"/>
      <point x="527.333" y="720.831"/>
      <point x="544" y="734.498" type="curve" smooth="yes"/>
      <point x="560.667" y="748.165"/>
      <point x="579.667" y="753.998"/>
      <point x="601" y="751.998" type="curve" smooth="yes"/>
      <point x="622.333" y="749.998"/>
      <point x="639.833" y="740.665"/>
      <point x="653.5" y="723.998" type="curve" smooth="yes"/>
      <point x="667.167" y="707.331"/>
      <point x="672.667" y="688.331"/>
      <point x="670" y="666.998" type="curve" smooth="yes"/>
      <point x="663" y="588.998" type="line"/>
      <point x="683.667" y="586.331"/>
      <point x="700.5" y="576.831"/>
      <point x="713.5" y="560.498" type="curve" smooth="yes"/>
      <point x="726.5" y="544.165"/>
      <point x="732" y="525.332"/>
      <point x="730" y="503.999" type="curve" smooth="yes"/>
      <point x="727.333" y="482.666"/>
      <point x="718" y="465.333"/>
      <point x="702" y="452" type="curve" smooth="yes"/>
      <point x="686" y="438.667"/>
      <point x="667.667" y="432.667"/>
      <point x="647" y="434" type="curve"/>
      <point x="633" y="302" type="line"/>
    </contour>
    <contour>
      <point x="345.994" y="330.995" type="line"/>
      <point x="477.994" y="316.995" type="line"/>
      <point x="491.994" y="449.995" type="line"/>
      <point x="358.994" y="462.995" type="line"/>
    </contour>
  </outline>
</glyph>
<glyph name="dollar" format="2">
  <advance width="550"/>
  <unicode hex="0024"/>
  <outline>
    <contour>
      <point x="517" y="148" type="line" smooth="yes"/>
      <point x="515.667" y="125.333"/>
      <point x="508.34" y="104.666"/>
      <point x="495.007" y="85.999" type="curve" smooth="yes"/>
      <point x="483.674" y="69.999"/>
      <point x="465.007" y="54.499"/>
      <point x="439.007" y="39.499" type="curve" smooth="yes"/>
      <point x="413.007" y="24.499"/>
      <point x="375.674" y="14.999"/>
      <point x="327.007" y="10.999" type="curve"/>
      <point x="327.007" y="8.99902" type="line"/>
      <point x="327.007" y="-21.001" type="line" smooth="yes"/>
      <point x="327.007" y="-31.668"/>
      <point x="323.34" y="-40.668"/>
      <point x="316.007" y="-48.001" type="curve" smooth="yes"/>
      <point x="308.674" y="-55.334"/>
      <point x="299.674" y="-59.001"/>
      <point x="289.007" y="-59.001" type="curve" smooth="yes"/>
      <point x="271.007" y="-59.001" type="line" smooth="yes"/>
      <point x="260.34" y="-59.001"/>
      <point x="251.34" y="-55.334"/>
      <point x="244.007" y="-48.001" type="curve" smooth="yes"/>
      <point x="236.674" y="-40.668"/>
      <point x="233.007" y="-31.668"/>
      <point x="233.007" y="-21.001" type="curve" smooth="yes"/>
      <point x="233.007" y="8.99902" type="line"/>
      <point x="233.007" y="10.999" type="line"/>
      <point x="189.674" y="14.999"/>
      <point x="155.674" y="23.166"/>
      <point x="131.007" y="35.499" type="curve" smooth="yes"/>
      <point x="106.34" y="47.832"/>
      <point x="87.6729" y="61.332"/>
      <point x="75.0059" y="75.999" type="curve" smooth="yes"/>
      <point x="62.3389" y="90.666"/>
      <point x="54.1719" y="104.499"/>
      <point x="50.5049" y="117.499" type="curve" smooth="yes"/>
      <point x="46.8379" y="130.499"/>
      <point x="45.0049" y="139.666"/>
      <point x="45.0049" y="144.999" type="curve" smooth="yes"/>
      <point x="44.3379" y="147.666"/>
      <point x="44.0049" y="151.999"/>
      <point x="44.0049" y="157.999" type="curve" smooth="yes"/>
      <point x="44.0049" y="182.666"/>
      <point x="52.5049" y="203.666"/>
      <point x="69.5049" y="220.999" type="curve" smooth="yes"/>
      <point x="86.5049" y="238.332"/>
      <point x="107.338" y="246.999"/>
      <point x="132.005" y="246.999" type="curve" smooth="yes"/>
      <point x="156.672" y="246.999"/>
      <point x="177.672" y="238.332"/>
      <point x="195.005" y="220.999" type="curve" smooth="yes"/>
      <point x="212.338" y="203.666"/>
      <point x="221.005" y="182.666"/>
      <point x="221.005" y="157.999" type="curve" smooth="yes"/>
      <point x="222.005" y="104.999" type="line" smooth="yes"/>
      <point x="222.672" y="97.666"/>
      <point x="225.005" y="90.999"/>
      <point x="229.005" y="84.999" type="curve" smooth="yes"/>
      <point x="232.338" y="79.666"/>
      <point x="238.005" y="74.999"/>
      <point x="246.005" y="70.999" type="curve" smooth="yes"/>
      <point x="254.005" y="66.999"/>
      <point x="265.338" y="64.999"/>
      <point x="280.005" y="64.999" type="curve" smooth="yes"/>
      <point x="294.672" y="64.999"/>
      <point x="306.172" y="66.999"/>
      <point x="314.505" y="70.999" type="curve" smooth="yes"/>
      <point x="322.838" y="74.999"/>
      <point x="328.671" y="79.666"/>
      <point x="332.004" y="84.999" type="curve" smooth="yes"/>
      <point x="336.004" y="90.999"/>
      <point x="338.337" y="97.999"/>
      <point x="339.004" y="105.999" type="curve" smooth="yes"/>
      <point x="340.004" y="149.999" type="line" smooth="yes"/>
      <point x="340.004" y="155.332"/>
      <point x="339.337" y="161.999"/>
      <point x="338.004" y="169.999" type="curve" smooth="yes"/>
      <point x="336.671" y="177.999"/>
      <point x="334.504" y="185.999"/>
      <point x="331.504" y="193.999" type="curve" smooth="yes"/>
      <point x="328.504" y="201.999"/>
      <point x="324.171" y="209.332"/>
      <point x="318.504" y="215.999" type="curve" smooth="yes"/>
      <point x="312.837" y="222.666"/>
      <point x="305.67" y="227.333"/>
      <point x="297.003" y="230" type="curve" smooth="yes"/>
      <point x="295.003" y="230"/>
      <point x="292.67" y="230.667"/>
      <point x="290.003" y="232" type="curve" smooth="yes"/>
      <point x="277.336" y="236"/>
      <point x="262.169" y="240.833"/>
      <point x="244.502" y="246.5" type="curve" smooth="yes"/>
      <point x="226.835" y="252.167"/>
      <point x="208.502" y="258.167"/>
      <point x="189.502" y="264.5" type="curve" smooth="yes"/>
      <point x="170.502" y="270.833"/>
      <point x="152.002" y="277.666"/>
      <point x="134.002" y="284.999" type="curve" smooth="yes"/>
      <point x="116.002" y="292.332"/>
      <point x="101.002" y="299.665"/>
      <point x="89.002" y="306.998" type="curve" smooth="yes"/>
      <point x="85.002" y="308.998" type="line" smooth="yes"/>
      <point x="83.6689" y="309.665"/>
      <point x="82.3359" y="310.665"/>
      <point x="81.0029" y="311.998" type="curve" smooth="yes"/>
      <point x="74.3359" y="316.665"/>
      <point x="69.6689" y="320.665"/>
      <point x="67.002" y="323.998" type="curve" smooth="yes"/>
      <point x="65.6689" y="325.331"/>
      <point x="64.6689" y="326.664"/>
      <point x="64.002" y="327.997" type="curve" smooth="yes"/>
      <point x="50.6689" y="343.33"/>
      <point x="44.002" y="361.997"/>
      <point x="44.002" y="383.997" type="curve" smooth="yes"/>
      <point x="44.002" y="393.997" type="line" smooth="yes"/>
      <point x="45.335" y="416.664"/>
      <point x="52.668" y="437.331"/>
      <point x="66.001" y="455.998" type="curve" smooth="yes"/>
      <point x="77.334" y="471.998"/>
      <point x="95.834" y="487.331"/>
      <point x="121.501" y="501.998" type="curve" smooth="yes"/>
      <point x="147.168" y="516.665"/>
      <point x="184.335" y="526.332"/>
      <point x="233.002" y="530.999" type="curve"/>
      <point x="233.002" y="555.999" type="line" smooth="yes"/>
      <point x="233.002" y="566.666"/>
      <point x="236.669" y="575.666"/>
      <point x="244.002" y="582.999" type="curve" smooth="yes"/>
      <point x="251.335" y="590.332"/>
      <point x="260.335" y="593.999"/>
      <point x="271.002" y="593.999" type="curve" smooth="yes"/>
      <point x="289.002" y="593.999" type="line" smooth="yes"/>
      <point x="299.669" y="593.999"/>
      <point x="308.669" y="590.332"/>
      <point x="316.002" y="582.999" type="curve" smooth="yes"/>
      <point x="323.335" y="575.666"/>
      <point x="327.002" y="566.666"/>
      <point x="327.002" y="555.999" type="curve" smooth="yes"/>
      <point x="327.002" y="530.999" type="line"/>
      <point x="370.335" y="526.999"/>
      <point x="404.502" y="518.832"/>
      <point x="429.502" y="506.499" type="curve" smooth="yes"/>
      <point x="454.502" y="494.166"/>
      <point x="473.335" y="480.833"/>
      <point x="486.002" y="466.5" type="curve" smooth="yes"/>
      <point x="498.669" y="452.167"/>
      <point x="506.669" y="438.334"/>
      <point x="510.002" y="425.001" type="curve" smooth="yes"/>
      <point x="513.335" y="411.668"/>
      <point x="515.335" y="402.668"/>
      <point x="516.002" y="398.001" type="curve" smooth="yes"/>
      <point x="516.002" y="395.334"/>
      <point x="516.169" y="393.001"/>
      <point x="516.502" y="391.001" type="curve" smooth="yes"/>
      <point x="516.835" y="389.001"/>
      <point x="517.002" y="386.668"/>
      <point x="517.002" y="384.001" type="curve" smooth="yes"/>
      <point x="517.002" y="359.334"/>
      <point x="508.335" y="338.501"/>
      <point x="491.002" y="321.501" type="curve" smooth="yes"/>
      <point x="473.669" y="304.501"/>
      <point x="452.669" y="296.001"/>
      <point x="428.002" y="296.001" type="curve" smooth="yes"/>
      <point x="403.335" y="296.001"/>
      <point x="382.502" y="304.501"/>
      <point x="365.502" y="321.501" type="curve" smooth="yes"/>
      <point x="348.502" y="338.501"/>
      <point x="340.002" y="359.334"/>
      <point x="340.002" y="384.001" type="curve" smooth="yes"/>
      <point x="339.002" y="437.001" type="line" smooth="yes"/>
      <point x="338.335" y="444.334"/>
      <point x="336.002" y="451.001"/>
      <point x="332.002" y="457.001" type="curve" smooth="yes"/>
      <point x="328.669" y="462.334"/>
      <point x="322.836" y="467.001"/>
      <point x="314.503" y="471.001" type="curve" smooth="yes"/>
      <point x="306.17" y="475.001"/>
      <point x="294.67" y="477.001"/>
      <point x="280.003" y="477.001" type="curve" smooth="yes"/>
      <point x="264.67" y="477.001"/>
      <point x="253.003" y="475.001"/>
      <point x="245.003" y="471.001" type="curve" smooth="yes"/>
      <point x="237.003" y="467.001"/>
      <point x="231.336" y="462.334"/>
      <point x="228.003" y="457.001" type="curve" smooth="yes"/>
      <point x="224.003" y="451.001"/>
      <point x="221.67" y="444.334"/>
      <point x="221.003" y="437.001" type="curve" smooth="yes"/>
      <point x="221.003" y="392.001" type="line" smooth="yes"/>
      <point x="221.003" y="386.668"/>
      <point x="221.503" y="380.001"/>
      <point x="222.503" y="372.001" type="curve" smooth="yes"/>
      <point x="223.503" y="364.001"/>
      <point x="225.503" y="355.834"/>
      <point x="228.503" y="347.501" type="curve" smooth="yes"/>
      <point x="231.503" y="339.168"/>
      <point x="235.836" y="331.668"/>
      <point x="241.503" y="325.001" type="curve" smooth="yes"/>
      <point x="247.17" y="318.334"/>
      <point x="254.67" y="314.001"/>
      <point x="264.003" y="312.001" type="curve" smooth="yes"/>
      <point x="275.336" y="308.668"/>
      <point x="289.503" y="304.335"/>
      <point x="306.503" y="299.002" type="curve" smooth="yes"/>
      <point x="323.503" y="293.669"/>
      <point x="341.503" y="287.669"/>
      <point x="360.503" y="281.002" type="curve" smooth="yes"/>
      <point x="379.503" y="274.335"/>
      <point x="398.17" y="267.502"/>
      <point x="416.503" y="260.502" type="curve" smooth="yes"/>
      <point x="434.836" y="253.502"/>
      <point x="450.669" y="246.335"/>
      <point x="464.002" y="239.002" type="curve" smooth="yes"/>
      <point x="473.335" y="235.002"/>
      <point x="481.668" y="229.335"/>
      <point x="489.001" y="222.002" type="curve" smooth="yes"/>
      <point x="490.334" y="221.335"/>
      <point x="491.167" y="220.668"/>
      <point x="491.5" y="220.001" type="curve" smooth="yes"/>
      <point x="491.833" y="219.334"/>
      <point x="492.333" y="218.667"/>
      <point x="493" y="218" type="curve" smooth="yes"/>
      <point x="509" y="200.667"/>
      <point x="517" y="180.667"/>
      <point x="517" y="158" type="curve" smooth="yes"/>
    </contour>
  </outline>
</glyph>
<glyph name="percent" format="2">
  <advance width="700"/>
  <unicode hex="0025"/>
  <outline>
    <contour>
      <point x="243" y="528" type="curve" smooth="yes"/>
      <point x="243.667" y="515.333"/>
      <point x="242" y="503.167"/>
      <point x="238" y="491.5" type="curve" smooth="yes"/>
      <point x="234" y="479.833"/>
      <point x="228.167" y="469.666"/>
      <point x="220.5" y="460.999" type="curve" smooth="yes"/>
      <point x="212.833" y="452.332"/>
      <point x="203.5" y="445.165"/>
      <point x="192.5" y="439.498" type="curve" smooth="yes"/>
      <point x="181.5" y="433.831"/>
      <point x="169.667" y="430.664"/>
      <point x="157" y="429.997" type="curve" smooth="yes"/>
      <point x="144.333" y="429.33"/>
      <point x="132.166" y="430.997"/>
      <point x="120.499" y="434.997" type="curve" smooth="yes"/>
      <point x="108.832" y="438.997"/>
      <point x="98.665" y="444.83"/>
      <point x="89.998" y="452.497" type="curve" smooth="yes"/>
      <point x="81.3311" y="460.164"/>
      <point x="74.1641" y="469.497"/>
      <point x="68.4971" y="480.497" type="curve" smooth="yes"/>
      <point x="62.8301" y="491.497"/>
      <point x="59.6631" y="503.33"/>
      <point x="58.9961" y="515.997" type="curve" smooth="yes"/>
      <point x="58.3291" y="528.664"/>
      <point x="59.9961" y="540.831"/>
      <point x="63.9961" y="552.498" type="curve" smooth="yes"/>
      <point x="67.9961" y="564.165"/>
      <point x="73.8291" y="574.332"/>
      <point x="81.4961" y="582.999" type="curve" smooth="yes"/>
      <point x="89.1631" y="591.666"/>
      <point x="98.4961" y="598.833"/>
      <point x="109.496" y="604.5" type="curve" smooth="yes"/>
      <point x="120.496" y="610.167"/>
      <point x="132.329" y="613.334"/>
      <point x="144.996" y="614.001" type="curve" smooth="yes"/>
      <point x="157.663" y="614.668"/>
      <point x="169.83" y="613.001"/>
      <point x="181.497" y="609.001" type="curve" smooth="yes"/>
      <point x="193.164" y="605.001"/>
      <point x="203.331" y="599.001"/>
      <point x="211.998" y="591.001" type="curve" smooth="yes"/>
      <point x="220.665" y="583.001"/>
      <point x="227.832" y="573.668"/>
      <point x="233.499" y="563.001" type="curve" smooth="yes"/>
      <point x="239.166" y="552.334"/>
      <point x="242.333" y="540.667"/>
    </contour>
    <contour>
      <point x="641" y="205.001" type="curve" smooth="yes"/>
      <point x="641.667" y="192.334"/>
      <point x="640.005" y="180.172"/>
      <point x="636.005" y="168.505" type="curve" smooth="yes"/>
      <point x="632.005" y="156.838"/>
      <point x="626.005" y="146.671"/>
      <point x="618.005" y="138.004" type="curve" smooth="yes"/>
      <point x="610.005" y="129.337"/>
      <point x="600.505" y="122.17"/>
      <point x="589.505" y="116.503" type="curve" smooth="yes"/>
      <point x="578.505" y="110.836"/>
      <point x="566.672" y="107.669"/>
      <point x="554.005" y="107.002" type="curve" smooth="yes"/>
      <point x="541.338" y="106.335"/>
      <point x="529.171" y="108.002"/>
      <point x="517.504" y="112.002" type="curve" smooth="yes"/>
      <point x="505.837" y="116.002"/>
      <point x="495.67" y="122.002"/>
      <point x="487.003" y="130.002" type="curve" smooth="yes"/>
      <point x="478.336" y="138.002"/>
      <point x="471.169" y="147.502"/>
      <point x="465.502" y="158.502" type="curve" smooth="yes"/>
      <point x="459.835" y="169.502"/>
      <point x="456.668" y="181.335"/>
      <point x="456.001" y="194.002" type="curve" smooth="yes"/>
      <point x="455.334" y="206.669"/>
      <point x="457.001" y="218.669"/>
      <point x="461.001" y="230.002" type="curve" smooth="yes"/>
      <point x="465.001" y="241.335"/>
      <point x="471.001" y="251.502"/>
      <point x="479.001" y="260.502" type="curve" smooth="yes"/>
      <point x="487.001" y="269.502"/>
      <point x="496.501" y="276.669"/>
      <point x="507.501" y="282.002" type="curve" smooth="yes"/>
      <point x="518.501" y="287.335"/>
      <point x="530.334" y="290.668"/>
      <point x="543.001" y="292.001" type="curve" smooth="yes"/>
      <point x="555.668" y="292.668"/>
      <point x="567.668" y="291.001"/>
      <point x="579.001" y="287.001" type="curve" smooth="yes"/>
      <point x="590.334" y="283.001"/>
      <point x="600.501" y="277.001"/>
      <point x="609.501" y="269.001" type="curve" smooth="yes"/>
      <point x="618.501" y="261.001"/>
      <point x="625.668" y="251.501"/>
      <point x="631.001" y="240.501" type="curve" smooth="yes"/>
      <point x="636.334" y="229.501"/>
      <point x="639.667" y="217.668"/>
    </contour>
    <contour>
      <point x="258.005" y="29.0059" type="curve" smooth="yes"/>
      <point x="237.338" y="34.3389"/>
      <point x="221.672" y="46.3389"/>
      <point x="211.005" y="65.0059" type="curve" smooth="yes"/>
      <point x="200.338" y="83.6729"/>
      <point x="197.671" y="103.34"/>
      <point x="203.004" y="124.007" type="curve" smooth="yes"/>
      <point x="335.004" y="627.007" type="line" smooth="yes"/>
      <point x="340.337" y="648.34"/>
      <point x="352.337" y="664.34"/>
      <point x="371.004" y="675.007" type="curve" smooth="yes"/>
      <point x="389.671" y="685.674"/>
      <point x="409.338" y="688.341"/>
      <point x="430.005" y="683.008" type="curve" smooth="yes"/>
      <point x="451.338" y="677.675"/>
      <point x="467.338" y="665.675"/>
      <point x="478.005" y="647.008" type="curve" smooth="yes"/>
      <point x="488.672" y="628.341"/>
      <point x="491.339" y="608.674"/>
      <point x="486.006" y="588.007" type="curve" smooth="yes"/>
      <point x="353.006" y="85.0068" type="line" smooth="yes"/>
      <point x="347.673" y="63.6738"/>
      <point x="335.673" y="47.6738"/>
      <point x="317.006" y="37.0068" type="curve" smooth="yes"/>
      <point x="298.339" y="26.3398"/>
      <point x="278.672" y="23.6729"/>
    </contour>
  </outline>
</glyph>
<glyph name="ampersand" format="2">
  <advance width="630"/>
  <unicode hex="0026"/>
  <outline>
    <contour>
      <point x="483" y="2" type="line"/>
      <point x="202" y="0.000976562" type="line" smooth="yes"/>
      <point x="168" y="-0"/>
      <point x="129.667" y="0.333984"/>
      <point x="87" y="1.00098" type="curve"/>
      <point x="87" y="590.001" type="line" smooth="yes"/>
      <point x="86.333" y="597.334"/>
      <point x="84.166" y="602.834"/>
      <point x="80.499" y="606.501" type="curve" smooth="yes"/>
      <point x="76.832" y="610.168"/>
      <point x="74.332" y="612.335"/>
      <point x="72.999" y="613.002" type="curve" smooth="yes"/>
      <point x="69.666" y="615.002"/>
      <point x="67.999" y="617.669"/>
      <point x="67.999" y="621.002" type="curve" smooth="yes"/>
      <point x="67.999" y="627.669"/>
      <point x="71.332" y="631.002"/>
      <point x="77.999" y="631.002" type="curve" smooth="yes"/>
      <point x="86.999" y="631.002" type="line"/>
      <point x="225.999" y="631.002" type="line"/>
      <point x="263.999" y="631.002" type="line"/>
      <point x="291.999" y="631.002" type="line" smooth="yes"/>
      <point x="297.332" y="631.002"/>
      <point x="302.665" y="631.169"/>
      <point x="307.998" y="631.502" type="curve" smooth="yes"/>
      <point x="313.331" y="631.835"/>
      <point x="318.998" y="632.002"/>
      <point x="324.998" y="632.002" type="curve" smooth="yes"/>
      <point x="362.998" y="632.002"/>
      <point x="395.165" y="628.835"/>
      <point x="421.498" y="622.502" type="curve" smooth="yes"/>
      <point x="447.831" y="616.169"/>
      <point x="469.831" y="608.336"/>
      <point x="487.498" y="599.003" type="curve" smooth="yes"/>
      <point x="505.165" y="589.67"/>
      <point x="518.832" y="579.17"/>
      <point x="528.499" y="567.503" type="curve" smooth="yes"/>
      <point x="538.166" y="555.836"/>
      <point x="545.333" y="545.003"/>
      <point x="550" y="535.003" type="curve" smooth="yes"/>
      <point x="555.333" y="524.336"/>
      <point x="558.5" y="515.169"/>
      <point x="559.5" y="507.502" type="curve" smooth="yes"/>
      <point x="560.5" y="499.835"/>
      <point x="561" y="495.002"/>
      <point x="561" y="493.002" type="curve" smooth="yes"/>
      <point x="561" y="483.002" type="line" smooth="yes"/>
      <point x="561" y="458.335"/>
      <point x="552.333" y="437.335"/>
      <point x="535" y="420.002" type="curve" smooth="yes"/>
      <point x="517.667" y="402.669"/>
      <point x="496.667" y="394.002"/>
      <point x="472" y="394.002" type="curve" smooth="yes"/>
      <point x="448" y="394.002"/>
      <point x="427.5" y="402.502"/>
      <point x="410.5" y="419.502" type="curve" smooth="yes"/>
      <point x="393.5" y="436.502"/>
      <point x="384.667" y="456.669"/>
      <point x="384" y="480.002" type="curve" smooth="yes"/>
      <point x="383" y="535.002" type="line" smooth="yes"/>
      <point x="382.333" y="542.335"/>
      <point x="380" y="549.002"/>
      <point x="376" y="555.002" type="curve" smooth="yes"/>
      <point x="372.667" y="560.335"/>
      <point x="366.834" y="565.168"/>
      <point x="358.501" y="569.501" type="curve" smooth="yes"/>
      <point x="350.168" y="573.834"/>
      <point x="338.668" y="576.001"/>
      <point x="324.001" y="576.001" type="curve" smooth="yes"/>
      <point x="266.001" y="576.001" type="line"/>
      <point x="264.001" y="296.001" type="line"/>
      <point x="399.001" y="296.001" type="line" smooth="yes"/>
      <point x="404.334" y="296.001"/>
      <point x="408.501" y="297.501"/>
      <point x="411.501" y="300.501" type="curve" smooth="yes"/>
      <point x="414.501" y="303.501"/>
      <point x="417.334" y="307.334"/>
      <point x="420.001" y="312.001" type="curve" smooth="yes"/>
      <point x="421.334" y="317.334"/>
      <point x="423.001" y="321.001"/>
      <point x="425.001" y="323.001" type="curve" smooth="yes"/>
      <point x="429.668" y="327.668"/>
      <point x="434.668" y="330.001"/>
      <point x="440.001" y="330.001" type="curve" smooth="yes"/>
      <point x="452.001" y="330.001" type="line" smooth="yes"/>
      <point x="457.334" y="330.001"/>
      <point x="462.334" y="327.668"/>
      <point x="467.001" y="323.001" type="curve" smooth="yes"/>
      <point x="471.001" y="319.668"/>
      <point x="473.001" y="315.001"/>
      <point x="473.001" y="309.001" type="curve" smooth="yes"/>
      <point x="473.001" y="211.001" type="line" smooth="yes"/>
      <point x="473.001" y="207.001"/>
      <point x="471.334" y="202.668"/>
      <point x="468.001" y="198.001" type="curve" smooth="yes"/>
      <point x="463.334" y="193.334"/>
      <point x="458.001" y="191.001"/>
      <point x="452.001" y="191.001" type="curve" smooth="yes"/>
      <point x="440.001" y="191.001" type="line" smooth="yes"/>
      <point x="433.334" y="191.001"/>
      <point x="427.667" y="194.334"/>
      <point x="423" y="201.001" type="curve" smooth="yes"/>
      <point x="421.667" y="202.334"/>
      <point x="421" y="203.667"/>
      <point x="421" y="205" type="curve" smooth="yes"/>
      <point x="418.333" y="210.333"/>
      <point x="415.333" y="214.5"/>
      <point x="412" y="217.5" type="curve" smooth="yes"/>
      <point x="408.667" y="220.5"/>
      <point x="404.334" y="222"/>
      <point x="399.001" y="222" type="curve" smooth="yes"/>
      <point x="264.001" y="222" type="line"/>
      <point x="265.001" y="56" type="line"/>
      <point x="484.001" y="56" type="line"/>
    </contour>
  </outline>
</glyph>
<glyph name="parenleft" format="2">
  <advance width="300"/>
  <unicode hex="0028"/>
  <outline>
    <contour>
      <point x="243" y="62" type="curve" smooth="yes"/>
      <point x="248.333" y="60.667"/>
      <point x="252.834" y="57.4971"/>
      <point x="256.501" y="52.4971" type="curve" smooth="yes"/>
      <point x="260.168" y="47.4971"/>
      <point x="262.001" y="41.9971"/>
      <point x="262.001" y="35.9971" type="curve" smooth="yes"/>
      <point x="262.001" y="29.3301"/>
      <point x="259.834" y="23.6631"/>
      <point x="255.501" y="18.9961" type="curve" smooth="yes"/>
      <point x="251.168" y="14.3291"/>
      <point x="245.668" y="11.3291"/>
      <point x="239.001" y="9.99609" type="curve" smooth="yes"/>
      <point x="236.001" y="9.99609" type="line"/>
      <point x="230.001" y="9.99609" type="line" smooth="yes"/>
      <point x="186.001" y="11.9961"/>
      <point x="151.334" y="18.8291"/>
      <point x="126.001" y="30.4961" type="curve" smooth="yes"/>
      <point x="100.668" y="42.1631"/>
      <point x="81.501" y="54.8301"/>
      <point x="68.501" y="68.4971" type="curve" smooth="yes"/>
      <point x="55.501" y="82.1641"/>
      <point x="47.334" y="95.3311"/>
      <point x="44.001" y="107.998" type="curve" smooth="yes"/>
      <point x="40.668" y="120.665"/>
      <point x="38.668" y="129.332"/>
      <point x="38.001" y="133.999" type="curve" smooth="yes"/>
      <point x="38.001" y="135.999"/>
      <point x="37.834" y="137.999"/>
      <point x="37.501" y="139.999" type="curve" smooth="yes"/>
      <point x="37.168" y="141.999"/>
      <point x="37.001" y="144.332"/>
      <point x="37.001" y="146.999" type="curve" smooth="yes"/>
      <point x="37.001" y="148.332"/>
      <point x="37.334" y="149.665"/>
      <point x="38.001" y="150.998" type="curve"/>
      <point x="37.001" y="150.998" type="line"/>
      <point x="37.001" y="523.998" type="line"/>
      <point x="38.001" y="523.998" type="line"/>
      <point x="37.334" y="524.665"/>
      <point x="37.001" y="525.998"/>
      <point x="37.001" y="527.998" type="curve" smooth="yes"/>
      <point x="37.001" y="530.665"/>
      <point x="37.168" y="532.998"/>
      <point x="37.501" y="534.998" type="curve" smooth="yes"/>
      <point x="37.834" y="536.998"/>
      <point x="38.001" y="538.998"/>
      <point x="38.001" y="540.998" type="curve" smooth="yes"/>
      <point x="38.668" y="545.665"/>
      <point x="40.668" y="554.332"/>
      <point x="44.001" y="566.999" type="curve" smooth="yes"/>
      <point x="47.334" y="579.666"/>
      <point x="55.501" y="592.833"/>
      <point x="68.501" y="606.5" type="curve" smooth="yes"/>
      <point x="81.501" y="620.167"/>
      <point x="100.668" y="632.834"/>
      <point x="126.001" y="644.501" type="curve" smooth="yes"/>
      <point x="151.334" y="656.168"/>
      <point x="186.001" y="663.001"/>
      <point x="230.001" y="665.001" type="curve" smooth="yes"/>
      <point x="236.001" y="665.001" type="line"/>
      <point x="239.001" y="665.001" type="line" smooth="yes"/>
      <point x="245.668" y="663.668"/>
      <point x="251.168" y="660.668"/>
      <point x="255.501" y="656.001" type="curve" smooth="yes"/>
      <point x="259.834" y="651.334"/>
      <point x="262.001" y="645.667"/>
      <point x="262.001" y="639" type="curve" smooth="yes"/>
      <point x="262.001" y="633"/>
      <point x="260.168" y="627.5"/>
      <point x="256.501" y="622.5" type="curve" smooth="yes"/>
      <point x="252.834" y="617.5"/>
      <point x="248.334" y="614.333"/>
      <point x="243.001" y="613" type="curve" smooth="yes"/>
      <point x="241.668" y="613"/>
      <point x="240.668" y="612.833"/>
      <point x="240.001" y="612.5" type="curve" smooth="yes"/>
      <point x="239.334" y="612.167"/>
      <point x="238.334" y="612"/>
      <point x="237.001" y="612" type="curve" smooth="yes"/>
      <point x="220.334" y="608"/>
      <point x="209.667" y="601.333"/>
      <point x="205" y="592" type="curve" smooth="yes"/>
      <point x="202.333" y="587.333"/>
      <point x="201" y="582.333"/>
      <point x="201" y="577" type="curve" smooth="yes"/>
      <point x="201" y="98" type="line" smooth="yes"/>
      <point x="201" y="92.667"/>
      <point x="202.333" y="87.667"/>
      <point x="205" y="83" type="curve" smooth="yes"/>
      <point x="207" y="79"/>
      <point x="210.5" y="75"/>
      <point x="215.5" y="71" type="curve" smooth="yes"/>
      <point x="220.5" y="67"/>
      <point x="227.667" y="64.333"/>
      <point x="237" y="63" type="curve" smooth="yes"/>
      <point x="238.333" y="63"/>
      <point x="239.333" y="62.833"/>
      <point x="240" y="62.5" type="curve" smooth="yes"/>
      <point x="240.667" y="62.167"/>
      <point x="241.667" y="62"/>
    </contour>
  </outline>
</glyph>
<glyph name="parenright" format="2">
  <advance width="300"/>
  <unicode hex="0029"/>
  <outline>
    <contour>
      <point x="56" y="608" type="curve" smooth="yes"/>
      <point x="43.333" y="611.333"/>
      <point x="37" y="619.669"/>
      <point x="37" y="633.002" type="curve" smooth="yes"/>
      <point x="37" y="640.335"/>
      <point x="39.167" y="646.335"/>
      <point x="43.5" y="651.002" type="curve" smooth="yes"/>
      <point x="47.833" y="655.669"/>
      <point x="53.333" y="658.669"/>
      <point x="60" y="660.002" type="curve" smooth="yes"/>
      <point x="63" y="660.002" type="line" smooth="yes"/>
      <point x="65.667" y="660.002"/>
      <point x="67.667" y="659.669"/>
      <point x="69" y="659.002" type="curve" smooth="yes"/>
      <point x="113" y="657.002"/>
      <point x="147.667" y="650.335"/>
      <point x="173" y="639.002" type="curve" smooth="yes"/>
      <point x="198.333" y="627.669"/>
      <point x="217.5" y="615.169"/>
      <point x="230.5" y="601.502" type="curve" smooth="yes"/>
      <point x="243.5" y="587.835"/>
      <point x="251.833" y="574.502"/>
      <point x="255.5" y="561.502" type="curve" smooth="yes"/>
      <point x="259.167" y="548.502"/>
      <point x="261" y="539.669"/>
      <point x="261" y="535.002" type="curve" smooth="yes"/>
      <point x="261" y="533.002"/>
      <point x="261.167" y="531.002"/>
      <point x="261.5" y="529.002" type="curve" smooth="yes"/>
      <point x="261.833" y="527.002"/>
      <point x="262" y="525.002"/>
      <point x="262" y="523.002" type="curve" smooth="yes"/>
      <point x="262" y="521.002"/>
      <point x="261.667" y="519.669"/>
      <point x="261" y="519.002" type="curve"/>
      <point x="262" y="519.002" type="line"/>
      <point x="262" y="146.002" type="line"/>
      <point x="261" y="146.002" type="line"/>
      <point x="261.667" y="144.669"/>
      <point x="262" y="143.002"/>
      <point x="262" y="141.002" type="curve" smooth="yes"/>
      <point x="262" y="139.002"/>
      <point x="261.833" y="137.002"/>
      <point x="261.5" y="135.002" type="curve" smooth="yes"/>
      <point x="261.167" y="133.002"/>
      <point x="261" y="131.002"/>
      <point x="261" y="129.002" type="curve" smooth="yes"/>
      <point x="261" y="124.335"/>
      <point x="259.167" y="115.668"/>
      <point x="255.5" y="103.001" type="curve" smooth="yes"/>
      <point x="251.833" y="90.334"/>
      <point x="243.5" y="77.001"/>
      <point x="230.5" y="63.001" type="curve" smooth="yes"/>
      <point x="217.5" y="49.001"/>
      <point x="198.333" y="36.334"/>
      <point x="173" y="25.001" type="curve" smooth="yes"/>
      <point x="147.667" y="13.668"/>
      <point x="113" y="7.00098"/>
      <point x="69" y="5.00098" type="curve" smooth="yes"/>
      <point x="67.667" y="5.00098"/>
      <point x="66.667" y="4.83398"/>
      <point x="66" y="4.50098" type="curve" smooth="yes"/>
      <point x="65.333" y="4.16797"/>
      <point x="64.333" y="4.00098"/>
      <point x="63" y="4.00098" type="curve" smooth="yes"/>
      <point x="62.333" y="4.00098"/>
      <point x="61.833" y="4.16797"/>
      <point x="61.5" y="4.50098" type="curve" smooth="yes"/>
      <point x="61.167" y="4.83398"/>
      <point x="60.667" y="5.00098"/>
      <point x="60" y="5.00098" type="curve" smooth="yes"/>
      <point x="53.333" y="5.66797"/>
      <point x="47.833" y="8.33496"/>
      <point x="43.5" y="13.002" type="curve" smooth="yes"/>
      <point x="39.167" y="17.6689"/>
      <point x="37" y="23.6689"/>
      <point x="37" y="31.002" type="curve" smooth="yes"/>
      <point x="37" y="44.335"/>
      <point x="43.333" y="52.668"/>
      <point x="56" y="56.001" type="curve" smooth="yes"/>
      <point x="57.333" y="56.668"/>
      <point x="59.333" y="57.001"/>
      <point x="62" y="57.001" type="curve" smooth="yes"/>
      <point x="71.333" y="58.334"/>
      <point x="78.166" y="61.167"/>
      <point x="82.499" y="65.5" type="curve" smooth="yes"/>
      <point x="86.832" y="69.833"/>
      <point x="90.332" y="74"/>
      <point x="92.999" y="78" type="curve" smooth="yes"/>
      <point x="95.666" y="82.667"/>
      <point x="97.333" y="87.667"/>
      <point x="98" y="93" type="curve" smooth="yes"/>
      <point x="98" y="572" type="line" smooth="yes"/>
      <point x="97.333" y="577.333"/>
      <point x="95.666" y="582.333"/>
      <point x="92.999" y="587" type="curve" smooth="yes"/>
      <point x="90.332" y="591"/>
      <point x="86.832" y="594.833"/>
      <point x="82.499" y="598.5" type="curve" smooth="yes"/>
      <point x="78.166" y="602.167"/>
      <point x="71.333" y="605"/>
      <point x="62" y="607" type="curve" smooth="yes"/>
      <point x="59.333" y="607"/>
      <point x="57.333" y="607.333"/>
    </contour>
  </outline>
</glyph>
<glyph name="asterisk" format="2">
  <advance width="500"/>
  <unicode hex="002A"/>
  <outline>
    <contour>
      <point x="410.381" y="307.038" type="curve" smooth="yes"/>
      <point x="411.796" y="287.71"/>
      <point x="404.725" y="270.27"/>
      <point x="389.169" y="254.713" type="curve" smooth="yes"/>
      <point x="374.555" y="240.099"/>
      <point x="356.877" y="232.792"/>
      <point x="336.135" y="232.792" type="curve" smooth="yes"/>
      <point x="315.393" y="232.792"/>
      <point x="297.715" y="240.099"/>
      <point x="283.102" y="254.713" type="curve" smooth="yes"/>
      <point x="246.332" y="291.482" type="line"/>
      <point x="208.855" y="254.006" type="line" smooth="yes"/>
      <point x="195.185" y="240.335"/>
      <point x="177.507" y="233.5"/>
      <point x="155.823" y="233.5" type="curve" smooth="yes"/>
      <point x="135.553" y="232.086"/>
      <point x="117.875" y="238.921"/>
      <point x="102.79" y="254.006" type="curve" smooth="yes"/>
      <point x="88.6484" y="268.147"/>
      <point x="81.5771" y="286.062"/>
      <point x="81.5771" y="307.746" type="curve" smooth="yes"/>
      <point x="81.5771" y="328.488"/>
      <point x="88.6484" y="345.93"/>
      <point x="102.79" y="360.071" type="curve" smooth="yes"/>
      <point x="140.268" y="397.549" type="line"/>
      <point x="102.79" y="435.025" type="line" smooth="yes"/>
      <point x="88.6484" y="449.167"/>
      <point x="81.5771" y="466.608"/>
      <point x="81.5771" y="487.351" type="curve" smooth="yes"/>
      <point x="81.5771" y="509.035"/>
      <point x="88.6484" y="526.949"/>
      <point x="102.79" y="541.091" type="curve" smooth="yes"/>
      <point x="117.875" y="556.176"/>
      <point x="135.553" y="563.011"/>
      <point x="155.823" y="561.597" type="curve" smooth="yes"/>
      <point x="177.507" y="561.597"/>
      <point x="195.185" y="554.762"/>
      <point x="208.855" y="541.091" type="curve" smooth="yes"/>
      <point x="246.332" y="503.614" type="line"/>
      <point x="283.102" y="540.384" type="line" smooth="yes"/>
      <point x="298.186" y="555.469"/>
      <point x="315.863" y="562.776"/>
      <point x="336.135" y="562.305" type="curve" smooth="yes"/>
      <point x="356.877" y="562.305"/>
      <point x="374.555" y="554.997"/>
      <point x="389.168" y="540.383" type="curve" smooth="yes"/>
      <point x="404.725" y="524.827"/>
      <point x="411.796" y="507.386"/>
      <point x="410.381" y="488.058" type="curve" smooth="yes"/>
      <point x="411.324" y="467.315"/>
      <point x="404.253" y="449.402"/>
      <point x="389.168" y="434.317" type="curve" smooth="yes"/>
      <point x="352.398" y="397.548" type="line"/>
      <point x="389.168" y="360.778" type="line" smooth="yes"/>
      <point x="403.311" y="346.636"/>
      <point x="410.381" y="328.723"/>
    </contour>
    <contour>
      <point x="428" y="444" type="curve" smooth="yes"/>
      <point x="442.667" y="431.333"/>
      <point x="450" y="414.001"/>
      <point x="450" y="392.001" type="curve" smooth="yes"/>
      <point x="450" y="371.334"/>
      <point x="442.667" y="353.667"/>
      <point x="428" y="339" type="curve" smooth="yes"/>
      <point x="413.333" y="324.333"/>
      <point x="395.666" y="317"/>
      <point x="374.999" y="317" type="curve" smooth="yes"/>
      <point x="322.999" y="317" type="line"/>
      <point x="322.999" y="264" type="line" smooth="yes"/>
      <point x="322.999" y="244.667"/>
      <point x="315.332" y="227.334"/>
      <point x="299.999" y="212.001" type="curve" smooth="yes"/>
      <point x="286.666" y="196.668"/>
      <point x="269.333" y="189.001"/>
      <point x="248" y="189.001" type="curve" smooth="yes"/>
      <point x="228" y="189.001"/>
      <point x="210.333" y="196.668"/>
      <point x="195" y="212.001" type="curve" smooth="yes"/>
      <point x="180.333" y="226.668"/>
      <point x="173" y="244.001"/>
      <point x="173" y="264.001" type="curve" smooth="yes"/>
      <point x="173" y="317.001" type="line"/>
      <point x="120" y="317.001" type="line" smooth="yes"/>
      <point x="100" y="317.001"/>
      <point x="82.667" y="324.334"/>
      <point x="68" y="339.001" type="curve" smooth="yes"/>
      <point x="52.667" y="354.334"/>
      <point x="45" y="372.001"/>
      <point x="45" y="392.001" type="curve" smooth="yes"/>
      <point x="45" y="413.334"/>
      <point x="52.667" y="430.667"/>
      <point x="68" y="444" type="curve" smooth="yes"/>
      <point x="83.333" y="459.333"/>
      <point x="100.666" y="467"/>
      <point x="119.999" y="467" type="curve" smooth="yes"/>
      <point x="172.999" y="467" type="line"/>
      <point x="172.999" y="519" type="line" smooth="yes"/>
      <point x="172.999" y="540.333"/>
      <point x="180.332" y="558"/>
      <point x="194.999" y="572" type="curve" smooth="yes"/>
      <point x="209.666" y="586.667"/>
      <point x="227.333" y="594"/>
      <point x="248" y="594" type="curve" smooth="yes"/>
      <point x="270" y="594"/>
      <point x="287.333" y="586.667"/>
      <point x="300" y="572" type="curve" smooth="yes"/>
      <point x="315.333" y="558"/>
      <point x="323" y="540.333"/>
      <point x="323" y="519" type="curve" smooth="yes"/>
      <point x="323" y="467" type="line"/>
      <point x="375" y="467" type="line" smooth="yes"/>
      <point x="395" y="467"/>
      <point x="412.667" y="459.333"/>
    </contour>
  </outline>
</glyph>
<glyph name="plus" format="2">
  <advance width="500"/>
  <unicode hex="002B"/>
  <outline>
    <contour>
      <point x="428" y="444" type="curve" smooth="yes"/>
      <point x="442.667" y="431.333"/>
      <point x="450" y="414.001"/>
      <point x="450" y="392.001" type="curve" smooth="yes"/>
      <point x="450" y="371.334"/>
      <point x="442.667" y="353.667"/>
      <point x="428" y="339" type="curve" smooth="yes"/>
      <point x="413.333" y="324.333"/>
      <point x="395.666" y="317"/>
      <point x="374.999" y="317" type="curve" smooth="yes"/>
      <point x="322.999" y="317" type="line"/>
      <point x="322.999" y="264" type="line" smooth="yes"/>
      <point x="322.999" y="244.667"/>
      <point x="315.332" y="227.334"/>
      <point x="299.999" y="212.001" type="curve" smooth="yes"/>
      <point x="286.666" y="196.668"/>
      <point x="269.333" y="189.001"/>
      <point x="248" y="189.001" type="curve" smooth="yes"/>
      <point x="228" y="189.001"/>
      <point x="210.333" y="196.668"/>
      <point x="195" y="212.001" type="curve" smooth="yes"/>
      <point x="180.333" y="226.668"/>
      <point x="173" y="244.001"/>
      <point x="173" y="264.001" type="curve" smooth="yes"/>
      <point x="173" y="317.001" type="line"/>
      <point x="120" y="317.001" type="line" smooth="yes"/>
      <point x="100" y="317.001"/>
      <point x="82.667" y="324.334"/>
      <point x="68" y="339.001" type="curve" smooth="yes"/>
      <point x="52.667" y="354.334"/>
      <point x="45" y="372.001"/>
      <point x="45" y="392.001" type="curve" smooth="yes"/>
      <point x="45" y="413.334"/>
      <point x="52.667" y="430.667"/>
      <point x="68" y="444" type="curve" smooth="yes"/>
      <point x="83.333" y="459.333"/>
      <point x="100.666" y="467"/>
      <point x="119.999" y="467" type="curve" smooth="yes"/>
      <point x="172.999" y="467" type="line"/>
      <point x="172.999" y="519" type="line" smooth="yes"/>
      <point x="172.999" y="540.333"/>
      <point x="180.332" y="558"/>
      <point x="194.999" y="572" type="curve" smooth="yes"/>
      <point x="209.666" y="586.667"/>
      <point x="227.333" y="594"/>
      <point x="248" y="594" type="curve" smooth="yes"/>
      <point x="270" y="594"/>
      <point x="287.333" y="586.667"/>
      <point x="300" y="572" type="curve" smooth="yes"/>
      <point x="315.333" y="558"/>
      <point x="323" y="540.333"/>
      <point x="323" y="519" type="curve" smooth="yes"/>
      <point x="323" y="467" type="line"/>
      <point x="375" y="467" type="line" smooth="yes"/>
      <point x="395" y="467"/>
      <point x="412.667" y="459.333"/>
    </contour>
  </outline>
</glyph>
<glyph name="comma" format="2">
  <advance width="200"/>
  <unicode hex="002C"/>
  <outline>
    <contour>
      <point x="24" y="-69" type="curve" smooth="yes"/>
      <point x="34" y="-64.333"/>
      <point x="41.9971" y="-58.501"/>
      <point x="47.9971" y="-51.501" type="curve" smooth="yes"/>
      <point x="53.9971" y="-44.501"/>
      <point x="58.4971" y="-37.168"/>
      <point x="61.4971" y="-29.501" type="curve" smooth="yes"/>
      <point x="64.4971" y="-21.834"/>
      <point x="66.3301" y="-14.501"/>
      <point x="66.9971" y="-7.50098" type="curve" smooth="yes"/>
      <point x="67.6641" y="-0.500977"/>
      <point x="67.6641" y="5.66602"/>
      <point x="66.9971" y="10.999" type="curve" smooth="yes"/>
      <point x="66.3301" y="12.332"/>
      <point x="65.3301" y="14.665"/>
      <point x="63.9971" y="17.998" type="curve" smooth="yes"/>
      <point x="59.9971" y="27.998" type="line"/>
      <point x="53.9971" y="39.998" type="line"/>
      <point x="47.9971" y="51.998" type="line" smooth="yes"/>
      <point x="42.6641" y="59.998"/>
      <point x="39.8311" y="68.498"/>
      <point x="39.498" y="77.498" type="curve" smooth="yes"/>
      <point x="39.165" y="86.498"/>
      <point x="40.498" y="95.3311"/>
      <point x="43.498" y="103.998" type="curve" smooth="yes"/>
      <point x="46.498" y="112.665"/>
      <point x="50.8311" y="120.832"/>
      <point x="56.498" y="128.499" type="curve" smooth="yes"/>
      <point x="62.165" y="136.166"/>
      <point x="68.665" y="142.333"/>
      <point x="75.998" y="147" type="curve" smooth="yes"/>
      <point x="93.998" y="155.667"/>
      <point x="112.498" y="156.834"/>
      <point x="131.498" y="150.501" type="curve" smooth="yes"/>
      <point x="150.498" y="144.168"/>
      <point x="164.665" y="131.668"/>
      <point x="173.998" y="113.001" type="curve" smooth="yes"/>
      <point x="175.331" y="111.668"/>
      <point x="175.831" y="109.835"/>
      <point x="175.498" y="107.502" type="curve" smooth="yes"/>
      <point x="175.165" y="105.169"/>
      <point x="175.998" y="104.002"/>
      <point x="177.998" y="104.002" type="curve"/>
      <point x="177.998" y="100.669"/>
      <point x="178.831" y="97.1689"/>
      <point x="180.498" y="93.502" type="curve" smooth="yes"/>
      <point x="182.165" y="89.835"/>
      <point x="182.332" y="84.002"/>
      <point x="180.999" y="76.002" type="curve" smooth="yes"/>
      <point x="181.666" y="66.6689"/>
      <point x="180.666" y="56.1689"/>
      <point x="177.999" y="44.502" type="curve" smooth="yes"/>
      <point x="175.332" y="32.835"/>
      <point x="169.665" y="20.668"/>
      <point x="160.998" y="8.00098" type="curve" smooth="yes"/>
      <point x="152.331" y="-4.66602"/>
      <point x="139.831" y="-17.833"/>
      <point x="123.498" y="-31.5" type="curve" smooth="yes"/>
      <point x="107.165" y="-45.167"/>
      <point x="85.665" y="-59"/>
      <point x="58.998" y="-73" type="curve" smooth="yes"/>
      <point x="33.665" y="-87.667"/>
      <point x="15.832" y="-96.834"/>
      <point x="5.49902" y="-100.501" type="curve" smooth="yes"/>
      <point x="-4.83398" y="-104.168"/>
      <point x="-10.167" y="-104.668"/>
      <point x="-10.5" y="-102.001" type="curve" smooth="yes"/>
      <point x="-10.833" y="-99.334"/>
      <point x="-7.5" y="-94.667"/>
      <point x="-0.5" y="-88" type="curve" smooth="yes"/>
      <point x="6.5" y="-81.333"/>
      <point x="14.667" y="-75"/>
    </contour>
  </outline>
</glyph>
<glyph name="hyphen" format="2">
  <advance width="500"/>
  <unicode hex="002D"/>
  <outline>
    <contour>
      <point x="39" y="392" type="curve" smooth="yes"/>
      <point x="39" y="413.333"/>
      <point x="46.667" y="431.666"/>
      <point x="62" y="446.999" type="curve" smooth="yes"/>
      <point x="77.333" y="462.332"/>
      <point x="95.666" y="469.999"/>
      <point x="116.999" y="469.999" type="curve" smooth="yes"/>
      <point x="381.999" y="469.999" type="line" smooth="yes"/>
      <point x="403.332" y="469.999"/>
      <point x="421.665" y="462.332"/>
      <point x="436.998" y="446.999" type="curve" smooth="yes"/>
      <point x="452.331" y="431.666"/>
      <point x="459.998" y="413.333"/>
      <point x="459.998" y="392" type="curve" smooth="yes"/>
      <point x="459.998" y="370.667"/>
      <point x="452.331" y="352.334"/>
      <point x="436.998" y="337.001" type="curve" smooth="yes"/>
      <point x="421.665" y="321.668"/>
      <point x="403.332" y="314.001"/>
      <point x="381.999" y="314.001" type="curve" smooth="yes"/>
      <point x="116.999" y="314.001" type="line" smooth="yes"/>
      <point x="95.666" y="314.001"/>
      <point x="77.333" y="321.668"/>
      <point x="62" y="337.001" type="curve" smooth="yes"/>
      <point x="46.667" y="352.334"/>
      <point x="39" y="370.667"/>
    </contour>
  </outline>
</glyph>
<glyph name="period" format="2">
  <advance width="160"/>
  <unicode hex="002E"/>
  <outline>
    <contour>
      <point x="150" y="73" type="curve" smooth="yes"/>
      <point x="150" y="53"/>
      <point x="143" y="36"/>
      <point x="129" y="22" type="curve" smooth="yes"/>
      <point x="115" y="8"/>
      <point x="98" y="1"/>
      <point x="78" y="1" type="curve" smooth="yes"/>
      <point x="58" y="1"/>
      <point x="41" y="8"/>
      <point x="27" y="22" type="curve" smooth="yes"/>
      <point x="13" y="36"/>
      <point x="6" y="53"/>
      <point x="6" y="73" type="curve" smooth="yes"/>
      <point x="6" y="92.333"/>
      <point x="13" y="109.166"/>
      <point x="27" y="123.499" type="curve" smooth="yes"/>
      <point x="41" y="137.832"/>
      <point x="58" y="144.999"/>
      <point x="78" y="144.999" type="curve" smooth="yes"/>
      <point x="98" y="144.999"/>
      <point x="115" y="137.832"/>
      <point x="129" y="123.499" type="curve" smooth="yes"/>
      <point x="143" y="109.166"/>
      <point x="150" y="92.333"/>
    </contour>
  </outline>
</glyph>
<glyph name="zero" format="2">
  <advance width="550"/>
  <unicode hex="0030"/>
  <outline>
    <contour>
      <point x="511" y="140" type="line" smooth="yes"/>
      <point x="509.667" y="114"/>
      <point x="500.333" y="90.667"/>
      <point x="483" y="70" type="curve" smooth="yes"/>
      <point x="475.667" y="61.333"/>
      <point x="466.334" y="52.833"/>
      <point x="455.001" y="44.5" type="curve" smooth="yes"/>
      <point x="443.668" y="36.167"/>
      <point x="429.668" y="28.834"/>
      <point x="413.001" y="22.501" type="curve" smooth="yes"/>
      <point x="396.334" y="16.168"/>
      <point x="376.667" y="11.001"/>
      <point x="354" y="7.00098" type="curve" smooth="yes"/>
      <point x="331.333" y="3.00098"/>
      <point x="305" y="1.00098"/>
      <point x="275" y="1.00098" type="curve" smooth="yes"/>
      <point x="223" y="1.00098"/>
      <point x="181.5" y="6.50098"/>
      <point x="150.5" y="17.501" type="curve" smooth="yes"/>
      <point x="119.5" y="28.501"/>
      <point x="95.833" y="41.501"/>
      <point x="79.5" y="56.501" type="curve" smooth="yes"/>
      <point x="63.167" y="71.501"/>
      <point x="52.5" y="86.168"/>
      <point x="47.5" y="100.501" type="curve" smooth="yes"/>
      <point x="42.5" y="114.834"/>
      <point x="39.667" y="125.667"/>
      <point x="39" y="133" type="curve" smooth="yes"/>
      <point x="39" y="134.333"/>
      <point x="38.833" y="135.5"/>
      <point x="38.5" y="136.5" type="curve" smooth="yes"/>
      <point x="38.167" y="137.5"/>
      <point x="38" y="138.667"/>
      <point x="38" y="140" type="curve" smooth="yes"/>
      <point x="38" y="151" type="line"/>
      <point x="38" y="482" type="line"/>
      <point x="38" y="483" type="line"/>
      <point x="38" y="493" type="line" smooth="yes"/>
      <point x="38.667" y="518.333"/>
      <point x="47.667" y="541.333"/>
      <point x="65" y="562" type="curve" smooth="yes"/>
      <point x="72.333" y="570.667"/>
      <point x="81.666" y="579.167"/>
      <point x="92.999" y="587.5" type="curve" smooth="yes"/>
      <point x="104.332" y="595.833"/>
      <point x="118.332" y="603.333"/>
      <point x="134.999" y="610" type="curve" smooth="yes"/>
      <point x="151.666" y="616.667"/>
      <point x="171.333" y="622"/>
      <point x="194" y="626" type="curve" smooth="yes"/>
      <point x="216.667" y="630"/>
      <point x="243" y="632"/>
      <point x="273" y="632" type="curve" smooth="yes"/>
      <point x="327.667" y="632"/>
      <point x="370.667" y="626"/>
      <point x="402" y="614" type="curve" smooth="yes"/>
      <point x="433.333" y="602"/>
      <point x="456.833" y="588.167"/>
      <point x="472.5" y="572.5" type="curve" smooth="yes"/>
      <point x="488.167" y="556.833"/>
      <point x="498.167" y="541.5"/>
      <point x="502.5" y="526.5" type="curve" smooth="yes"/>
      <point x="506.833" y="511.5"/>
      <point x="509.333" y="501.333"/>
      <point x="510" y="496" type="curve" smooth="yes"/>
      <point x="510" y="494"/>
      <point x="510.167" y="491.833"/>
      <point x="510.5" y="489.5" type="curve" smooth="yes"/>
      <point x="510.833" y="487.167"/>
      <point x="511" y="485"/>
      <point x="511" y="483" type="curve" smooth="yes"/>
      <point x="511" y="482" type="line"/>
    </contour>
    <contour>
      <point x="273.999" y="57" type="curve" smooth="yes"/>
      <point x="288.666" y="57"/>
      <point x="300.166" y="58.999"/>
      <point x="308.499" y="62.999" type="curve" smooth="yes"/>
      <point x="316.832" y="66.999"/>
      <point x="322.665" y="71.666"/>
      <point x="325.998" y="76.999" type="curve" smooth="yes"/>
      <point x="329.998" y="82.999"/>
      <point x="332.331" y="89.666"/>
      <point x="332.998" y="96.999" type="curve" smooth="yes"/>
      <point x="332.998" y="97.999" type="line"/>
      <point x="332.998" y="530.999" type="line"/>
      <point x="332.998" y="535.999" type="line" smooth="yes"/>
      <point x="332.331" y="543.332"/>
      <point x="329.998" y="549.999"/>
      <point x="325.998" y="555.999" type="curve" smooth="yes"/>
      <point x="322.665" y="561.332"/>
      <point x="316.832" y="565.999"/>
      <point x="308.499" y="569.999" type="curve" smooth="yes"/>
      <point x="300.166" y="573.999"/>
      <point x="288.666" y="575.999"/>
      <point x="273.999" y="575.999" type="curve" smooth="yes"/>
      <point x="258.666" y="575.999"/>
      <point x="246.999" y="573.832"/>
      <point x="238.999" y="569.499" type="curve" smooth="yes"/>
      <point x="230.999" y="565.166"/>
      <point x="225.332" y="560.333"/>
      <point x="221.999" y="555" type="curve" smooth="yes"/>
      <point x="217.999" y="549"/>
      <point x="215.666" y="542.333"/>
      <point x="214.999" y="535" type="curve" smooth="yes"/>
      <point x="214.999" y="529" type="line"/>
      <point x="214.999" y="126" type="line"/>
      <point x="215.999" y="97" type="line" smooth="yes"/>
      <point x="216.666" y="89.667"/>
      <point x="218.999" y="83"/>
      <point x="222.999" y="77" type="curve" smooth="yes"/>
      <point x="226.332" y="71.667"/>
      <point x="231.999" y="67"/>
      <point x="239.999" y="63" type="curve" smooth="yes"/>
      <point x="247.999" y="59"/>
      <point x="259.332" y="57"/>
    </contour>
  </outline>
</glyph>
<glyph name="one" format="2">
  <advance width="487"/>
  <unicode hex="0031"/>
  <outline>
    <contour>
      <point x="440.595" y="630" type="line"/>
      <point x="440.593" y="502" type="line"/>
      <point x="440.593" y="0" type="line"/>
      <point x="397.593" y="0" type="line"/>
      <point x="283.593" y="0" type="line"/>
      <point x="283.593" y="428" type="line"/>
      <point x="283.593" y="519" type="line"/>
      <point x="253.593" y="492" type="line"/>
      <point x="251.593" y="490" type="line"/>
      <point x="250.593" y="489" type="line" smooth="yes"/>
      <point x="239.926" y="479"/>
      <point x="233.093" y="469.833"/>
      <point x="230.093" y="461.5" type="curve" smooth="yes"/>
      <point x="227.093" y="453.167"/>
      <point x="225.926" y="446"/>
      <point x="226.593" y="440" type="curve" smooth="yes"/>
      <point x="227.26" y="432.667"/>
      <point x="229.927" y="426.334"/>
      <point x="234.594" y="421.001" type="curve" smooth="yes"/>
      <point x="239.594" y="415.001" type="line"/>
      <point x="240.594" y="414.001" type="line" smooth="yes"/>
      <point x="256.594" y="396.001"/>
      <point x="263.761" y="374.834"/>
      <point x="262.094" y="350.501" type="curve" smooth="yes"/>
      <point x="260.427" y="326.168"/>
      <point x="250.594" y="306.001"/>
      <point x="232.594" y="290.001" type="curve" smooth="yes"/>
      <point x="216.594" y="275.334"/>
      <point x="198.094" y="267.667"/>
      <point x="177.094" y="267" type="curve" smooth="yes"/>
      <point x="156.094" y="266.333"/>
      <point x="137.261" y="272.333"/>
      <point x="120.594" y="285" type="curve" smooth="yes"/>
      <point x="117.927" y="287"/>
      <point x="115.594" y="289"/>
      <point x="113.594" y="291" type="curve" smooth="yes"/>
      <point x="107.594" y="297" type="line" smooth="yes"/>
      <point x="90.9268" y="315.667"/>
      <point x="83.4268" y="337.167"/>
      <point x="85.0938" y="361.5" type="curve" smooth="yes"/>
      <point x="86.7607" y="385.833"/>
      <point x="96.5938" y="406"/>
      <point x="114.594" y="422" type="curve" smooth="yes"/>
      <point x="134.594" y="439" type="line" smooth="yes"/>
      <point x="179.927" y="480.333"/>
      <point x="215.594" y="512.833"/>
      <point x="241.594" y="536.5" type="curve" smooth="yes"/>
      <point x="267.594" y="560.167"/>
      <point x="287.761" y="578.167"/>
      <point x="302.094" y="590.5" type="curve" smooth="yes"/>
      <point x="316.427" y="602.833"/>
      <point x="326.427" y="610.833"/>
      <point x="332.094" y="614.5" type="curve" smooth="yes"/>
      <point x="337.761" y="618.167"/>
      <point x="342.928" y="621"/>
      <point x="347.595" y="623" type="curve" smooth="yes"/>
      <point x="360.262" y="627.667"/>
      <point x="372.262" y="630"/>
      <point x="383.595" y="630" type="curve" smooth="yes"/>
      <point x="412.595" y="630" type="line"/>
      <point x="417.595" y="630" type="line"/>
    </contour>
  </outline>
</glyph>
<glyph name="two" format="2">
  <advance width="550"/>
  <unicode hex="0032"/>
  <outline>
    <contour>
      <point x="425" y="174" type="curve" smooth="yes"/>
      <point x="446.333" y="174"/>
      <point x="465.165" y="167.337"/>
      <point x="481.498" y="154.004" type="curve" smooth="yes"/>
      <point x="497.831" y="140.671"/>
      <point x="507.998" y="123.671"/>
      <point x="511.998" y="103.004" type="curve" smooth="yes"/>
      <point x="513.331" y="96.3369"/>
      <point x="513.998" y="90.6699"/>
      <point x="513.998" y="86.0029" type="curve" smooth="yes"/>
      <point x="513.998" y="61.3359"/>
      <point x="505.165" y="40.3359"/>
      <point x="487.498" y="23.0029" type="curve" smooth="yes"/>
      <point x="469.831" y="5.66992"/>
      <point x="448.664" y="-2.99707"/>
      <point x="423.997" y="-2.99707" type="curve" smooth="yes"/>
      <point x="61.9971" y="-2.99707" type="line" smooth="yes"/>
      <point x="54.6641" y="-2.99707"/>
      <point x="48.3311" y="0.00292969"/>
      <point x="42.998" y="6.00293" type="curve" smooth="yes"/>
      <point x="37.665" y="12.0029"/>
      <point x="35.332" y="18.6699"/>
      <point x="35.999" y="26.0029" type="curve" smooth="yes"/>
      <point x="37.332" y="36.0029"/>
      <point x="39.832" y="48.5029"/>
      <point x="43.499" y="63.5029" type="curve" smooth="yes"/>
      <point x="47.166" y="78.5029"/>
      <point x="52.999" y="95.0029"/>
      <point x="60.999" y="113.003" type="curve" smooth="yes"/>
      <point x="68.999" y="131.003"/>
      <point x="79.332" y="150.503"/>
      <point x="91.999" y="171.503" type="curve" smooth="yes"/>
      <point x="104.666" y="192.503"/>
      <point x="120.999" y="214.336"/>
      <point x="140.999" y="237.003" type="curve" smooth="yes"/>
      <point x="150.332" y="249.003"/>
      <point x="161.332" y="261.67"/>
      <point x="173.999" y="275.003" type="curve" smooth="yes"/>
      <point x="186.666" y="288.336"/>
      <point x="199.499" y="301.169"/>
      <point x="212.499" y="313.502" type="curve" smooth="yes"/>
      <point x="225.499" y="325.835"/>
      <point x="238.332" y="337.168"/>
      <point x="250.999" y="347.501" type="curve" smooth="yes"/>
      <point x="263.666" y="357.834"/>
      <point x="274.666" y="366.001"/>
      <point x="283.999" y="372.001" type="curve" smooth="yes"/>
      <point x="292.666" y="377.334"/>
      <point x="299.833" y="384.001"/>
      <point x="305.5" y="392.001" type="curve" smooth="yes"/>
      <point x="311.167" y="400.001"/>
      <point x="315.667" y="407.668"/>
      <point x="319" y="415.001" type="curve" smooth="yes"/>
      <point x="327" y="436.001" type="line" smooth="yes"/>
      <point x="328.333" y="440.668"/>
      <point x="329.666" y="446.668"/>
      <point x="330.999" y="454.001" type="curve" smooth="yes"/>
      <point x="332.332" y="460.001"/>
      <point x="333.499" y="467.168"/>
      <point x="334.499" y="475.501" type="curve" smooth="yes"/>
      <point x="335.499" y="483.834"/>
      <point x="335.999" y="493.667"/>
      <point x="335.999" y="505" type="curve" smooth="yes"/>
      <point x="335.999" y="531" type="line" smooth="yes"/>
      <point x="335.332" y="538.333"/>
      <point x="332.999" y="545"/>
      <point x="328.999" y="551" type="curve" smooth="yes"/>
      <point x="325.666" y="556.333"/>
      <point x="319.833" y="561"/>
      <point x="311.5" y="565" type="curve" smooth="yes"/>
      <point x="303.167" y="569"/>
      <point x="291.667" y="571"/>
      <point x="277" y="571" type="curve" smooth="yes"/>
      <point x="261.667" y="571"/>
      <point x="250" y="568.833"/>
      <point x="242" y="564.5" type="curve" smooth="yes"/>
      <point x="234" y="560.167"/>
      <point x="228.333" y="555.334"/>
      <point x="225" y="550.001" type="curve" smooth="yes"/>
      <point x="221" y="544.001"/>
      <point x="218.667" y="537.334"/>
      <point x="218" y="530.001" type="curve" smooth="yes"/>
      <point x="218" y="475.001" type="line" smooth="yes"/>
      <point x="216.667" y="451.668"/>
      <point x="207.667" y="431.668"/>
      <point x="191" y="415.001" type="curve" smooth="yes"/>
      <point x="174.333" y="398.334"/>
      <point x="154" y="389.667"/>
      <point x="130" y="389" type="curve" smooth="yes"/>
      <point x="105.333" y="389"/>
      <point x="84.333" y="397.833"/>
      <point x="67" y="415.5" type="curve" smooth="yes"/>
      <point x="49.667" y="433.167"/>
      <point x="41" y="454.334"/>
      <point x="41" y="479.001" type="curve" smooth="yes"/>
      <point x="41" y="488.001" type="line" smooth="yes"/>
      <point x="41.667" y="513.334"/>
      <point x="50.667" y="536.334"/>
      <point x="68" y="557.001" type="curve" smooth="yes"/>
      <point x="75.333" y="565.668"/>
      <point x="84.666" y="574.168"/>
      <point x="95.999" y="582.501" type="curve" smooth="yes"/>
      <point x="107.332" y="590.834"/>
      <point x="121.332" y="598.334"/>
      <point x="137.999" y="605.001" type="curve" smooth="yes"/>
      <point x="154.666" y="611.668"/>
      <point x="174.333" y="617.001"/>
      <point x="197" y="621.001" type="curve" smooth="yes"/>
      <point x="219.667" y="625.001"/>
      <point x="246" y="627.001"/>
      <point x="276" y="627.001" type="curve" smooth="yes"/>
      <point x="330.667" y="627.001"/>
      <point x="373.667" y="621.001"/>
      <point x="405" y="609.001" type="curve" smooth="yes"/>
      <point x="436.333" y="597.001"/>
      <point x="459.833" y="583.168"/>
      <point x="475.5" y="567.501" type="curve" smooth="yes"/>
      <point x="491.167" y="551.834"/>
      <point x="501.167" y="536.501"/>
      <point x="505.5" y="521.501" type="curve" smooth="yes"/>
      <point x="509.833" y="506.501"/>
      <point x="512.333" y="496.334"/>
      <point x="513" y="491.001" type="curve" smooth="yes"/>
      <point x="513" y="489.001"/>
      <point x="513.167" y="486.834"/>
      <point x="513.5" y="484.501" type="curve" smooth="yes"/>
      <point x="513.833" y="482.168"/>
      <point x="514" y="480.001"/>
      <point x="514" y="478.001" type="curve" smooth="yes"/>
      <point x="514" y="464.668"/>
      <point x="512.667" y="451.835"/>
      <point x="510" y="439.502" type="curve" smooth="yes"/>
      <point x="507.333" y="427.169"/>
      <point x="501" y="413.669"/>
      <point x="491" y="399.002" type="curve" smooth="yes"/>
      <point x="481" y="384.335"/>
      <point x="466.167" y="367.668"/>
      <point x="446.5" y="349.001" type="curve" smooth="yes"/>
      <point x="426.833" y="330.334"/>
      <point x="400.333" y="308.001"/>
      <point x="367" y="282.001" type="curve" smooth="yes"/>
      <point x="339" y="260.001"/>
      <point x="313.667" y="236.001"/>
      <point x="291" y="210.001" type="curve" smooth="yes"/>
      <point x="275.667" y="189.334"/>
      <point x="262" y="168.667"/>
      <point x="250" y="148" type="curve" smooth="yes"/>
      <point x="240" y="130.667"/>
      <point x="231.333" y="112"/>
      <point x="224" y="92" type="curve" smooth="yes"/>
      <point x="216.667" y="72"/>
      <point x="214.667" y="54"/>
      <point x="218" y="38" type="curve"/>
      <point x="280" y="38" type="line" smooth="yes"/>
      <point x="294" y="38"/>
      <point x="304.833" y="40"/>
      <point x="312.5" y="44" type="curve" smooth="yes"/>
      <point x="320.167" y="48"/>
      <point x="325.667" y="52.667"/>
      <point x="329" y="58" type="curve" smooth="yes"/>
      <point x="333" y="64"/>
      <point x="335.667" y="70.667"/>
      <point x="337" y="78" type="curve" smooth="yes"/>
      <point x="337" y="86" type="line"/>
      <point x="337" y="87" type="line" smooth="yes"/>
      <point x="337" y="111"/>
      <point x="345.667" y="131.5"/>
      <point x="363" y="148.5" type="curve" smooth="yes"/>
      <point x="380.333" y="165.5"/>
      <point x="401" y="174"/>
    </contour>
  </outline>
</glyph>
<glyph name="three" format="2">
  <advance width="550"/>
  <unicode hex="0033"/>
  <outline>
    <contour>
      <point x="431" y="317" type="curve"/>
      <point x="451" y="309"/>
      <point x="466.331" y="297.328"/>
      <point x="476.998" y="281.995" type="curve" smooth="yes"/>
      <point x="487.665" y="266.662"/>
      <point x="495.665" y="250.329"/>
      <point x="500.998" y="232.996" type="curve" smooth="yes"/>
      <point x="506.331" y="215.663"/>
      <point x="509.331" y="199.33"/>
      <point x="509.998" y="183.997" type="curve" smooth="yes"/>
      <point x="510.665" y="168.664"/>
      <point x="510.998" y="156.997"/>
      <point x="510.998" y="148.997" type="curve" smooth="yes"/>
      <point x="510.998" y="147.664"/>
      <point x="510.831" y="146.164"/>
      <point x="510.498" y="144.497" type="curve" smooth="yes"/>
      <point x="510.165" y="142.83"/>
      <point x="509.998" y="141.33"/>
      <point x="509.998" y="139.997" type="curve"/>
      <point x="510.998" y="139.997" type="line"/>
      <point x="509.665" y="113.997"/>
      <point x="500.332" y="90.6641"/>
      <point x="482.999" y="69.9971" type="curve" smooth="yes"/>
      <point x="475.666" y="61.3301"/>
      <point x="466.333" y="52.8301"/>
      <point x="455" y="44.4971" type="curve" smooth="yes"/>
      <point x="443.667" y="36.1641"/>
      <point x="429.667" y="28.8311"/>
      <point x="413" y="22.498" type="curve" smooth="yes"/>
      <point x="396.333" y="16.165"/>
      <point x="376.666" y="10.998"/>
      <point x="353.999" y="6.99805" type="curve" smooth="yes"/>
      <point x="331.332" y="2.99805"/>
      <point x="304.999" y="0.998047"/>
      <point x="274.999" y="0.998047" type="curve" smooth="yes"/>
      <point x="222.999" y="0.998047"/>
      <point x="181.499" y="6.49805"/>
      <point x="150.499" y="17.498" type="curve" smooth="yes"/>
      <point x="119.499" y="28.498"/>
      <point x="95.832" y="41.498"/>
      <point x="79.499" y="56.498" type="curve" smooth="yes"/>
      <point x="63.166" y="71.498"/>
      <point x="52.499" y="86.165"/>
      <point x="47.499" y="100.498" type="curve" smooth="yes"/>
      <point x="42.499" y="114.831"/>
      <point x="39.666" y="125.664"/>
      <point x="38.999" y="132.997" type="curve" smooth="yes"/>
      <point x="38.999" y="134.33"/>
      <point x="38.832" y="135.497"/>
      <point x="38.499" y="136.497" type="curve" smooth="yes"/>
      <point x="38.166" y="137.497"/>
      <point x="37.999" y="138.664"/>
      <point x="37.999" y="139.997" type="curve" smooth="yes"/>
      <point x="37.999" y="150.997" type="line" smooth="yes"/>
      <point x="37.999" y="174.997"/>
      <point x="46.499" y="195.497"/>
      <point x="63.499" y="212.497" type="curve" smooth="yes"/>
      <point x="80.499" y="229.497"/>
      <point x="100.999" y="237.997"/>
      <point x="124.999" y="237.997" type="curve" smooth="yes"/>
      <point x="136.999" y="237.997"/>
      <point x="148.499" y="235.83"/>
      <point x="159.499" y="231.497" type="curve" smooth="yes"/>
      <point x="170.499" y="227.164"/>
      <point x="180.166" y="220.997"/>
      <point x="188.499" y="212.997" type="curve" smooth="yes"/>
      <point x="196.832" y="204.997"/>
      <point x="203.332" y="195.497"/>
      <point x="207.999" y="184.497" type="curve" smooth="yes"/>
      <point x="212.666" y="173.497"/>
      <point x="214.999" y="161.997"/>
      <point x="214.999" y="149.997" type="curve" smooth="yes"/>
      <point x="215.999" y="96.9971" type="line" smooth="yes"/>
      <point x="216.666" y="89.6641"/>
      <point x="218.999" y="82.9971"/>
      <point x="222.999" y="76.9971" type="curve" smooth="yes"/>
      <point x="226.332" y="71.6641"/>
      <point x="231.999" y="66.9971"/>
      <point x="239.999" y="62.9971" type="curve" smooth="yes"/>
      <point x="247.999" y="58.9971"/>
      <point x="259.332" y="56.9971"/>
      <point x="273.999" y="56.9971" type="curve" smooth="yes"/>
      <point x="288.666" y="56.9971"/>
      <point x="300.166" y="58.9971"/>
      <point x="308.499" y="62.9971" type="curve" smooth="yes"/>
      <point x="316.832" y="66.9971"/>
      <point x="322.665" y="71.6641"/>
      <point x="325.998" y="76.9971" type="curve" smooth="yes"/>
      <point x="329.998" y="82.9971"/>
      <point x="332.331" y="89.6641"/>
      <point x="332.998" y="96.9971" type="curve" smooth="yes"/>
      <point x="333.998" y="151.997" type="line"/>
      <point x="333.998" y="159.997" type="line" smooth="yes"/>
      <point x="335.998" y="183.33"/>
      <point x="335.665" y="203.997"/>
      <point x="332.998" y="221.997" type="curve" smooth="yes"/>
      <point x="330.998" y="237.33"/>
      <point x="326.998" y="250.997"/>
      <point x="320.998" y="262.997" type="curve" smooth="yes"/>
      <point x="314.998" y="274.997"/>
      <point x="304.998" y="279.997"/>
      <point x="290.998" y="277.997" type="curve" smooth="yes"/>
      <point x="284.998" y="276.664"/>
      <point x="278.165" y="274.497"/>
      <point x="270.498" y="271.497" type="curve" smooth="yes"/>
      <point x="262.831" y="268.497"/>
      <point x="255.331" y="266.83"/>
      <point x="247.998" y="266.497" type="curve" smooth="yes"/>
      <point x="240.665" y="266.164"/>
      <point x="234.332" y="268.664"/>
      <point x="228.999" y="273.997" type="curve" smooth="yes"/>
      <point x="223.666" y="279.33"/>
      <point x="220.666" y="289.997"/>
      <point x="219.999" y="305.997" type="curve" smooth="yes"/>
      <point x="219.332" y="321.997"/>
      <point x="220.999" y="335.33"/>
      <point x="224.999" y="345.997" type="curve" smooth="yes"/>
      <point x="228.999" y="356.664"/>
      <point x="234.499" y="364.497"/>
      <point x="241.499" y="369.497" type="curve" smooth="yes"/>
      <point x="248.499" y="374.497"/>
      <point x="256.499" y="376.497"/>
      <point x="265.499" y="375.497" type="curve" smooth="yes"/>
      <point x="274.499" y="374.497"/>
      <point x="283.666" y="370.33"/>
      <point x="292.999" y="362.997" type="curve" smooth="yes"/>
      <point x="302.332" y="355.664"/>
      <point x="309.499" y="352.831"/>
      <point x="314.499" y="354.498" type="curve" smooth="yes"/>
      <point x="319.499" y="356.165"/>
      <point x="323.166" y="359.998"/>
      <point x="325.499" y="365.998" type="curve" smooth="yes"/>
      <point x="327.832" y="371.998"/>
      <point x="329.332" y="379.165"/>
      <point x="329.999" y="387.498" type="curve" smooth="yes"/>
      <point x="330.666" y="395.831"/>
      <point x="331.666" y="402.998"/>
      <point x="332.999" y="408.998" type="curve" smooth="yes"/>
      <point x="333.999" y="486.998" type="line"/>
      <point x="332.999" y="535.998" type="line" smooth="yes"/>
      <point x="332.332" y="543.331"/>
      <point x="329.999" y="549.998"/>
      <point x="325.999" y="555.998" type="curve" smooth="yes"/>
      <point x="322.666" y="561.331"/>
      <point x="316.833" y="565.998"/>
      <point x="308.5" y="569.998" type="curve" smooth="yes"/>
      <point x="300.167" y="573.998"/>
      <point x="288.667" y="575.998"/>
      <point x="274" y="575.998" type="curve" smooth="yes"/>
      <point x="258.667" y="575.998"/>
      <point x="247" y="573.831"/>
      <point x="239" y="569.498" type="curve" smooth="yes"/>
      <point x="231" y="565.165"/>
      <point x="225.333" y="560.332"/>
      <point x="222" y="554.999" type="curve" smooth="yes"/>
      <point x="218" y="548.999"/>
      <point x="215.667" y="542.332"/>
      <point x="215" y="534.999" type="curve" smooth="yes"/>
      <point x="215" y="479.999" type="line" smooth="yes"/>
      <point x="213.667" y="456.666"/>
      <point x="204.5" y="436.499"/>
      <point x="187.5" y="419.499" type="curve" smooth="yes"/>
      <point x="170.5" y="402.499"/>
      <point x="150" y="393.999"/>
      <point x="126" y="393.999" type="curve" smooth="yes"/>
      <point x="101.333" y="393.999"/>
      <point x="80.5" y="402.666"/>
      <point x="63.5" y="419.999" type="curve" smooth="yes"/>
      <point x="46.5" y="437.332"/>
      <point x="38" y="458.332"/>
      <point x="38" y="482.999" type="curve" smooth="yes"/>
      <point x="38" y="492.999" type="line" smooth="yes"/>
      <point x="38.667" y="518.332"/>
      <point x="47.667" y="541.332"/>
      <point x="65" y="561.999" type="curve" smooth="yes"/>
      <point x="72.333" y="570.666"/>
      <point x="81.666" y="579.166"/>
      <point x="92.999" y="587.499" type="curve" smooth="yes"/>
      <point x="104.332" y="595.832"/>
      <point x="118.332" y="603.332"/>
      <point x="134.999" y="609.999" type="curve" smooth="yes"/>
      <point x="151.666" y="616.666"/>
      <point x="171.333" y="621.999"/>
      <point x="194" y="625.999" type="curve" smooth="yes"/>
      <point x="216.667" y="629.999"/>
      <point x="243" y="631.999"/>
      <point x="273" y="631.999" type="curve" smooth="yes"/>
      <point x="327.667" y="631.999"/>
      <point x="370.667" y="625.999"/>
      <point x="402" y="613.999" type="curve" smooth="yes"/>
      <point x="433.333" y="601.999"/>
      <point x="456.833" y="588.166"/>
      <point x="472.5" y="572.499" type="curve" smooth="yes"/>
      <point x="488.167" y="556.832"/>
      <point x="498.167" y="541.499"/>
      <point x="502.5" y="526.499" type="curve" smooth="yes"/>
      <point x="506.833" y="511.499"/>
      <point x="509.333" y="501.332"/>
      <point x="510" y="495.999" type="curve" smooth="yes"/>
      <point x="510" y="493.999"/>
      <point x="510.167" y="491.832"/>
      <point x="510.5" y="489.499" type="curve" smooth="yes"/>
      <point x="510.833" y="487.166"/>
      <point x="511" y="484.999"/>
      <point x="511" y="482.999" type="curve" smooth="yes"/>
      <point x="511" y="478.999" type="line"/>
      <point x="511" y="473.999" type="line" smooth="yes"/>
      <point x="511" y="438.666"/>
      <point x="506.833" y="410.833"/>
      <point x="498.5" y="390.5" type="curve" smooth="yes"/>
      <point x="490.167" y="370.167"/>
      <point x="481" y="354.334"/>
      <point x="471" y="343.001" type="curve" smooth="yes"/>
      <point x="459" y="330.334"/>
      <point x="445.667" y="321.667"/>
    </contour>
  </outline>
</glyph>
<glyph name="four" format="2">
  <advance width="550"/>
  <unicode hex="0034"/>
  <outline>
    <contour>
      <point x="521" y="-3" type="line"/>
      <point x="343.999" y="-2.99902" type="line"/>
      <point x="343.999" y="202.001" type="line"/>
      <point x="317.332" y="192.001"/>
      <point x="291.499" y="185.001"/>
      <point x="266.499" y="181.001" type="curve" smooth="yes"/>
      <point x="241.499" y="177.001"/>
      <point x="219.332" y="174.334"/>
      <point x="199.999" y="173.001" type="curve" smooth="yes"/>
      <point x="177.332" y="171.668"/>
      <point x="155.665" y="171.668"/>
      <point x="134.998" y="173.001" type="curve" smooth="yes"/>
      <point x="110.998" y="173.001"/>
      <point x="90.498" y="181.334"/>
      <point x="73.498" y="198.001" type="curve" smooth="yes"/>
      <point x="56.498" y="214.668"/>
      <point x="47.665" y="235.001"/>
      <point x="46.998" y="259.001" type="curve" smooth="yes"/>
      <point x="46.998" y="585.001" type="line" smooth="yes"/>
      <point x="46.3311" y="592.334"/>
      <point x="44.1641" y="597.667"/>
      <point x="40.4971" y="601" type="curve" smooth="yes"/>
      <point x="36.8301" y="604.333"/>
      <point x="34.3301" y="606.333"/>
      <point x="32.9971" y="607" type="curve" smooth="yes"/>
      <point x="29.6641" y="609"/>
      <point x="27.9971" y="611.667"/>
      <point x="27.9971" y="615" type="curve" smooth="yes"/>
      <point x="27.9971" y="621.667"/>
      <point x="31.3301" y="625"/>
      <point x="37.9971" y="625" type="curve" smooth="yes"/>
      <point x="46.9971" y="625" type="line"/>
      <point x="134.997" y="625" type="line" smooth="yes"/>
      <point x="159.664" y="625"/>
      <point x="180.664" y="616.333"/>
      <point x="197.997" y="599" type="curve" smooth="yes"/>
      <point x="215.33" y="581.667"/>
      <point x="223.997" y="560.667"/>
      <point x="223.997" y="536" type="curve" smooth="yes"/>
      <point x="223.997" y="284" type="line" smooth="yes"/>
      <point x="224.664" y="266.667"/>
      <point x="229.831" y="254.834"/>
      <point x="239.498" y="248.501" type="curve" smooth="yes"/>
      <point x="249.165" y="242.168"/>
      <point x="260.498" y="238.668"/>
      <point x="273.498" y="238.001" type="curve" smooth="yes"/>
      <point x="286.498" y="237.334"/>
      <point x="299.498" y="238.667"/>
      <point x="312.498" y="242" type="curve" smooth="yes"/>
      <point x="325.498" y="245.333"/>
      <point x="335.998" y="248.333"/>
      <point x="343.998" y="251" type="curve"/>
      <point x="343.998" y="625" type="line"/>
      <point x="432.998" y="625" type="line" smooth="yes"/>
      <point x="455.665" y="625"/>
      <point x="475.332" y="617.5"/>
      <point x="491.999" y="602.5" type="curve" smooth="yes"/>
      <point x="508.666" y="587.5"/>
      <point x="518.333" y="568.667"/>
      <point x="521" y="546" type="curve" smooth="yes"/>
      <point x="521" y="526" type="line"/>
      <point x="521" y="519" type="line"/>
    </contour>
  </outline>
</glyph>
<glyph name="five" format="2">
  <advance width="550"/>
  <unicode hex="0035"/>
  <outline>
    <contour>
      <point x="342" y="545" type="line"/>
      <point x="341.997" y="552.001" type="line" smooth="yes"/>
      <point x="340.664" y="559.334"/>
      <point x="337.997" y="566.001"/>
      <point x="333.997" y="572.001" type="curve" smooth="yes"/>
      <point x="330.664" y="577.334"/>
      <point x="325.164" y="582.001"/>
      <point x="317.497" y="586.001" type="curve" smooth="yes"/>
      <point x="309.83" y="590.001"/>
      <point x="298.997" y="592.334"/>
      <point x="284.997" y="593.001" type="curve" smooth="yes"/>
      <point x="282.997" y="593.001" type="line"/>
      <point x="279.997" y="593.001" type="line"/>
      <point x="207.997" y="593.001" type="line"/>
      <point x="207.997" y="403.001" type="line" smooth="yes"/>
      <point x="209.33" y="394.334"/>
      <point x="212.163" y="388.667"/>
      <point x="216.496" y="386" type="curve" smooth="yes"/>
      <point x="220.829" y="383.333"/>
      <point x="224.662" y="381.666"/>
      <point x="227.995" y="380.999" type="curve" smooth="yes"/>
      <point x="229.995" y="381.666"/>
      <point x="232.662" y="381.999"/>
      <point x="235.995" y="381.999" type="curve" smooth="yes"/>
      <point x="241.328" y="381.999"/>
      <point x="246.328" y="382.166"/>
      <point x="250.995" y="382.499" type="curve" smooth="yes"/>
      <point x="255.662" y="382.832"/>
      <point x="260.662" y="382.999"/>
      <point x="265.995" y="382.999" type="curve" smooth="yes"/>
      <point x="320.662" y="382.999"/>
      <point x="363.662" y="376.999"/>
      <point x="394.995" y="364.999" type="curve" smooth="yes"/>
      <point x="426.328" y="352.999"/>
      <point x="449.828" y="339.166"/>
      <point x="465.495" y="323.499" type="curve" smooth="yes"/>
      <point x="481.162" y="307.832"/>
      <point x="491.162" y="292.499"/>
      <point x="495.495" y="277.499" type="curve" smooth="yes"/>
      <point x="499.828" y="262.499"/>
      <point x="502.328" y="252.332"/>
      <point x="502.995" y="246.999" type="curve" smooth="yes"/>
      <point x="502.995" y="241.999" type="line" smooth="yes"/>
      <point x="502.995" y="239.999"/>
      <point x="503.162" y="235.499"/>
      <point x="503.495" y="228.499" type="curve" smooth="yes"/>
      <point x="503.828" y="221.499"/>
      <point x="503.995" y="210.832"/>
      <point x="503.995" y="196.499" type="curve" smooth="yes"/>
      <point x="503.995" y="137.999" type="line" smooth="yes"/>
      <point x="503.328" y="132.666"/>
      <point x="500.828" y="122.499"/>
      <point x="496.495" y="107.499" type="curve" smooth="yes"/>
      <point x="492.162" y="92.499"/>
      <point x="482.162" y="77.332"/>
      <point x="466.495" y="61.999" type="curve" smooth="yes"/>
      <point x="450.828" y="46.666"/>
      <point x="427.328" y="32.999"/>
      <point x="395.995" y="20.999" type="curve" smooth="yes"/>
      <point x="364.662" y="8.99902"/>
      <point x="321.995" y="2.99902"/>
      <point x="267.995" y="2.99902" type="curve" smooth="yes"/>
      <point x="213.328" y="2.99902"/>
      <point x="170.328" y="8.99902"/>
      <point x="138.995" y="20.999" type="curve" smooth="yes"/>
      <point x="107.662" y="32.999"/>
      <point x="84.1621" y="46.666"/>
      <point x="68.4951" y="61.999" type="curve" smooth="yes"/>
      <point x="52.8281" y="77.332"/>
      <point x="42.8281" y="92.499"/>
      <point x="38.4951" y="107.499" type="curve" smooth="yes"/>
      <point x="34.1621" y="122.499"/>
      <point x="31.9951" y="132.666"/>
      <point x="31.9951" y="137.999" type="curve" smooth="yes"/>
      <point x="31.3281" y="141.332"/>
      <point x="30.9951" y="145.999"/>
      <point x="30.9951" y="151.999" type="curve" smooth="yes"/>
      <point x="30.9951" y="167.999"/>
      <point x="34.3281" y="181.666"/>
      <point x="40.9951" y="192.999" type="curve" smooth="yes"/>
      <point x="48.3281" y="206.999"/>
      <point x="58.8281" y="218.332"/>
      <point x="72.4951" y="226.999" type="curve" smooth="yes"/>
      <point x="86.1621" y="235.666"/>
      <point x="101.662" y="239.999"/>
      <point x="118.995" y="239.999" type="curve" smooth="yes"/>
      <point x="136.328" y="239.999"/>
      <point x="151.995" y="235.666"/>
      <point x="165.995" y="226.999" type="curve" smooth="yes"/>
      <point x="179.995" y="218.332"/>
      <point x="190.662" y="206.999"/>
      <point x="197.995" y="192.999" type="curve" smooth="yes"/>
      <point x="204.662" y="179.666"/>
      <point x="207.995" y="165.999"/>
      <point x="207.995" y="151.999" type="curve" smooth="yes"/>
      <point x="208.995" y="98.999" type="line" smooth="yes"/>
      <point x="209.662" y="91.666"/>
      <point x="211.995" y="84.999"/>
      <point x="215.995" y="78.999" type="curve" smooth="yes"/>
      <point x="219.328" y="73.666"/>
      <point x="224.995" y="68.999"/>
      <point x="232.995" y="64.999" type="curve" smooth="yes"/>
      <point x="240.995" y="60.999"/>
      <point x="252.328" y="58.999"/>
      <point x="266.995" y="58.999" type="curve" smooth="yes"/>
      <point x="281.662" y="58.999"/>
      <point x="293.162" y="60.999"/>
      <point x="301.495" y="64.999" type="curve" smooth="yes"/>
      <point x="309.828" y="68.999"/>
      <point x="315.661" y="73.666"/>
      <point x="318.994" y="78.999" type="curve" smooth="yes"/>
      <point x="322.994" y="84.999"/>
      <point x="325.327" y="91.666"/>
      <point x="325.994" y="98.999" type="curve" smooth="yes"/>
      <point x="325.994" y="285.999" type="line" smooth="yes"/>
      <point x="325.327" y="293.332"/>
      <point x="322.994" y="299.999"/>
      <point x="318.994" y="305.999" type="curve" smooth="yes"/>
      <point x="315.661" y="311.332"/>
      <point x="309.828" y="316.165"/>
      <point x="301.495" y="320.498" type="curve" smooth="yes"/>
      <point x="293.162" y="324.831"/>
      <point x="281.662" y="326.998"/>
      <point x="266.995" y="326.998" type="curve" smooth="yes"/>
      <point x="259.662" y="326.998"/>
      <point x="252.829" y="325.831"/>
      <point x="246.496" y="323.498" type="curve" smooth="yes"/>
      <point x="240.163" y="321.165"/>
      <point x="234.663" y="318.665"/>
      <point x="229.996" y="315.998" type="curve" smooth="yes"/>
      <point x="223.996" y="313.331"/>
      <point x="218.996" y="309.998"/>
      <point x="214.996" y="305.998" type="curve" smooth="yes"/>
      <point x="212.996" y="303.998" type="line"/>
      <point x="207.996" y="298.998" type="line" smooth="yes"/>
      <point x="204.663" y="295.665"/>
      <point x="200.663" y="291.832"/>
      <point x="195.996" y="287.499" type="curve" smooth="yes"/>
      <point x="191.329" y="283.166"/>
      <point x="186.329" y="279.333"/>
      <point x="180.996" y="276" type="curve" smooth="yes"/>
      <point x="179.663" y="274.667"/>
      <point x="178.496" y="273.667"/>
      <point x="177.496" y="273" type="curve" smooth="yes"/>
      <point x="176.496" y="272.333"/>
      <point x="175.329" y="271.333"/>
      <point x="173.996" y="270" type="curve" smooth="yes"/>
      <point x="166.663" y="265.333"/>
      <point x="156.83" y="262"/>
      <point x="144.497" y="260" type="curve" smooth="yes"/>
      <point x="132.164" y="258"/>
      <point x="119.331" y="257.333"/>
      <point x="105.998" y="258" type="curve" smooth="yes"/>
      <point x="92.665" y="258.667"/>
      <point x="79.998" y="261.167"/>
      <point x="67.998" y="265.5" type="curve" smooth="yes"/>
      <point x="55.998" y="269.833"/>
      <point x="46.665" y="276"/>
      <point x="39.998" y="284" type="curve" smooth="yes"/>
      <point x="38.665" y="286"/>
      <point x="37.332" y="288.333"/>
      <point x="35.999" y="291" type="curve" smooth="yes"/>
      <point x="33.332" y="296.333"/>
      <point x="31.999" y="300.333"/>
      <point x="31.999" y="303" type="curve" smooth="yes"/>
      <point x="31.332" y="305"/>
      <point x="30.999" y="308"/>
      <point x="30.999" y="312" type="curve" smooth="yes"/>
      <point x="30.999" y="633" type="line"/>
      <point x="429.999" y="633" type="line" smooth="yes"/>
      <point x="441.999" y="633"/>
      <point x="453.499" y="630.667"/>
      <point x="464.499" y="626" type="curve" smooth="yes"/>
      <point x="475.499" y="621.333"/>
      <point x="484.999" y="615"/>
      <point x="492.999" y="607" type="curve" smooth="yes"/>
      <point x="500.999" y="599"/>
      <point x="507.332" y="589.667"/>
      <point x="511.999" y="579" type="curve" smooth="yes"/>
      <point x="516.666" y="568.333"/>
      <point x="518.999" y="557"/>
      <point x="518.999" y="545" type="curve" smooth="yes"/>
      <point x="518.999" y="541.667"/>
      <point x="518.832" y="538.667"/>
      <point x="518.499" y="536" type="curve" smooth="yes"/>
      <point x="518.166" y="533.333"/>
      <point x="517.666" y="530.333"/>
      <point x="516.999" y="527" type="curve" smooth="yes"/>
      <point x="512.999" y="507"/>
      <point x="502.832" y="490.167"/>
      <point x="486.499" y="476.5" type="curve" smooth="yes"/>
      <point x="470.166" y="462.833"/>
      <point x="451.333" y="456"/>
      <point x="430" y="456" type="curve" smooth="yes"/>
      <point x="405.333" y="456"/>
      <point x="384.5" y="464.5"/>
      <point x="367.5" y="481.5" type="curve" smooth="yes"/>
      <point x="350.5" y="498.5"/>
      <point x="342" y="519.333"/>
      <point x="342" y="544" type="curve" smooth="yes"/>
    </contour>
  </outline>
</glyph>
<glyph name="six" format="2">
  <advance width="550"/>
  <unicode hex="0036"/>
  <outline>
    <contour>
      <point x="38" y="496" type="line" smooth="yes"/>
      <point x="38.667" y="521.333"/>
      <point x="47.665" y="544.331"/>
      <point x="64.998" y="564.998" type="curve" smooth="yes"/>
      <point x="72.3311" y="573.665"/>
      <point x="81.6641" y="582.165"/>
      <point x="92.9971" y="590.498" type="curve" smooth="yes"/>
      <point x="104.33" y="598.831"/>
      <point x="118.33" y="606.331"/>
      <point x="134.997" y="612.998" type="curve" smooth="yes"/>
      <point x="151.664" y="619.665"/>
      <point x="171.331" y="624.998"/>
      <point x="193.998" y="628.998" type="curve" smooth="yes"/>
      <point x="216.665" y="632.998"/>
      <point x="242.998" y="634.998"/>
      <point x="272.998" y="634.998" type="curve" smooth="yes"/>
      <point x="327.665" y="634.998"/>
      <point x="370.665" y="628.998"/>
      <point x="401.998" y="616.998" type="curve" smooth="yes"/>
      <point x="433.331" y="604.998"/>
      <point x="456.831" y="591.165"/>
      <point x="472.498" y="575.498" type="curve" smooth="yes"/>
      <point x="488.165" y="559.831"/>
      <point x="498.165" y="544.498"/>
      <point x="502.498" y="529.498" type="curve" smooth="yes"/>
      <point x="506.831" y="514.498"/>
      <point x="509.331" y="504.331"/>
      <point x="509.998" y="498.998" type="curve" smooth="yes"/>
      <point x="509.998" y="496.998"/>
      <point x="510.165" y="494.831"/>
      <point x="510.498" y="492.498" type="curve" smooth="yes"/>
      <point x="510.831" y="490.165"/>
      <point x="510.998" y="487.998"/>
      <point x="510.998" y="485.998" type="curve" smooth="yes"/>
      <point x="510.998" y="461.331"/>
      <point x="502.331" y="440.331"/>
      <point x="484.998" y="422.998" type="curve" smooth="yes"/>
      <point x="467.665" y="405.665"/>
      <point x="446.665" y="396.998"/>
      <point x="421.998" y="396.998" type="curve" smooth="yes"/>
      <point x="397.331" y="396.998"/>
      <point x="376.498" y="405.665"/>
      <point x="359.498" y="422.998" type="curve" smooth="yes"/>
      <point x="342.498" y="440.331"/>
      <point x="333.998" y="461.331"/>
      <point x="333.998" y="485.998" type="curve" smooth="yes"/>
      <point x="332.998" y="538.998" type="line" smooth="yes"/>
      <point x="332.331" y="546.331"/>
      <point x="329.998" y="552.998"/>
      <point x="325.998" y="558.998" type="curve" smooth="yes"/>
      <point x="322.665" y="564.331"/>
      <point x="316.832" y="568.998"/>
      <point x="308.499" y="572.998" type="curve" smooth="yes"/>
      <point x="300.166" y="576.998"/>
      <point x="288.666" y="578.998"/>
      <point x="273.999" y="578.998" type="curve" smooth="yes"/>
      <point x="258.666" y="578.998"/>
      <point x="246.999" y="576.831"/>
      <point x="238.999" y="572.498" type="curve" smooth="yes"/>
      <point x="230.999" y="568.165"/>
      <point x="225.332" y="563.332"/>
      <point x="221.999" y="557.999" type="curve" smooth="yes"/>
      <point x="217.999" y="551.999"/>
      <point x="215.666" y="545.332"/>
      <point x="214.999" y="537.999" type="curve" smooth="yes"/>
      <point x="214.999" y="393.999" type="line"/>
      <point x="232.999" y="395.999"/>
      <point x="252.332" y="396.999"/>
      <point x="272.999" y="396.999" type="curve" smooth="yes"/>
      <point x="307.666" y="396.999"/>
      <point x="337.666" y="394.332"/>
      <point x="362.999" y="388.999" type="curve" smooth="yes"/>
      <point x="388.332" y="383.666"/>
      <point x="409.665" y="376.999"/>
      <point x="426.998" y="368.999" type="curve" smooth="yes"/>
      <point x="444.331" y="360.999"/>
      <point x="458.331" y="351.832"/>
      <point x="468.998" y="341.499" type="curve" smooth="yes"/>
      <point x="479.665" y="331.166"/>
      <point x="487.832" y="321.166"/>
      <point x="493.499" y="311.499" type="curve" smooth="yes"/>
      <point x="499.166" y="301.832"/>
      <point x="502.999" y="292.832"/>
      <point x="504.999" y="284.499" type="curve" smooth="yes"/>
      <point x="506.999" y="276.166"/>
      <point x="508.332" y="269.666"/>
      <point x="508.999" y="264.999" type="curve" smooth="yes"/>
      <point x="509.666" y="263.666"/>
      <point x="509.999" y="261.666"/>
      <point x="509.999" y="258.999" type="curve" smooth="yes"/>
      <point x="509.999" y="257.666"/>
      <point x="510.166" y="256.166"/>
      <point x="510.499" y="254.499" type="curve" smooth="yes"/>
      <point x="510.832" y="252.832"/>
      <point x="510.999" y="251.332"/>
      <point x="510.999" y="249.999" type="curve" smooth="yes"/>
      <point x="510.999" y="248.999" type="line"/>
      <point x="510.999" y="246.999" type="line"/>
      <point x="510.999" y="152.999" type="line"/>
      <point x="510.999" y="151.999" type="line"/>
      <point x="510.999" y="142.999" type="line" smooth="yes"/>
      <point x="509.666" y="116.999"/>
      <point x="500.333" y="93.666"/>
      <point x="483" y="72.999" type="curve" smooth="yes"/>
      <point x="475.667" y="64.332"/>
      <point x="466.334" y="55.832"/>
      <point x="455.001" y="47.499" type="curve" smooth="yes"/>
      <point x="443.668" y="39.166"/>
      <point x="429.668" y="31.833"/>
      <point x="413.001" y="25.5" type="curve" smooth="yes"/>
      <point x="396.334" y="19.167"/>
      <point x="376.667" y="14"/>
      <point x="354" y="10" type="curve" smooth="yes"/>
      <point x="331.333" y="6"/>
      <point x="305" y="4"/>
      <point x="275" y="4" type="curve" smooth="yes"/>
      <point x="220.333" y="4"/>
      <point x="177.333" y="10"/>
      <point x="146" y="22" type="curve" smooth="yes"/>
      <point x="114.667" y="34"/>
      <point x="91.167" y="47.667"/>
      <point x="75.5" y="63" type="curve" smooth="yes"/>
      <point x="59.833" y="78.333"/>
      <point x="49.833" y="93.5"/>
      <point x="45.5" y="108.5" type="curve" smooth="yes"/>
      <point x="41.167" y="123.5"/>
      <point x="39" y="133.667"/>
      <point x="39" y="139" type="curve" smooth="yes"/>
    </contour>
    <contour>
      <point x="273.998" y="341.998" type="curve" smooth="yes"/>
      <point x="261.331" y="341.998"/>
      <point x="251.329" y="340.332"/>
      <point x="243.996" y="336.999" type="curve" smooth="yes"/>
      <point x="236.663" y="333.666"/>
      <point x="230.83" y="329.999"/>
      <point x="226.497" y="325.999" type="curve" smooth="yes"/>
      <point x="222.164" y="321.999"/>
      <point x="219.331" y="317.832"/>
      <point x="217.998" y="313.499" type="curve" smooth="yes"/>
      <point x="216.665" y="309.166"/>
      <point x="215.665" y="305.999"/>
      <point x="214.998" y="303.999" type="curve" smooth="yes"/>
      <point x="215.998" y="104.999" type="line"/>
      <point x="215.998" y="99.999" type="line" smooth="yes"/>
      <point x="216.665" y="92.666"/>
      <point x="218.998" y="85.999"/>
      <point x="222.998" y="79.999" type="curve" smooth="yes"/>
      <point x="226.331" y="74.666"/>
      <point x="231.998" y="69.999"/>
      <point x="239.998" y="65.999" type="curve" smooth="yes"/>
      <point x="247.998" y="61.999"/>
      <point x="259.331" y="59.999"/>
      <point x="273.998" y="59.999" type="curve" smooth="yes"/>
      <point x="288.665" y="59.999"/>
      <point x="300.165" y="61.999"/>
      <point x="308.498" y="65.999" type="curve" smooth="yes"/>
      <point x="316.831" y="69.999"/>
      <point x="322.664" y="74.666"/>
      <point x="325.997" y="79.999" type="curve" smooth="yes"/>
      <point x="329.997" y="85.999"/>
      <point x="332.33" y="92.666"/>
      <point x="332.997" y="99.999" type="curve" smooth="yes"/>
      <point x="332.997" y="300.999" type="line" smooth="yes"/>
      <point x="332.33" y="308.332"/>
      <point x="329.997" y="314.999"/>
      <point x="325.997" y="320.999" type="curve" smooth="yes"/>
      <point x="322.664" y="326.332"/>
      <point x="316.831" y="331.165"/>
      <point x="308.498" y="335.498" type="curve" smooth="yes"/>
      <point x="300.165" y="339.831"/>
      <point x="288.665" y="341.998"/>
    </contour>
  </outline>
</glyph>
<glyph name="seven" format="2">
  <advance width="550"/>
  <unicode hex="0037"/>
  <outline>
    <contour>
      <point x="513" y="625" type="curve" smooth="yes"/>
      <point x="517" y="622.333"/>
      <point x="518.002" y="619.335"/>
      <point x="516.002" y="616.002" type="curve" smooth="yes"/>
      <point x="515.335" y="614.669"/>
      <point x="513.668" y="613.336"/>
      <point x="511.001" y="612.003" type="curve" smooth="yes"/>
      <point x="511.001" y="611.336"/>
      <point x="510.334" y="610.669"/>
      <point x="509.001" y="610.002" type="curve" smooth="yes"/>
      <point x="507.001" y="608.669"/>
      <point x="503.668" y="606.336"/>
      <point x="499.001" y="603.003" type="curve" smooth="yes"/>
      <point x="497.668" y="603.003"/>
      <point x="497.001" y="602.336"/>
      <point x="497.001" y="601.003" type="curve" smooth="yes"/>
      <point x="357.001" y="38.0029" type="line" smooth="yes"/>
      <point x="353.668" y="25.3359"/>
      <point x="347.001" y="15.1689"/>
      <point x="337.001" y="7.50195" type="curve" smooth="yes"/>
      <point x="327.001" y="-0.165039"/>
      <point x="315.334" y="-3.99805"/>
      <point x="302.001" y="-3.99805" type="curve" smooth="yes"/>
      <point x="152.001" y="-3.99805" type="line"/>
      <point x="156.668" y="-3.99805"/>
      <point x="162.501" y="0.00195312"/>
      <point x="169.501" y="8.00195" type="curve" smooth="yes"/>
      <point x="176.501" y="16.002"/>
      <point x="181.334" y="22.6689"/>
      <point x="184.001" y="28.002" type="curve" smooth="yes"/>
      <point x="191.334" y="44.002"/>
      <point x="199.167" y="64.335"/>
      <point x="207.5" y="89.002" type="curve" smooth="yes"/>
      <point x="215.833" y="113.669"/>
      <point x="224.333" y="140.502"/>
      <point x="233" y="169.502" type="curve" smooth="yes"/>
      <point x="241.667" y="198.502"/>
      <point x="250.167" y="229.002"/>
      <point x="258.5" y="261.002" type="curve" smooth="yes"/>
      <point x="266.833" y="293.002"/>
      <point x="274.666" y="324.335"/>
      <point x="281.999" y="355.002" type="curve" smooth="yes"/>
      <point x="299.332" y="427.002"/>
      <point x="316.999" y="503.669"/>
      <point x="334.999" y="585.002" type="curve"/>
      <point x="269.999" y="585.002" type="line"/>
      <point x="267.999" y="585.002" type="line"/>
      <point x="265.999" y="585.002" type="line" smooth="yes"/>
      <point x="251.999" y="584.335"/>
      <point x="240.999" y="582.002"/>
      <point x="232.999" y="578.002" type="curve" smooth="yes"/>
      <point x="224.999" y="574.002"/>
      <point x="219.332" y="569.335"/>
      <point x="215.999" y="564.002" type="curve" smooth="yes"/>
      <point x="211.999" y="558.002"/>
      <point x="209.666" y="551.335"/>
      <point x="208.999" y="544.002" type="curve" smooth="yes"/>
      <point x="208.999" y="537.002" type="line"/>
      <point x="208.999" y="536.002" type="line" smooth="yes"/>
      <point x="208.999" y="511.335"/>
      <point x="200.332" y="490.502"/>
      <point x="182.999" y="473.502" type="curve" smooth="yes"/>
      <point x="165.666" y="456.502"/>
      <point x="144.999" y="448.002"/>
      <point x="120.999" y="448.002" type="curve" smooth="yes"/>
      <point x="99.666" y="448.002"/>
      <point x="80.833" y="454.835"/>
      <point x="64.5" y="468.502" type="curve" smooth="yes"/>
      <point x="48.167" y="482.169"/>
      <point x="38" y="499.002"/>
      <point x="34" y="519.002" type="curve" smooth="yes"/>
      <point x="33.333" y="522.335"/>
      <point x="32.833" y="525.168"/>
      <point x="32.5" y="527.501" type="curve" smooth="yes"/>
      <point x="32.167" y="529.834"/>
      <point x="32" y="532.667"/>
      <point x="32" y="536" type="curve" smooth="yes"/>
      <point x="32" y="560.667"/>
      <point x="40.833" y="581.667"/>
      <point x="58.5" y="599" type="curve" smooth="yes"/>
      <point x="76.167" y="616.333"/>
      <point x="97.334" y="625"/>
      <point x="122.001" y="625" type="curve" smooth="yes"/>
      <point x="509.001" y="626" type="line" smooth="yes"/>
      <point x="509.668" y="626"/>
      <point x="510.168" y="625.833"/>
      <point x="510.501" y="625.5" type="curve" smooth="yes"/>
      <point x="510.834" y="625.167"/>
      <point x="511.667" y="625"/>
    </contour>
  </outline>
</glyph>
<glyph name="eight" format="2">
  <advance width="550"/>
  <unicode hex="0038"/>
  <outline>
    <contour>
      <point x="511" y="421" type="line" smooth="yes"/>
      <point x="510.333" y="407.667"/>
      <point x="506.996" y="394.332"/>
      <point x="500.996" y="380.999" type="curve" smooth="yes"/>
      <point x="495.663" y="369.666"/>
      <point x="487.496" y="357.499"/>
      <point x="476.496" y="344.499" type="curve" smooth="yes"/>
      <point x="465.496" y="331.499"/>
      <point x="449.329" y="319.999"/>
      <point x="427.996" y="309.999" type="curve"/>
      <point x="444.663" y="301.999"/>
      <point x="458.33" y="292.832"/>
      <point x="468.997" y="282.499" type="curve" smooth="yes"/>
      <point x="479.664" y="272.166"/>
      <point x="487.831" y="262.166"/>
      <point x="493.498" y="252.499" type="curve" smooth="yes"/>
      <point x="499.165" y="242.832"/>
      <point x="503.165" y="233.999"/>
      <point x="505.498" y="225.999" type="curve" smooth="yes"/>
      <point x="507.831" y="217.999"/>
      <point x="508.998" y="211.666"/>
      <point x="508.998" y="206.999" type="curve" smooth="yes"/>
      <point x="509.665" y="205.666"/>
      <point x="509.998" y="203.333"/>
      <point x="509.998" y="200" type="curve" smooth="yes"/>
      <point x="510.665" y="198"/>
      <point x="510.998" y="194.333"/>
      <point x="510.998" y="189" type="curve" smooth="yes"/>
      <point x="510.998" y="185" type="line"/>
      <point x="510.998" y="150" type="line"/>
      <point x="510.998" y="148" type="line"/>
      <point x="510.998" y="146" type="line"/>
      <point x="510.998" y="138" type="line" smooth="yes"/>
      <point x="509.665" y="112"/>
      <point x="500.332" y="88.667"/>
      <point x="482.999" y="68" type="curve" smooth="yes"/>
      <point x="475.666" y="59.333"/>
      <point x="466.333" y="50.833"/>
      <point x="455" y="42.5" type="curve" smooth="yes"/>
      <point x="443.667" y="34.167"/>
      <point x="429.667" y="26.834"/>
      <point x="413" y="20.501" type="curve" smooth="yes"/>
      <point x="396.333" y="14.168"/>
      <point x="376.666" y="9.00098"/>
      <point x="353.999" y="5.00098" type="curve" smooth="yes"/>
      <point x="331.332" y="1.00098"/>
      <point x="304.999" y="-0.999023"/>
      <point x="274.999" y="-0.999023" type="curve" smooth="yes"/>
      <point x="222.999" y="-0.999023"/>
      <point x="181.499" y="4.50098"/>
      <point x="150.499" y="15.501" type="curve" smooth="yes"/>
      <point x="119.499" y="26.501"/>
      <point x="95.832" y="39.501"/>
      <point x="79.499" y="54.501" type="curve" smooth="yes"/>
      <point x="63.166" y="69.501"/>
      <point x="52.499" y="84.168"/>
      <point x="47.499" y="98.501" type="curve" smooth="yes"/>
      <point x="42.499" y="112.834"/>
      <point x="39.666" y="123.667"/>
      <point x="38.999" y="131" type="curve" smooth="yes"/>
      <point x="38.999" y="132.333"/>
      <point x="38.832" y="133.5"/>
      <point x="38.499" y="134.5" type="curve" smooth="yes"/>
      <point x="38.166" y="135.5"/>
      <point x="37.999" y="136.667"/>
      <point x="37.999" y="138" type="curve" smooth="yes"/>
      <point x="37.999" y="147" type="line"/>
      <point x="37.999" y="185" type="line"/>
      <point x="37.999" y="190" type="line"/>
      <point x="37.999" y="200" type="line" smooth="yes"/>
      <point x="37.999" y="213.333"/>
      <point x="40.999" y="226.666"/>
      <point x="46.999" y="239.999" type="curve" smooth="yes"/>
      <point x="52.332" y="251.332"/>
      <point x="60.499" y="263.332"/>
      <point x="71.499" y="275.999" type="curve" smooth="yes"/>
      <point x="82.499" y="288.666"/>
      <point x="98.666" y="300.333"/>
      <point x="119.999" y="311" type="curve"/>
      <point x="102.666" y="319"/>
      <point x="88.833" y="328.167"/>
      <point x="78.5" y="338.5" type="curve" smooth="yes"/>
      <point x="68.167" y="348.833"/>
      <point x="60.167" y="358.833"/>
      <point x="54.5" y="368.5" type="curve" smooth="yes"/>
      <point x="48.833" y="378.167"/>
      <point x="45" y="387"/>
      <point x="43" y="395" type="curve" smooth="yes"/>
      <point x="41" y="403"/>
      <point x="39.667" y="409.333"/>
      <point x="39" y="414" type="curve" smooth="yes"/>
      <point x="39" y="415.333"/>
      <point x="38.833" y="416.5"/>
      <point x="38.5" y="417.5" type="curve" smooth="yes"/>
      <point x="38.167" y="418.5"/>
      <point x="38" y="419.667"/>
      <point x="38" y="421" type="curve" smooth="yes"/>
      <point x="38" y="431" type="line"/>
      <point x="38" y="482" type="line"/>
      <point x="38" y="491" type="line" smooth="yes"/>
      <point x="38.667" y="516.333"/>
      <point x="47.667" y="539.333"/>
      <point x="65" y="560" type="curve" smooth="yes"/>
      <point x="72.333" y="568.667"/>
      <point x="81.666" y="577.167"/>
      <point x="92.999" y="585.5" type="curve" smooth="yes"/>
      <point x="104.332" y="593.833"/>
      <point x="118.332" y="601.333"/>
      <point x="134.999" y="608" type="curve" smooth="yes"/>
      <point x="151.666" y="614.667"/>
      <point x="171.333" y="620"/>
      <point x="194" y="624" type="curve" smooth="yes"/>
      <point x="216.667" y="628"/>
      <point x="243" y="630"/>
      <point x="273" y="630" type="curve" smooth="yes"/>
      <point x="327.667" y="630"/>
      <point x="370.667" y="624"/>
      <point x="402" y="612" type="curve" smooth="yes"/>
      <point x="433.333" y="600"/>
      <point x="456.833" y="586.167"/>
      <point x="472.5" y="570.5" type="curve" smooth="yes"/>
      <point x="488.167" y="554.833"/>
      <point x="498.167" y="539.5"/>
      <point x="502.5" y="524.5" type="curve" smooth="yes"/>
      <point x="506.833" y="509.5"/>
      <point x="509.333" y="499.333"/>
      <point x="510" y="494" type="curve" smooth="yes"/>
      <point x="510" y="492"/>
      <point x="510.167" y="489.833"/>
      <point x="510.5" y="487.5" type="curve" smooth="yes"/>
      <point x="510.833" y="485.167"/>
      <point x="511" y="483"/>
      <point x="511" y="481" type="curve" smooth="yes"/>
      <point x="511" y="478" type="line"/>
      <point x="511" y="433" type="line"/>
      <point x="511" y="431" type="line"/>
    </contour>
    <contour>
      <point x="332.996" y="242.998" type="line" smooth="yes"/>
      <point x="332.329" y="249.665"/>
      <point x="330.33" y="255.665"/>
      <point x="326.997" y="260.998" type="curve" smooth="yes"/>
      <point x="323.664" y="265.665"/>
      <point x="319.164" y="269.998"/>
      <point x="313.497" y="273.998" type="curve" smooth="yes"/>
      <point x="307.83" y="277.998"/>
      <point x="299.33" y="280.665"/>
      <point x="287.997" y="281.998" type="curve" smooth="yes"/>
      <point x="274.997" y="281.998" type="line"/>
      <point x="259.997" y="281.998" type="line" smooth="yes"/>
      <point x="248.664" y="280.665"/>
      <point x="240.164" y="277.998"/>
      <point x="234.497" y="273.998" type="curve" smooth="yes"/>
      <point x="228.83" y="269.998"/>
      <point x="224.33" y="265.665"/>
      <point x="220.997" y="260.998" type="curve" smooth="yes"/>
      <point x="217.664" y="255.665"/>
      <point x="215.664" y="249.665"/>
      <point x="214.997" y="242.998" type="curve" smooth="yes"/>
      <point x="215.997" y="94.998" type="line" smooth="yes"/>
      <point x="216.664" y="87.665"/>
      <point x="218.997" y="80.998"/>
      <point x="222.997" y="74.998" type="curve" smooth="yes"/>
      <point x="226.33" y="69.665"/>
      <point x="231.997" y="64.998"/>
      <point x="239.997" y="60.998" type="curve" smooth="yes"/>
      <point x="247.997" y="56.998"/>
      <point x="259.33" y="54.998"/>
      <point x="273.997" y="54.998" type="curve" smooth="yes"/>
      <point x="288.664" y="54.998"/>
      <point x="300.164" y="56.998"/>
      <point x="308.497" y="60.998" type="curve" smooth="yes"/>
      <point x="316.83" y="64.998"/>
      <point x="322.663" y="69.665"/>
      <point x="325.996" y="74.998" type="curve" smooth="yes"/>
      <point x="329.996" y="80.998"/>
      <point x="332.329" y="87.665"/>
      <point x="332.996" y="94.998" type="curve" smooth="yes"/>
    </contour>
    <contour>
      <point x="287.997" y="338.998" type="line" smooth="yes"/>
      <point x="297.997" y="340.331"/>
      <point x="305.829" y="342.663"/>
      <point x="311.496" y="345.996" type="curve" smooth="yes"/>
      <point x="317.163" y="349.329"/>
      <point x="321.496" y="352.996"/>
      <point x="324.496" y="356.996" type="curve" smooth="yes"/>
      <point x="327.496" y="360.996"/>
      <point x="329.663" y="364.829"/>
      <point x="330.996" y="368.496" type="curve" smooth="yes"/>
      <point x="332.329" y="372.163"/>
      <point x="332.996" y="374.996"/>
      <point x="332.996" y="376.996" type="curve" smooth="yes"/>
      <point x="332.996" y="533.996" type="line" smooth="yes"/>
      <point x="332.329" y="541.329"/>
      <point x="329.996" y="547.996"/>
      <point x="325.996" y="553.996" type="curve" smooth="yes"/>
      <point x="322.663" y="559.329"/>
      <point x="316.83" y="563.996"/>
      <point x="308.497" y="567.996" type="curve" smooth="yes"/>
      <point x="300.164" y="571.996"/>
      <point x="288.664" y="573.996"/>
      <point x="273.997" y="573.996" type="curve" smooth="yes"/>
      <point x="258.664" y="573.996"/>
      <point x="246.997" y="571.829"/>
      <point x="238.997" y="567.496" type="curve" smooth="yes"/>
      <point x="230.997" y="563.163"/>
      <point x="225.33" y="558.33"/>
      <point x="221.997" y="552.997" type="curve" smooth="yes"/>
      <point x="217.997" y="546.997"/>
      <point x="215.664" y="540.33"/>
      <point x="214.997" y="532.997" type="curve" smooth="yes"/>
      <point x="215.997" y="377.997" type="line" smooth="yes"/>
      <point x="215.997" y="371.997"/>
      <point x="217.664" y="366.33"/>
      <point x="220.997" y="360.997" type="curve" smooth="yes"/>
      <point x="223.664" y="356.33"/>
      <point x="227.997" y="351.83"/>
      <point x="233.997" y="347.497" type="curve" smooth="yes"/>
      <point x="239.997" y="343.164"/>
      <point x="248.664" y="340.331"/>
      <point x="259.997" y="338.998" type="curve" smooth="yes"/>
      <point x="272.997" y="338.998" type="line"/>
    </contour>
  </outline>
</glyph>
<glyph name="nine" format="2">
  <advance width="550"/>
  <unicode hex="0039"/>
  <outline>
    <contour>
      <point x="511" y="136" type="line" smooth="yes"/>
      <point x="509.667" y="110"/>
      <point x="500.334" y="86.667"/>
      <point x="483.001" y="66" type="curve" smooth="yes"/>
      <point x="475.668" y="57.333"/>
      <point x="466.335" y="48.833"/>
      <point x="455.002" y="40.5" type="curve" smooth="yes"/>
      <point x="443.669" y="32.167"/>
      <point x="429.669" y="24.834"/>
      <point x="413.002" y="18.501" type="curve" smooth="yes"/>
      <point x="396.335" y="12.168"/>
      <point x="376.668" y="7.00098"/>
      <point x="354.001" y="3.00098" type="curve" smooth="yes"/>
      <point x="331.334" y="-0.999023"/>
      <point x="305.001" y="-2.99902"/>
      <point x="275.001" y="-2.99902" type="curve" smooth="yes"/>
      <point x="220.334" y="-2.99902"/>
      <point x="177.334" y="3.00098"/>
      <point x="146.001" y="15.001" type="curve" smooth="yes"/>
      <point x="114.668" y="27.001"/>
      <point x="91.168" y="40.668"/>
      <point x="75.501" y="56.001" type="curve" smooth="yes"/>
      <point x="59.834" y="71.334"/>
      <point x="49.834" y="86.501"/>
      <point x="45.501" y="101.501" type="curve" smooth="yes"/>
      <point x="41.168" y="116.501"/>
      <point x="39.001" y="126.668"/>
      <point x="39.001" y="132.001" type="curve" smooth="yes"/>
      <point x="38.334" y="135.334"/>
      <point x="38.001" y="140.001"/>
      <point x="38.001" y="146.001" type="curve" smooth="yes"/>
      <point x="38.001" y="170.668"/>
      <point x="46.501" y="191.501"/>
      <point x="63.501" y="208.501" type="curve" smooth="yes"/>
      <point x="80.501" y="225.501"/>
      <point x="101.334" y="234.001"/>
      <point x="126.001" y="234.001" type="curve" smooth="yes"/>
      <point x="150.668" y="234.001"/>
      <point x="171.668" y="225.501"/>
      <point x="189.001" y="208.501" type="curve" smooth="yes"/>
      <point x="206.334" y="191.501"/>
      <point x="215.001" y="170.668"/>
      <point x="215.001" y="146.001" type="curve" smooth="yes"/>
      <point x="216.001" y="93.001" type="line" smooth="yes"/>
      <point x="216.668" y="85.668"/>
      <point x="219.001" y="79.001"/>
      <point x="223.001" y="73.001" type="curve" smooth="yes"/>
      <point x="226.334" y="67.668"/>
      <point x="232.001" y="63.001"/>
      <point x="240.001" y="59.001" type="curve" smooth="yes"/>
      <point x="248.001" y="55.001"/>
      <point x="259.334" y="53.001"/>
      <point x="274.001" y="53.001" type="curve" smooth="yes"/>
      <point x="288.668" y="53.001"/>
      <point x="300.168" y="55.001"/>
      <point x="308.501" y="59.001" type="curve" smooth="yes"/>
      <point x="316.834" y="63.001"/>
      <point x="322.667" y="67.668"/>
      <point x="326" y="73.001" type="curve" smooth="yes"/>
      <point x="330" y="79.001"/>
      <point x="332.333" y="85.668"/>
      <point x="333" y="93.001" type="curve" smooth="yes"/>
      <point x="333" y="94.001" type="line"/>
      <point x="333" y="237.001" type="line"/>
      <point x="315" y="235.001"/>
      <point x="295.667" y="234.001"/>
      <point x="275" y="234.001" type="curve" smooth="yes"/>
      <point x="240.333" y="234.001"/>
      <point x="210.5" y="236.668"/>
      <point x="185.5" y="242.001" type="curve" smooth="yes"/>
      <point x="160.5" y="247.334"/>
      <point x="139.333" y="254.167"/>
      <point x="122" y="262.5" type="curve" smooth="yes"/>
      <point x="104.667" y="270.833"/>
      <point x="90.667" y="280"/>
      <point x="80" y="290" type="curve" smooth="yes"/>
      <point x="69.333" y="300"/>
      <point x="61" y="310"/>
      <point x="55" y="320" type="curve" smooth="yes"/>
      <point x="49" y="330"/>
      <point x="45" y="339.167"/>
      <point x="43" y="347.5" type="curve" smooth="yes"/>
      <point x="41" y="355.833"/>
      <point x="39.667" y="362.333"/>
      <point x="39" y="367" type="curve" smooth="yes"/>
      <point x="39" y="368.333"/>
      <point x="38.833" y="369.333"/>
      <point x="38.5" y="370" type="curve" smooth="yes"/>
      <point x="38.167" y="370.667"/>
      <point x="38" y="371.667"/>
      <point x="38" y="373" type="curve" smooth="yes"/>
      <point x="38" y="382" type="line"/>
      <point x="38" y="489" type="line" smooth="yes"/>
      <point x="38.667" y="514.333"/>
      <point x="47.667" y="537.333"/>
      <point x="65" y="558" type="curve" smooth="yes"/>
      <point x="72.333" y="566.667"/>
      <point x="81.666" y="575.167"/>
      <point x="92.999" y="583.5" type="curve" smooth="yes"/>
      <point x="104.332" y="591.833"/>
      <point x="118.332" y="599.333"/>
      <point x="134.999" y="606" type="curve" smooth="yes"/>
      <point x="151.666" y="612.667"/>
      <point x="171.333" y="618"/>
      <point x="194" y="622" type="curve" smooth="yes"/>
      <point x="216.667" y="626"/>
      <point x="243" y="628"/>
      <point x="273" y="628" type="curve" smooth="yes"/>
      <point x="327.667" y="628"/>
      <point x="370.667" y="622"/>
      <point x="402" y="610" type="curve" smooth="yes"/>
      <point x="433.333" y="598"/>
      <point x="456.833" y="584.167"/>
      <point x="472.5" y="568.5" type="curve" smooth="yes"/>
      <point x="488.167" y="552.833"/>
      <point x="498.167" y="537.5"/>
      <point x="502.5" y="522.5" type="curve" smooth="yes"/>
      <point x="506.833" y="507.5"/>
      <point x="509.333" y="497.333"/>
      <point x="510" y="492" type="curve" smooth="yes"/>
    </contour>
    <contour>
      <point x="274" y="290" type="curve" smooth="yes"/>
      <point x="286.667" y="290"/>
      <point x="296.832" y="291.5"/>
      <point x="304.499" y="294.5" type="curve" smooth="yes"/>
      <point x="312.166" y="297.5"/>
      <point x="317.999" y="301.167"/>
      <point x="321.999" y="305.5" type="curve" smooth="yes"/>
      <point x="325.999" y="309.833"/>
      <point x="328.832" y="314.166"/>
      <point x="330.499" y="318.499" type="curve" smooth="yes"/>
      <point x="332.166" y="322.832"/>
      <point x="332.999" y="325.999"/>
      <point x="332.999" y="327.999" type="curve" smooth="yes"/>
      <point x="332.999" y="526.999" type="line"/>
      <point x="332.999" y="531.999" type="line" smooth="yes"/>
      <point x="332.332" y="539.332"/>
      <point x="329.999" y="545.999"/>
      <point x="325.999" y="551.999" type="curve" smooth="yes"/>
      <point x="322.666" y="557.332"/>
      <point x="316.833" y="561.999"/>
      <point x="308.5" y="565.999" type="curve" smooth="yes"/>
      <point x="300.167" y="569.999"/>
      <point x="288.667" y="571.999"/>
      <point x="274" y="571.999" type="curve" smooth="yes"/>
      <point x="258.667" y="571.999"/>
      <point x="247" y="569.832"/>
      <point x="239" y="565.499" type="curve" smooth="yes"/>
      <point x="231" y="561.166"/>
      <point x="225.333" y="556.333"/>
      <point x="222" y="551" type="curve" smooth="yes"/>
      <point x="218" y="545"/>
      <point x="215.667" y="538.333"/>
      <point x="215" y="531" type="curve" smooth="yes"/>
      <point x="216" y="331" type="line" smooth="yes"/>
      <point x="216.667" y="323"/>
      <point x="219" y="316"/>
      <point x="223" y="310" type="curve" smooth="yes"/>
      <point x="226.333" y="304.667"/>
      <point x="232" y="300"/>
      <point x="240" y="296" type="curve" smooth="yes"/>
      <point x="248" y="292"/>
      <point x="259.333" y="290"/>
    </contour>
  </outline>
</glyph>
<glyph name="less" format="2">
  <advance width="767"/>
  <unicode hex="003C"/>
  <outline>
    <contour>
      <point x="580.621" y="161" type="line"/>
      <point x="580.621" y="161.01" type="line"/>
      <point x="612.861" y="145.28"/>
      <point x="626.371" y="106.03"/>
      <point x="610.642" y="73.79" type="curve"/>
      <point x="610.642" y="73.79" type="line"/>
      <point x="594.911" y="41.5498"/>
      <point x="555.661" y="28.04"/>
      <point x="523.421" y="43.7695" type="curve" smooth="yes"/>
      <point x="131.972" y="234.72" type="line" smooth="yes"/>
      <point x="109.151" y="245.85"/>
      <point x="95.7412" y="268.75"/>
      <point x="95.4014" y="292.62" type="curve" smooth="yes"/>
      <point x="94.1211" y="318.19"/>
      <point x="108.021" y="343.34"/>
      <point x="132.481" y="354.98" type="curve" smooth="yes"/>
      <point x="153.981" y="365.208" type="line" smooth="yes"/>
      <point x="525.791" y="542.08" type="line" smooth="yes"/>
      <point x="558.191" y="557.49"/>
      <point x="597.301" y="543.59"/>
      <point x="612.711" y="511.2" type="curve"/>
      <point x="612.711" y="511.2" type="line"/>
      <point x="628.121" y="478.8"/>
      <point x="614.222" y="439.69"/>
      <point x="581.831" y="424.28" type="curve" smooth="yes"/>
      <point x="307.981" y="294" type="line"/>
    </contour>
  </outline>
</glyph>
<glyph name="equal" format="2">
  <advance width="833"/>
  <unicode hex="003D"/>
  <outline>
    <contour>
      <point x="201" y="204" type="curve" smooth="yes"/>
      <point x="201" y="225.333"/>
      <point x="208.667" y="243.666"/>
      <point x="224" y="258.999" type="curve" smooth="yes"/>
      <point x="239.333" y="274.332"/>
      <point x="257.666" y="281.999"/>
      <point x="278.999" y="281.999" type="curve" smooth="yes"/>
      <point x="543.999" y="281.999" type="line" smooth="yes"/>
      <point x="565.332" y="281.999"/>
      <point x="583.665" y="274.332"/>
      <point x="598.998" y="258.999" type="curve" smooth="yes"/>
      <point x="614.331" y="243.666"/>
      <point x="621.998" y="225.333"/>
      <point x="621.998" y="204" type="curve" smooth="yes"/>
      <point x="621.998" y="182.667"/>
      <point x="614.331" y="164.334"/>
      <point x="598.998" y="149.001" type="curve" smooth="yes"/>
      <point x="583.665" y="133.668"/>
      <point x="565.332" y="126.001"/>
      <point x="543.999" y="126.001" type="curve" smooth="yes"/>
      <point x="278.999" y="126.001" type="line" smooth="yes"/>
      <point x="257.666" y="126.001"/>
      <point x="239.333" y="133.668"/>
      <point x="224" y="149.001" type="curve" smooth="yes"/>
      <point x="208.667" y="164.334"/>
      <point x="201" y="182.667"/>
    </contour>
    <contour>
      <point x="201" y="502" type="curve" smooth="yes"/>
      <point x="201" y="523.333"/>
      <point x="208.667" y="541.666"/>
      <point x="224" y="556.999" type="curve" smooth="yes"/>
      <point x="239.333" y="572.332"/>
      <point x="257.666" y="579.999"/>
      <point x="278.999" y="579.999" type="curve" smooth="yes"/>
      <point x="543.999" y="579.999" type="line" smooth="yes"/>
      <point x="565.332" y="579.999"/>
      <point x="583.665" y="572.332"/>
      <point x="598.998" y="556.999" type="curve" smooth="yes"/>
      <point x="614.331" y="541.666"/>
      <point x="621.998" y="523.333"/>
      <point x="621.998" y="502" type="curve" smooth="yes"/>
      <point x="621.998" y="480.667"/>
      <point x="614.331" y="462.334"/>
      <point x="598.998" y="447.001" type="curve" smooth="yes"/>
      <point x="583.665" y="431.668"/>
      <point x="565.332" y="424.001"/>
      <point x="543.999" y="424.001" type="curve" smooth="yes"/>
      <point x="278.999" y="424.001" type="line" smooth="yes"/>
      <point x="257.666" y="424.001"/>
      <point x="239.333" y="431.668"/>
      <point x="224" y="447.001" type="curve" smooth="yes"/>
      <point x="208.667" y="462.334"/>
      <point x="201" y="480.667"/>
    </contour>
  </outline>
</glyph>
<glyph name="greater" format="2">
  <advance width="767"/>
  <unicode hex="003E"/>
  <outline>
    <contour>
      <point x="133.699" y="167" type="line"/>
      <point x="133.699" y="167.01" type="line"/>
      <point x="101.459" y="151.28"/>
      <point x="87.9492" y="112.03"/>
      <point x="103.679" y="79.79" type="curve"/>
      <point x="103.679" y="79.79" type="line"/>
      <point x="119.409" y="47.5498"/>
      <point x="158.659" y="34.04"/>
      <point x="190.899" y="49.7695" type="curve" smooth="yes"/>
      <point x="582.349" y="240.72" type="line" smooth="yes"/>
      <point x="605.169" y="251.85"/>
      <point x="618.579" y="274.75"/>
      <point x="618.919" y="298.62" type="curve" smooth="yes"/>
      <point x="620.199" y="324.19"/>
      <point x="606.299" y="349.34"/>
      <point x="581.839" y="360.98" type="curve" smooth="yes"/>
      <point x="560.339" y="371.208" type="line" smooth="yes"/>
      <point x="188.529" y="548.08" type="line" smooth="yes"/>
      <point x="156.129" y="563.49"/>
      <point x="117.02" y="549.59"/>
      <point x="101.609" y="517.2" type="curve"/>
      <point x="101.609" y="517.2" type="line"/>
      <point x="86.1992" y="484.8"/>
      <point x="100.099" y="445.69"/>
      <point x="132.489" y="430.28" type="curve" smooth="yes"/>
      <point x="406.339" y="300" type="line"/>
    </contour>
  </outline>
</glyph>
<glyph name="question" format="2">
  <advance width="550"/>
  <unicode hex="003F"/>
  <outline>
    <contour>
      <point x="532" y="622" type="line" smooth="yes"/>
      <point x="533.333" y="618"/>
      <point x="534.005" y="614.669"/>
      <point x="534.005" y="612.002" type="curve" smooth="yes"/>
      <point x="534.005" y="606.002" type="line"/>
      <point x="534.005" y="362.002" type="line"/>
      <point x="534.005" y="351.002" type="line"/>
      <point x="533.005" y="352.002" type="line"/>
      <point x="531.005" y="343.335"/>
      <point x="527.672" y="336.668"/>
      <point x="523.005" y="332.001" type="curve" smooth="yes"/>
      <point x="515.672" y="322.668"/>
      <point x="505.505" y="315.668"/>
      <point x="492.505" y="311.001" type="curve" smooth="yes"/>
      <point x="479.505" y="306.334"/>
      <point x="466.005" y="303.667"/>
      <point x="452.005" y="303" type="curve" smooth="yes"/>
      <point x="438.005" y="302.333"/>
      <point x="424.338" y="303.166"/>
      <point x="411.005" y="305.499" type="curve" smooth="yes"/>
      <point x="397.672" y="307.832"/>
      <point x="387.005" y="311.665"/>
      <point x="379.005" y="316.998" type="curve" smooth="yes"/>
      <point x="375.672" y="317.665"/>
      <point x="373.005" y="319.332"/>
      <point x="371.005" y="321.999" type="curve" smooth="yes"/>
      <point x="365.672" y="325.999"/>
      <point x="360.172" y="330.499"/>
      <point x="354.505" y="335.499" type="curve" smooth="yes"/>
      <point x="348.838" y="340.499"/>
      <point x="344.338" y="344.666"/>
      <point x="341.005" y="347.999" type="curve" smooth="yes"/>
      <point x="339.005" y="349.332"/>
      <point x="337.005" y="350.999"/>
      <point x="335.005" y="352.999" type="curve" smooth="yes"/>
      <point x="333.005" y="354.999" type="line" smooth="yes"/>
      <point x="327.672" y="358.999"/>
      <point x="322.005" y="362.666"/>
      <point x="316.005" y="365.999" type="curve" smooth="yes"/>
      <point x="310.672" y="369.332"/>
      <point x="304.672" y="372.165"/>
      <point x="298.005" y="374.498" type="curve" smooth="yes"/>
      <point x="291.338" y="376.831"/>
      <point x="284.338" y="377.998"/>
      <point x="277.005" y="377.998" type="curve" smooth="yes"/>
      <point x="261.005" y="377.998"/>
      <point x="248.838" y="375.665"/>
      <point x="240.505" y="370.998" type="curve" smooth="yes"/>
      <point x="232.172" y="366.331"/>
      <point x="226.005" y="361.331"/>
      <point x="222.005" y="355.998" type="curve" smooth="yes"/>
      <point x="217.338" y="349.331"/>
      <point x="214.671" y="341.998"/>
      <point x="214.004" y="333.998" type="curve" smooth="yes"/>
      <point x="213.004" y="289.998" type="line"/>
      <point x="213.004" y="276.998" type="line" smooth="yes"/>
      <point x="213.004" y="261.665"/>
      <point x="209.337" y="246.665"/>
      <point x="202.004" y="231.998" type="curve" smooth="yes"/>
      <point x="194.004" y="216.665"/>
      <point x="182.504" y="204.332"/>
      <point x="167.504" y="194.999" type="curve" smooth="yes"/>
      <point x="152.504" y="185.666"/>
      <point x="135.671" y="180.999"/>
      <point x="117.004" y="180.999" type="curve" smooth="yes"/>
      <point x="98.3369" y="180.999"/>
      <point x="81.5039" y="185.666"/>
      <point x="66.5039" y="194.999" type="curve" smooth="yes"/>
      <point x="51.5039" y="204.332"/>
      <point x="40.0039" y="216.665"/>
      <point x="32.0039" y="231.998" type="curve" smooth="yes"/>
      <point x="24.6709" y="246.665"/>
      <point x="21.0039" y="261.665"/>
      <point x="21.0039" y="276.998" type="curve" smooth="yes"/>
      <point x="21.0039" y="283.665"/>
      <point x="21.3369" y="288.332"/>
      <point x="22.0039" y="290.999" type="curve" smooth="yes"/>
      <point x="22.0039" y="296.999"/>
      <point x="24.3369" y="307.999"/>
      <point x="29.0039" y="323.999" type="curve" smooth="yes"/>
      <point x="33.6709" y="339.999"/>
      <point x="44.6709" y="356.499"/>
      <point x="62.0039" y="373.499" type="curve" smooth="yes"/>
      <point x="79.3369" y="390.499"/>
      <point x="104.837" y="405.499"/>
      <point x="138.504" y="418.499" type="curve" smooth="yes"/>
      <point x="172.171" y="431.499"/>
      <point x="218.671" y="437.999"/>
      <point x="278.004" y="437.999" type="curve" smooth="yes"/>
      <point x="311.004" y="437.999" type="line" smooth="yes"/>
      <point x="313.004" y="437.332"/>
      <point x="315.671" y="436.999"/>
      <point x="319.004" y="436.999" type="curve" smooth="yes"/>
      <point x="323.004" y="437.666"/>
      <point x="327.337" y="439.499"/>
      <point x="332.004" y="442.499" type="curve" smooth="yes"/>
      <point x="336.671" y="445.499"/>
      <point x="339.671" y="451.666"/>
      <point x="341.004" y="460.999" type="curve" smooth="yes"/>
      <point x="337.004" y="652.999" type="line" smooth="yes"/>
      <point x="336.337" y="660.999"/>
      <point x="333.67" y="668.332"/>
      <point x="329.003" y="674.999" type="curve" smooth="yes"/>
      <point x="325.003" y="680.332"/>
      <point x="318.503" y="685.332"/>
      <point x="309.503" y="689.999" type="curve" smooth="yes"/>
      <point x="300.503" y="694.666"/>
      <point x="288.003" y="696.999"/>
      <point x="272.003" y="696.999" type="curve" smooth="yes"/>
      <point x="255.336" y="696.999"/>
      <point x="242.669" y="694.666"/>
      <point x="234.002" y="689.999" type="curve" smooth="yes"/>
      <point x="225.335" y="685.332"/>
      <point x="219.002" y="680.332"/>
      <point x="215.002" y="674.999" type="curve" smooth="yes"/>
      <point x="210.335" y="668.332"/>
      <point x="207.668" y="660.999"/>
      <point x="207.001" y="652.999" type="curve" smooth="yes"/>
      <point x="206.001" y="594.999" type="line" smooth="yes"/>
      <point x="206.001" y="566.999"/>
      <point x="196.501" y="543.666"/>
      <point x="177.501" y="524.999" type="curve" smooth="yes"/>
      <point x="158.501" y="506.332"/>
      <point x="135.334" y="496.999"/>
      <point x="108.001" y="496.999" type="curve" smooth="yes"/>
      <point x="80.668" y="496.999"/>
      <point x="57.501" y="506.332"/>
      <point x="38.501" y="524.999" type="curve" smooth="yes"/>
      <point x="19.501" y="543.666"/>
      <point x="10.001" y="566.999"/>
      <point x="10.001" y="594.999" type="curve" smooth="yes"/>
      <point x="10.001" y="597.666"/>
      <point x="10.168" y="600.166"/>
      <point x="10.501" y="602.499" type="curve" smooth="yes"/>
      <point x="10.834" y="604.832"/>
      <point x="11.001" y="606.999"/>
      <point x="11.001" y="608.999" type="curve" smooth="yes"/>
      <point x="11.001" y="612.999"/>
      <point x="12.001" y="619.499"/>
      <point x="14.001" y="628.499" type="curve" smooth="yes"/>
      <point x="16.001" y="637.499"/>
      <point x="20.001" y="647.666"/>
      <point x="26.001" y="658.999" type="curve" smooth="yes"/>
      <point x="32.001" y="670.332"/>
      <point x="40.668" y="681.832"/>
      <point x="52.001" y="693.499" type="curve" smooth="yes"/>
      <point x="63.334" y="705.166"/>
      <point x="78.667" y="715.833"/>
      <point x="98" y="725.5" type="curve" smooth="yes"/>
      <point x="117.333" y="735.167"/>
      <point x="141.333" y="743.167"/>
      <point x="170" y="749.5" type="curve" smooth="yes"/>
      <point x="198.667" y="755.833"/>
      <point x="233" y="759"/>
      <point x="273" y="759" type="curve" smooth="yes"/>
      <point x="285.667" y="759"/>
      <point x="297.5" y="758.667"/>
      <point x="308.5" y="758" type="curve" smooth="yes"/>
      <point x="319.5" y="757.333"/>
      <point x="330.333" y="756.333"/>
      <point x="341" y="755" type="curve" smooth="yes"/>
      <point x="378.333" y="751"/>
      <point x="408.833" y="743.5"/>
      <point x="432.5" y="732.5" type="curve" smooth="yes"/>
      <point x="456.167" y="721.5"/>
      <point x="475" y="709.5"/>
      <point x="489" y="696.5" type="curve" smooth="yes"/>
      <point x="503" y="683.5"/>
      <point x="513.167" y="670.5"/>
      <point x="519.5" y="657.5" type="curve" smooth="yes"/>
      <point x="525.833" y="644.5"/>
      <point x="530" y="633.333"/>
      <point x="532" y="624" type="curve" smooth="yes"/>
    </contour>
    <contour>
      <point x="117.005" y="165.002" type="curve" smooth="yes"/>
      <point x="140.338" y="165.002"/>
      <point x="160.005" y="157.002"/>
      <point x="176.005" y="141.002" type="curve" smooth="yes"/>
      <point x="192.005" y="125.002"/>
      <point x="200.005" y="105.335"/>
      <point x="200.005" y="82.002" type="curve" smooth="yes"/>
      <point x="200.005" y="58.6689"/>
      <point x="192.005" y="38.8359"/>
      <point x="176.005" y="22.5029" type="curve" smooth="yes"/>
      <point x="160.005" y="6.16992"/>
      <point x="140.338" y="-1.99707"/>
      <point x="117.005" y="-1.99707" type="curve" smooth="yes"/>
      <point x="93.6719" y="-1.99707"/>
      <point x="73.8389" y="6.16992"/>
      <point x="57.5059" y="22.5029" type="curve" smooth="yes"/>
      <point x="41.1729" y="38.8359"/>
      <point x="33.0059" y="58.6689"/>
      <point x="33.0059" y="82.002" type="curve" smooth="yes"/>
      <point x="33.0059" y="105.335"/>
      <point x="41.1729" y="125.002"/>
      <point x="57.5059" y="141.002" type="curve" smooth="yes"/>
      <point x="73.8389" y="157.002"/>
      <point x="93.6719" y="165.002"/>
    </contour>
  </outline>
</glyph>
<glyph name="at" format="2">
  <advance width="833"/>
  <unicode hex="0040"/>
  <outline>
    <contour>
      <point x="714.221" y="272.475" type="curve"/>
      <point x="714.233" y="272.475" type="line"/>
      <point x="714.233" y="178.867"/>
      <point x="618.532" y="189.438"/>
      <point x="618.557" y="189.524" type="curve"/>
      <point x="579.194" y="193.787"/>
      <point x="547.988" y="263.209"/>
      <point x="544.107" y="302.683" type="curve"/>
      <point x="544.144" y="302.77"/>
      <point x="555.244" y="356.559"/>
      <point x="544.107" y="302.683" type="curve"/>
      <point x="531.183" y="240.159"/>
      <point x="441.136" y="180.309"/>
      <point x="379.905" y="184.928" type="curve" smooth="yes"/>
      <point x="318.662" y="189.549"/>
      <point x="263.654" y="219.856"/>
      <point x="263.654" y="308.215" type="curve" smooth="yes"/>
      <point x="263.654" y="401.772"/>
      <point x="374.152" y="437.082"/>
      <point x="415.08" y="446.002" type="curve" smooth="yes"/>
      <point x="479.994" y="460.145"/>
      <point x="511.299" y="484.045"/>
      <point x="525.849" y="503.659" type="curve" smooth="yes"/>
      <point x="537.737" y="519.687"/>
      <point x="531.245" y="536.886"/>
      <point x="511.804" y="541.408" type="curve" smooth="yes"/>
      <point x="435.912" y="559.062"/>
      <point x="234.788" y="511.051"/>
      <point x="234.788" y="226.94" type="curve" smooth="yes"/>
      <point x="234.788" y="48.4473"/>
      <point x="384.033" y="78.9277"/>
      <point x="393.434" y="81.3418" type="curve" smooth="yes"/>
      <point x="405.112" y="84.3359"/>
      <point x="436.836" y="98.1094"/>
      <point x="433.362" y="123.181" type="curve" smooth="yes"/>
      <point x="427.511" y="165.401"/>
      <point x="472.368" y="213.067"/>
      <point x="517.717" y="213.166" type="curve" smooth="yes"/>
      <point x="567.366" y="213.276"/>
      <point x="607.715" y="173.114"/>
      <point x="607.826" y="123.452" type="curve" smooth="yes"/>
      <point x="607.826" y="123.415"/>
      <point x="607.826" y="123.39"/>
      <point x="607.826" y="123.354" type="curve" smooth="yes"/>
      <point x="607.839" y="116.627"/>
      <point x="606.705" y="109.962"/>
      <point x="604.685" y="103.555" type="curve" smooth="yes"/>
      <point x="593.756" y="68.8994"/>
      <point x="542.186" y="-44.5439"/>
      <point x="335" y="-45" type="curve" smooth="yes"/>
      <point x="263.039" y="-45.1592"/>
      <point x="109.236" y="-18.3633"/>
      <point x="95.8438" y="240.443" type="curve" smooth="yes"/>
      <point x="89.6348" y="360.341"/>
      <point x="132.952" y="444.634"/>
      <point x="188.785" y="503.006" type="curve" smooth="yes"/>
      <point x="270.049" y="587.978"/>
      <point x="387.963" y="627.438"/>
      <point x="504.362" y="610.794" type="curve" smooth="yes"/>
      <point x="538.439" y="605.928"/>
      <point x="631.566" y="592.339"/>
      <point x="695.631" y="504.361" type="curve" smooth="yes"/>
      <point x="706.065" y="490.033"/>
      <point x="711.708" y="472.76"/>
      <point x="711.708" y="455.032" type="curve" smooth="yes"/>
      <point x="711.708" y="338.373" type="line" smooth="yes"/>
      <point x="711.708" y="312.612"/>
      <point x="714.221" y="290.856"/>
    </contour>
    <contour>
      <point x="541.828" y="344.583" type="curve"/>
      <point x="542.506" y="472.92" type="line"/>
      <point x="490.687" y="419.415"/>
      <point x="421.732" y="415.498"/>
      <point x="407.466" y="352.492" type="curve" smooth="yes"/>
      <point x="396.698" y="304.938"/>
      <point x="439.941" y="259.932"/>
      <point x="492.03" y="273.312" type="curve" smooth="yes"/>
      <point x="533.08" y="283.857"/>
      <point x="541.828" y="344.583"/>
    </contour>
  </outline>
</glyph>
<glyph name="A" format="2">
  <advance width="550"/>
  <unicode hex="0041"/>
  <outline>
    <contour>
      <point x="525" y="16" type="curve" smooth="yes"/>
      <point x="528.333" y="14"/>
      <point x="530.007" y="11.0029"/>
      <point x="530.007" y="7.00293" type="curve" smooth="yes"/>
      <point x="530.007" y="1.00293"/>
      <point x="526.674" y="-1.99707"/>
      <point x="520.007" y="-1.99707" type="curve" smooth="yes"/>
      <point x="511.007" y="-1.99707" type="line"/>
      <point x="334.007" y="-1.99707" type="line"/>
      <point x="334.007" y="278.003" type="line" smooth="yes"/>
      <point x="330.674" y="282.003"/>
      <point x="327.507" y="285.503"/>
      <point x="324.507" y="288.503" type="curve" smooth="yes"/>
      <point x="321.507" y="291.503"/>
      <point x="318.007" y="293.67"/>
      <point x="314.007" y="295.003" type="curve" smooth="yes"/>
      <point x="235.007" y="295.003" type="line" smooth="yes"/>
      <point x="228.34" y="292.336"/>
      <point x="221.673" y="286.669"/>
      <point x="215.006" y="278.002" type="curve"/>
      <point x="215.006" y="-1.99805" type="line"/>
      <point x="38.0059" y="-1.99805" type="line"/>
      <point x="29.0059" y="-1.99805" type="line" smooth="yes"/>
      <point x="22.3389" y="-1.99805"/>
      <point x="19.0059" y="1.00195"/>
      <point x="19.0059" y="7.00195" type="curve" smooth="yes"/>
      <point x="19.0059" y="11.002"/>
      <point x="20.6729" y="14.002"/>
      <point x="24.0059" y="16.002" type="curve" smooth="yes"/>
      <point x="25.3389" y="16.6689"/>
      <point x="27.6719" y="18.502"/>
      <point x="31.0049" y="21.502" type="curve" smooth="yes"/>
      <point x="34.3379" y="24.502"/>
      <point x="36.6709" y="29.335"/>
      <point x="38.0039" y="36.002" type="curve" smooth="yes"/>
      <point x="38.0039" y="490.002" type="line" smooth="yes"/>
      <point x="38.0039" y="491.335"/>
      <point x="38.1709" y="494.168"/>
      <point x="38.5039" y="498.501" type="curve" smooth="yes"/>
      <point x="38.8369" y="502.834"/>
      <point x="40.0039" y="508.334"/>
      <point x="42.0039" y="515.001" type="curve" smooth="yes"/>
      <point x="44.6709" y="525.001"/>
      <point x="50.1709" y="536.668"/>
      <point x="58.5039" y="550.001" type="curve" smooth="yes"/>
      <point x="66.8369" y="563.334"/>
      <point x="79.6699" y="575.834"/>
      <point x="97.0029" y="587.501" type="curve" smooth="yes"/>
      <point x="114.336" y="599.168"/>
      <point x="137.169" y="609.001"/>
      <point x="165.502" y="617.001" type="curve" smooth="yes"/>
      <point x="193.835" y="625.001"/>
      <point x="230.002" y="629.001"/>
      <point x="274.002" y="629.001" type="curve" smooth="yes"/>
      <point x="296.002" y="629.001"/>
      <point x="316.002" y="628.001"/>
      <point x="334.002" y="626.001" type="curve" smooth="yes"/>
      <point x="374.002" y="621.334"/>
      <point x="405.669" y="612.667"/>
      <point x="429.002" y="600" type="curve" smooth="yes"/>
      <point x="452.335" y="587.333"/>
      <point x="470.002" y="574"/>
      <point x="482.002" y="560" type="curve" smooth="yes"/>
      <point x="494.002" y="546"/>
      <point x="501.669" y="532.5"/>
      <point x="505.002" y="519.5" type="curve" smooth="yes"/>
      <point x="508.335" y="506.5"/>
      <point x="510.002" y="497.667"/>
      <point x="510.002" y="493" type="curve" smooth="yes"/>
      <point x="510.669" y="491"/>
      <point x="511.002" y="488.833"/>
      <point x="511.002" y="486.5" type="curve" smooth="yes"/>
      <point x="511.002" y="480" type="line"/>
      <point x="511.002" y="36" type="line" smooth="yes"/>
      <point x="512.335" y="29.333"/>
      <point x="514.668" y="24.5"/>
      <point x="518.001" y="21.5" type="curve" smooth="yes"/>
      <point x="521.334" y="18.5"/>
      <point x="523.667" y="16.667"/>
    </contour>
    <contour>
      <point x="274.007" y="573.003" type="curve" smooth="yes"/>
      <point x="259.34" y="573.003"/>
      <point x="248.007" y="570.835"/>
      <point x="240.007" y="566.502" type="curve" smooth="yes"/>
      <point x="232.007" y="562.169"/>
      <point x="226.34" y="557.336"/>
      <point x="223.007" y="552.003" type="curve" smooth="yes"/>
      <point x="218.34" y="546.003"/>
      <point x="215.673" y="539.336"/>
      <point x="215.006" y="532.003" type="curve" smooth="yes"/>
      <point x="215.006" y="345.003" type="line"/>
      <point x="334.006" y="345.003" type="line"/>
      <point x="333.006" y="533.003" type="line" smooth="yes"/>
      <point x="332.339" y="540.336"/>
      <point x="330.006" y="547.003"/>
      <point x="326.006" y="553.003" type="curve" smooth="yes"/>
      <point x="322.673" y="558.336"/>
      <point x="316.84" y="563.003"/>
      <point x="308.507" y="567.003" type="curve" smooth="yes"/>
      <point x="300.174" y="571.003"/>
      <point x="288.674" y="573.003"/>
    </contour>
  </outline>
</glyph>
<glyph name="B" format="2">
  <advance width="550"/>
  <unicode hex="0042"/>
  <outline>
    <contour>
      <point x="514" y="258" type="curve" smooth="yes"/>
      <point x="515.333" y="252.667"/>
      <point x="516.333" y="247.831"/>
      <point x="517" y="243.498" type="curve" smooth="yes"/>
      <point x="517.667" y="239.165"/>
      <point x="518.334" y="235.665"/>
      <point x="519.001" y="232.998" type="curve" smooth="yes"/>
      <point x="519.001" y="230.998"/>
      <point x="519.168" y="228.831"/>
      <point x="519.501" y="226.498" type="curve" smooth="yes"/>
      <point x="519.834" y="224.165"/>
      <point x="520.001" y="221.998"/>
      <point x="520.001" y="219.998" type="curve" smooth="yes"/>
      <point x="520.001" y="136.998" type="line" smooth="yes"/>
      <point x="520.001" y="135.665"/>
      <point x="519.501" y="131.498"/>
      <point x="518.501" y="124.498" type="curve" smooth="yes"/>
      <point x="517.501" y="117.498"/>
      <point x="515.001" y="108.998"/>
      <point x="511.001" y="98.998" type="curve" smooth="yes"/>
      <point x="507.001" y="88.998"/>
      <point x="500.168" y="78.165"/>
      <point x="490.501" y="66.498" type="curve" smooth="yes"/>
      <point x="480.834" y="54.8311"/>
      <point x="467.334" y="43.998"/>
      <point x="450.001" y="33.998" type="curve" smooth="yes"/>
      <point x="432.668" y="23.998"/>
      <point x="410.501" y="15.665"/>
      <point x="383.501" y="8.99805" type="curve" smooth="yes"/>
      <point x="356.501" y="2.33105"/>
      <point x="323.334" y="-1.00195"/>
      <point x="284.001" y="-1.00195" type="curve" smooth="yes"/>
      <point x="270.501" y="-1.00195" type="line"/>
      <point x="239.001" y="-1.00195" type="line" smooth="yes"/>
      <point x="223.668" y="-1.00195"/>
      <point x="201.001" y="-0.834961"/>
      <point x="171.001" y="-0.501953" type="curve" smooth="yes"/>
      <point x="141.001" y="-0.168945"/>
      <point x="99.668" y="-0.00195312"/>
      <point x="47.001" y="-0.00195312" type="curve"/>
      <point x="47.001" y="588.998" type="line" smooth="yes"/>
      <point x="46.334" y="596.331"/>
      <point x="44.167" y="601.831"/>
      <point x="40.5" y="605.498" type="curve" smooth="yes"/>
      <point x="36.833" y="609.165"/>
      <point x="34.333" y="611.332"/>
      <point x="33" y="611.999" type="curve" smooth="yes"/>
      <point x="29.667" y="613.999"/>
      <point x="28" y="616.666"/>
      <point x="28" y="619.999" type="curve" smooth="yes"/>
      <point x="28" y="626.666"/>
      <point x="31" y="629.999"/>
      <point x="37" y="629.999" type="curve" smooth="yes"/>
      <point x="47" y="629.999" type="line"/>
      <point x="290" y="629.999" type="line" smooth="yes"/>
      <point x="342.667" y="629.332"/>
      <point x="384" y="622.832"/>
      <point x="414" y="610.499" type="curve" smooth="yes"/>
      <point x="444" y="598.166"/>
      <point x="466.833" y="584.333"/>
      <point x="482.5" y="569" type="curve" smooth="yes"/>
      <point x="498.167" y="553.667"/>
      <point x="508" y="538.667"/>
      <point x="512" y="524" type="curve" smooth="yes"/>
      <point x="516" y="509.333"/>
      <point x="518.333" y="499.333"/>
      <point x="519" y="494" type="curve" smooth="yes"/>
      <point x="519" y="492"/>
      <point x="519.167" y="489.833"/>
      <point x="519.5" y="487.5" type="curve" smooth="yes"/>
      <point x="519.833" y="485.167"/>
      <point x="520" y="483"/>
      <point x="520" y="481" type="curve" smooth="yes"/>
      <point x="520" y="463" type="line"/>
      <point x="520" y="453" type="line" smooth="yes"/>
      <point x="519.333" y="439"/>
      <point x="516" y="425.333"/>
      <point x="510" y="412" type="curve" smooth="yes"/>
      <point x="504.667" y="400.667"/>
      <point x="496.167" y="388.5"/>
      <point x="484.5" y="375.5" type="curve" smooth="yes"/>
      <point x="472.833" y="362.5"/>
      <point x="456" y="351"/>
      <point x="434" y="341" type="curve"/>
      <point x="460" y="329"/>
      <point x="478.833" y="315.333"/>
      <point x="490.5" y="300" type="curve" smooth="yes"/>
      <point x="502.167" y="284.667"/>
      <point x="510" y="270.667"/>
    </contour>
    <contour>
      <point x="342" y="533.997" type="line" smooth="yes"/>
      <point x="341.333" y="541.33"/>
      <point x="339" y="547.997"/>
      <point x="335" y="553.997" type="curve" smooth="yes"/>
      <point x="331.667" y="559.33"/>
      <point x="325.834" y="563.997"/>
      <point x="317.501" y="567.997" type="curve" smooth="yes"/>
      <point x="309.168" y="571.997"/>
      <point x="297.668" y="573.997"/>
      <point x="283.001" y="573.997" type="curve" smooth="yes"/>
      <point x="224.001" y="573.997" type="line"/>
      <point x="225.001" y="369.997" type="line"/>
      <point x="283.001" y="369.997" type="line" smooth="yes"/>
      <point x="297.668" y="369.997"/>
      <point x="309.168" y="371.997"/>
      <point x="317.501" y="375.997" type="curve" smooth="yes"/>
      <point x="325.834" y="379.997"/>
      <point x="331.667" y="384.664"/>
      <point x="335" y="389.997" type="curve" smooth="yes"/>
      <point x="339" y="395.997"/>
      <point x="341.333" y="402.997"/>
      <point x="342" y="410.997" type="curve" smooth="yes"/>
    </contour>
    <contour>
      <point x="342" y="98.9971" type="line"/>
      <point x="342" y="240.997" type="line"/>
      <point x="342" y="272.997" type="line" smooth="yes"/>
      <point x="341.333" y="280.33"/>
      <point x="339" y="286.997"/>
      <point x="335" y="292.997" type="curve" smooth="yes"/>
      <point x="331.667" y="298.33"/>
      <point x="325.834" y="302.997"/>
      <point x="317.501" y="306.997" type="curve" smooth="yes"/>
      <point x="309.168" y="310.997"/>
      <point x="297.668" y="312.997"/>
      <point x="283.001" y="312.997" type="curve" smooth="yes"/>
      <point x="224.001" y="312.997" type="line"/>
      <point x="224.001" y="222.997" type="line"/>
      <point x="224.001" y="147.997" type="line"/>
      <point x="225.001" y="54.9971" type="line"/>
      <point x="283.001" y="54.9971" type="line" smooth="yes"/>
      <point x="297.668" y="54.9971"/>
      <point x="309.168" y="56.9971"/>
      <point x="317.501" y="60.9971" type="curve" smooth="yes"/>
      <point x="325.834" y="64.9971"/>
      <point x="331.667" y="69.6641"/>
      <point x="335" y="74.9971" type="curve" smooth="yes"/>
      <point x="339" y="80.9971"/>
      <point x="341.333" y="87.6641"/>
      <point x="342" y="94.9971" type="curve" smooth="yes"/>
    </contour>
  </outline>
</glyph>
<glyph name="C" format="2">
  <advance width="550"/>
  <unicode hex="0043"/>
  <outline>
    <contour>
      <point x="511" y="138" type="line" smooth="yes"/>
      <point x="509.667" y="112"/>
      <point x="500.331" y="88.6631"/>
      <point x="482.998" y="67.9961" type="curve" smooth="yes"/>
      <point x="475.665" y="59.3291"/>
      <point x="466.332" y="50.8291"/>
      <point x="454.999" y="42.4961" type="curve" smooth="yes"/>
      <point x="443.666" y="34.1631"/>
      <point x="429.666" y="26.8301"/>
      <point x="412.999" y="20.4971" type="curve" smooth="yes"/>
      <point x="396.332" y="14.1641"/>
      <point x="376.665" y="8.99707"/>
      <point x="353.998" y="4.99707" type="curve" smooth="yes"/>
      <point x="331.331" y="0.99707"/>
      <point x="304.998" y="-1.00293"/>
      <point x="274.998" y="-1.00293" type="curve" smooth="yes"/>
      <point x="252.998" y="-1.00293"/>
      <point x="232.998" y="-0.00292969"/>
      <point x="214.998" y="1.99707" type="curve" smooth="yes"/>
      <point x="174.998" y="6.66406"/>
      <point x="143.331" y="15.3311"/>
      <point x="119.998" y="27.998" type="curve" smooth="yes"/>
      <point x="96.665" y="40.665"/>
      <point x="78.998" y="53.998"/>
      <point x="66.998" y="67.998" type="curve" smooth="yes"/>
      <point x="54.998" y="81.998"/>
      <point x="47.3311" y="95.3311"/>
      <point x="43.998" y="107.998" type="curve" smooth="yes"/>
      <point x="40.665" y="120.665"/>
      <point x="38.998" y="129.332"/>
      <point x="38.998" y="133.999" type="curve" smooth="yes"/>
      <point x="38.3311" y="137.332"/>
      <point x="37.998" y="141.999"/>
      <point x="37.998" y="147.999" type="curve" smooth="yes"/>
      <point x="37.998" y="491.999" type="line" smooth="yes"/>
      <point x="37.998" y="493.999"/>
      <point x="38.3311" y="498.832"/>
      <point x="38.998" y="506.499" type="curve" smooth="yes"/>
      <point x="39.665" y="514.166"/>
      <point x="42.665" y="523.333"/>
      <point x="47.998" y="534" type="curve" smooth="yes"/>
      <point x="52.665" y="544"/>
      <point x="59.832" y="554.833"/>
      <point x="69.499" y="566.5" type="curve" smooth="yes"/>
      <point x="79.166" y="578.167"/>
      <point x="92.833" y="588.667"/>
      <point x="110.5" y="598" type="curve" smooth="yes"/>
      <point x="128.167" y="607.333"/>
      <point x="150.167" y="615.166"/>
      <point x="176.5" y="621.499" type="curve" smooth="yes"/>
      <point x="202.833" y="627.832"/>
      <point x="235" y="630.999"/>
      <point x="273" y="630.999" type="curve" smooth="yes"/>
      <point x="327.667" y="630.999"/>
      <point x="370.667" y="624.999"/>
      <point x="402" y="612.999" type="curve" smooth="yes"/>
      <point x="433.333" y="600.999"/>
      <point x="456.833" y="587.166"/>
      <point x="472.5" y="571.499" type="curve" smooth="yes"/>
      <point x="488.167" y="555.832"/>
      <point x="498.167" y="540.499"/>
      <point x="502.5" y="525.499" type="curve" smooth="yes"/>
      <point x="506.833" y="510.499"/>
      <point x="509.333" y="500.332"/>
      <point x="510" y="494.999" type="curve" smooth="yes"/>
      <point x="510" y="492.999"/>
      <point x="510.167" y="490.832"/>
      <point x="510.5" y="488.499" type="curve" smooth="yes"/>
      <point x="510.833" y="486.166"/>
      <point x="511" y="483.999"/>
      <point x="511" y="481.999" type="curve" smooth="yes"/>
      <point x="511" y="457.332"/>
      <point x="502.333" y="436.332"/>
      <point x="485" y="418.999" type="curve" smooth="yes"/>
      <point x="467.667" y="401.666"/>
      <point x="446.667" y="392.999"/>
      <point x="422" y="392.999" type="curve" smooth="yes"/>
      <point x="397.333" y="392.999"/>
      <point x="376.5" y="401.666"/>
      <point x="359.5" y="418.999" type="curve" smooth="yes"/>
      <point x="342.5" y="436.332"/>
      <point x="334" y="457.332"/>
      <point x="334" y="481.999" type="curve" smooth="yes"/>
      <point x="333" y="534.999" type="line" smooth="yes"/>
      <point x="332.333" y="542.332"/>
      <point x="330" y="548.999"/>
      <point x="326" y="554.999" type="curve" smooth="yes"/>
      <point x="322.667" y="560.332"/>
      <point x="316.834" y="564.999"/>
      <point x="308.501" y="568.999" type="curve" smooth="yes"/>
      <point x="300.168" y="572.999"/>
      <point x="288.668" y="574.999"/>
      <point x="274.001" y="574.999" type="curve" smooth="yes"/>
      <point x="258.668" y="574.999"/>
      <point x="247.001" y="572.832"/>
      <point x="239.001" y="568.499" type="curve" smooth="yes"/>
      <point x="231.001" y="564.166"/>
      <point x="225.334" y="559.333"/>
      <point x="222.001" y="554" type="curve" smooth="yes"/>
      <point x="218.001" y="548"/>
      <point x="215.668" y="541.333"/>
      <point x="215.001" y="534" type="curve" smooth="yes"/>
      <point x="215.001" y="125" type="line"/>
      <point x="216.001" y="95" type="line" smooth="yes"/>
      <point x="216.668" y="87.667"/>
      <point x="219.001" y="81"/>
      <point x="223.001" y="75" type="curve" smooth="yes"/>
      <point x="226.334" y="69.667"/>
      <point x="232.001" y="65"/>
      <point x="240.001" y="61" type="curve" smooth="yes"/>
      <point x="248.001" y="57"/>
      <point x="259.334" y="55"/>
      <point x="274.001" y="55" type="curve" smooth="yes"/>
      <point x="288.668" y="55"/>
      <point x="300.168" y="57"/>
      <point x="308.501" y="61" type="curve" smooth="yes"/>
      <point x="316.834" y="65"/>
      <point x="322.667" y="69.667"/>
      <point x="326" y="75" type="curve" smooth="yes"/>
      <point x="330" y="81"/>
      <point x="332.333" y="87.667"/>
      <point x="333" y="95" type="curve" smooth="yes"/>
      <point x="334" y="150" type="line" smooth="yes"/>
      <point x="334.667" y="174"/>
      <point x="343.5" y="194.333"/>
      <point x="360.5" y="211" type="curve" smooth="yes"/>
      <point x="377.5" y="227.667"/>
      <point x="398" y="236"/>
      <point x="422" y="236" type="curve" smooth="yes"/>
      <point x="446.667" y="236"/>
      <point x="467.667" y="227.5"/>
      <point x="485" y="210.5" type="curve" smooth="yes"/>
      <point x="502.333" y="193.5"/>
      <point x="511" y="172.667"/>
      <point x="511" y="148" type="curve" smooth="yes"/>
    </contour>
  </outline>
</glyph>
<glyph name="D" format="2">
  <advance width="550"/>
  <unicode hex="0044"/>
  <outline>
    <contour>
      <point x="510" y="535" type="curve" smooth="yes"/>
      <point x="515.333" y="524.333"/>
      <point x="518.499" y="515.167"/>
      <point x="519.499" y="507.5" type="curve" smooth="yes"/>
      <point x="520.499" y="499.833"/>
      <point x="520.999" y="495"/>
      <point x="520.999" y="493" type="curve" smooth="yes"/>
      <point x="520.999" y="149" type="line" smooth="yes"/>
      <point x="520.999" y="146.333"/>
      <point x="520.832" y="144"/>
      <point x="520.499" y="142" type="curve" smooth="yes"/>
      <point x="520.166" y="140"/>
      <point x="519.999" y="137.667"/>
      <point x="519.999" y="135" type="curve" smooth="yes"/>
      <point x="519.332" y="130.333"/>
      <point x="517.332" y="121.666"/>
      <point x="513.999" y="108.999" type="curve" smooth="yes"/>
      <point x="510.666" y="96.332"/>
      <point x="502.999" y="82.999"/>
      <point x="490.999" y="68.999" type="curve" smooth="yes"/>
      <point x="478.999" y="54.999"/>
      <point x="461.332" y="41.666"/>
      <point x="437.999" y="28.999" type="curve" smooth="yes"/>
      <point x="414.666" y="16.332"/>
      <point x="382.999" y="7.66504"/>
      <point x="342.999" y="2.99805" type="curve" smooth="yes"/>
      <point x="324.999" y="0.998047"/>
      <point x="304.999" y="-0.00195312"/>
      <point x="282.999" y="-0.00195312" type="curve" smooth="yes"/>
      <point x="277.499" y="-0.00195312" type="line"/>
      <point x="250.499" y="-0.00195312" type="line" smooth="yes"/>
      <point x="235.499" y="-0.00195312"/>
      <point x="212.166" y="0.165039"/>
      <point x="180.499" y="0.498047" type="curve" smooth="yes"/>
      <point x="148.832" y="0.831055"/>
      <point x="104.332" y="0.998047"/>
      <point x="46.999" y="0.998047" type="curve"/>
      <point x="46.999" y="589.998" type="line" smooth="yes"/>
      <point x="46.332" y="597.331"/>
      <point x="44.165" y="602.831"/>
      <point x="40.498" y="606.498" type="curve" smooth="yes"/>
      <point x="36.8311" y="610.165"/>
      <point x="34.3311" y="612.332"/>
      <point x="32.998" y="612.999" type="curve" smooth="yes"/>
      <point x="29.665" y="614.999"/>
      <point x="27.998" y="617.666"/>
      <point x="27.998" y="620.999" type="curve" smooth="yes"/>
      <point x="27.998" y="627.666"/>
      <point x="31.3311" y="630.999"/>
      <point x="37.998" y="630.999" type="curve" smooth="yes"/>
      <point x="46.998" y="630.999" type="line"/>
      <point x="284.998" y="631.999" type="line" smooth="yes"/>
      <point x="322.998" y="631.999"/>
      <point x="355.165" y="628.832"/>
      <point x="381.498" y="622.499" type="curve" smooth="yes"/>
      <point x="407.831" y="616.166"/>
      <point x="429.831" y="608.333"/>
      <point x="447.498" y="599" type="curve" smooth="yes"/>
      <point x="465.165" y="589.667"/>
      <point x="478.832" y="579.167"/>
      <point x="488.499" y="567.5" type="curve" smooth="yes"/>
      <point x="498.166" y="555.833"/>
      <point x="505.333" y="545"/>
    </contour>
    <contour>
      <point x="342.999" y="126.001" type="line"/>
      <point x="342.999" y="535.002" type="line" smooth="yes"/>
      <point x="342.332" y="542.335"/>
      <point x="339.999" y="549.002"/>
      <point x="335.999" y="555.002" type="curve" smooth="yes"/>
      <point x="332.666" y="560.335"/>
      <point x="326.833" y="565.168"/>
      <point x="318.5" y="569.501" type="curve" smooth="yes"/>
      <point x="310.167" y="573.834"/>
      <point x="298.667" y="576.001"/>
      <point x="284" y="576.001" type="curve" smooth="yes"/>
      <point x="226" y="576.001" type="line"/>
      <point x="225" y="56.001" type="line"/>
      <point x="284" y="56.001" type="line" smooth="yes"/>
      <point x="298.667" y="56.001"/>
      <point x="310.167" y="58.001"/>
      <point x="318.5" y="62.001" type="curve" smooth="yes"/>
      <point x="326.833" y="66.001"/>
      <point x="332.666" y="70.668"/>
      <point x="335.999" y="76.001" type="curve" smooth="yes"/>
      <point x="339.999" y="82.001"/>
      <point x="342.332" y="88.668"/>
      <point x="342.999" y="96.001" type="curve" smooth="yes"/>
    </contour>
  </outline>
</glyph>
<glyph name="E" format="2">
  <advance width="550"/>
  <unicode hex="0045"/>
  <outline>
    <contour>
      <point x="432" y="237" type="curve" smooth="yes"/>
      <point x="456.667" y="237"/>
      <point x="477.666" y="228.503"/>
      <point x="494.999" y="211.503" type="curve" smooth="yes"/>
      <point x="512.332" y="194.503"/>
      <point x="520.999" y="173.67"/>
      <point x="520.999" y="149.003" type="curve" smooth="yes"/>
      <point x="520.999" y="146.336"/>
      <point x="520.832" y="144.003"/>
      <point x="520.499" y="142.003" type="curve" smooth="yes"/>
      <point x="520.166" y="140.003"/>
      <point x="519.999" y="137.67"/>
      <point x="519.999" y="135.003" type="curve" smooth="yes"/>
      <point x="519.332" y="130.336"/>
      <point x="517.332" y="121.669"/>
      <point x="513.999" y="109.002" type="curve" smooth="yes"/>
      <point x="510.666" y="96.335"/>
      <point x="502.999" y="83.002"/>
      <point x="490.999" y="69.002" type="curve" smooth="yes"/>
      <point x="478.999" y="55.002"/>
      <point x="461.332" y="41.6689"/>
      <point x="437.999" y="29.002" type="curve" smooth="yes"/>
      <point x="414.666" y="16.335"/>
      <point x="382.999" y="7.66797"/>
      <point x="342.999" y="3.00098" type="curve" smooth="yes"/>
      <point x="324.999" y="1.00098"/>
      <point x="304.999" y="0.000976562"/>
      <point x="282.999" y="0.000976562" type="curve" smooth="yes"/>
      <point x="161.999" y="0.000976562" type="line" smooth="yes"/>
      <point x="127.999" y="0.000976562"/>
      <point x="89.666" y="0.333984"/>
      <point x="46.999" y="1.00098" type="curve"/>
      <point x="46.999" y="590.001" type="line" smooth="yes"/>
      <point x="46.332" y="597.334"/>
      <point x="44.165" y="602.834"/>
      <point x="40.498" y="606.501" type="curve" smooth="yes"/>
      <point x="36.8311" y="610.168"/>
      <point x="34.3311" y="612.335"/>
      <point x="32.998" y="613.002" type="curve" smooth="yes"/>
      <point x="29.665" y="615.002"/>
      <point x="27.998" y="617.669"/>
      <point x="27.998" y="621.002" type="curve" smooth="yes"/>
      <point x="27.998" y="627.669"/>
      <point x="31.3311" y="631.002"/>
      <point x="37.998" y="631.002" type="curve" smooth="yes"/>
      <point x="46.998" y="631.002" type="line"/>
      <point x="284.998" y="632.002" type="line" smooth="yes"/>
      <point x="322.998" y="632.002"/>
      <point x="355.165" y="628.835"/>
      <point x="381.498" y="622.502" type="curve" smooth="yes"/>
      <point x="407.831" y="616.169"/>
      <point x="429.831" y="608.336"/>
      <point x="447.498" y="599.003" type="curve" smooth="yes"/>
      <point x="465.165" y="589.67"/>
      <point x="478.832" y="579.17"/>
      <point x="488.499" y="567.503" type="curve" smooth="yes"/>
      <point x="498.166" y="555.836"/>
      <point x="505.333" y="545.003"/>
      <point x="510" y="535.003" type="curve" smooth="yes"/>
      <point x="515.333" y="524.336"/>
      <point x="518.5" y="515.169"/>
      <point x="519.5" y="507.502" type="curve" smooth="yes"/>
      <point x="520.5" y="499.835"/>
      <point x="521" y="495.002"/>
      <point x="521" y="493.002" type="curve" smooth="yes"/>
      <point x="521" y="483.002" type="line" smooth="yes"/>
      <point x="521" y="458.335"/>
      <point x="512.333" y="437.335"/>
      <point x="495" y="420.002" type="curve" smooth="yes"/>
      <point x="477.667" y="402.669"/>
      <point x="456.667" y="394.002"/>
      <point x="432" y="394.002" type="curve" smooth="yes"/>
      <point x="408" y="394.002"/>
      <point x="387.5" y="402.502"/>
      <point x="370.5" y="419.502" type="curve" smooth="yes"/>
      <point x="353.5" y="436.502"/>
      <point x="344.667" y="456.669"/>
      <point x="344" y="480.002" type="curve" smooth="yes"/>
      <point x="343" y="535.002" type="line" smooth="yes"/>
      <point x="342.333" y="542.335"/>
      <point x="340" y="549.002"/>
      <point x="336" y="555.002" type="curve" smooth="yes"/>
      <point x="332.667" y="560.335"/>
      <point x="326.834" y="565.168"/>
      <point x="318.501" y="569.501" type="curve" smooth="yes"/>
      <point x="310.168" y="573.834"/>
      <point x="298.668" y="576.001"/>
      <point x="284.001" y="576.001" type="curve" smooth="yes"/>
      <point x="226.001" y="576.001" type="line"/>
      <point x="224.001" y="326.001" type="line"/>
      <point x="259.001" y="326.001" type="line" smooth="yes"/>
      <point x="264.334" y="326.001"/>
      <point x="268.501" y="327.501"/>
      <point x="271.501" y="330.501" type="curve" smooth="yes"/>
      <point x="274.501" y="333.501"/>
      <point x="277.334" y="337.334"/>
      <point x="280.001" y="342.001" type="curve" smooth="yes"/>
      <point x="281.334" y="347.334"/>
      <point x="283.001" y="351.001"/>
      <point x="285.001" y="353.001" type="curve" smooth="yes"/>
      <point x="289.668" y="357.668"/>
      <point x="294.668" y="360.001"/>
      <point x="300.001" y="360.001" type="curve" smooth="yes"/>
      <point x="312.001" y="360.001" type="line" smooth="yes"/>
      <point x="317.334" y="360.001"/>
      <point x="322.334" y="357.668"/>
      <point x="327.001" y="353.001" type="curve" smooth="yes"/>
      <point x="331.001" y="349.668"/>
      <point x="333.001" y="345.001"/>
      <point x="333.001" y="339.001" type="curve" smooth="yes"/>
      <point x="333.001" y="241.001" type="line" smooth="yes"/>
      <point x="333.001" y="237.001"/>
      <point x="331.334" y="232.668"/>
      <point x="328.001" y="228.001" type="curve" smooth="yes"/>
      <point x="323.334" y="223.334"/>
      <point x="318.001" y="221.001"/>
      <point x="312.001" y="221.001" type="curve" smooth="yes"/>
      <point x="300.001" y="221.001" type="line" smooth="yes"/>
      <point x="293.334" y="221.001"/>
      <point x="287.667" y="224.334"/>
      <point x="283" y="231.001" type="curve" smooth="yes"/>
      <point x="281.667" y="232.334"/>
      <point x="281" y="233.667"/>
      <point x="281" y="235" type="curve" smooth="yes"/>
      <point x="278.333" y="240.333"/>
      <point x="275.333" y="244.5"/>
      <point x="272" y="247.5" type="curve" smooth="yes"/>
      <point x="268.667" y="250.5"/>
      <point x="264.334" y="252"/>
      <point x="259.001" y="252" type="curve" smooth="yes"/>
      <point x="224.001" y="252" type="line"/>
      <point x="225.001" y="56" type="line"/>
      <point x="284.001" y="56" type="line" smooth="yes"/>
      <point x="298.668" y="56"/>
      <point x="310.168" y="58"/>
      <point x="318.501" y="62" type="curve" smooth="yes"/>
      <point x="326.834" y="66"/>
      <point x="332.667" y="70.667"/>
      <point x="336" y="76" type="curve" smooth="yes"/>
      <point x="340" y="82"/>
      <point x="342.333" y="88.667"/>
      <point x="343" y="96" type="curve" smooth="yes"/>
      <point x="343" y="126" type="line"/>
      <point x="344" y="149" type="line" smooth="yes"/>
      <point x="344" y="173.667"/>
      <point x="352.5" y="194.5"/>
      <point x="369.5" y="211.5" type="curve" smooth="yes"/>
      <point x="386.5" y="228.5"/>
      <point x="407.333" y="237"/>
    </contour>
  </outline>
</glyph>
<glyph name="F" format="2">
  <advance width="550"/>
  <unicode hex="0046"/>
  <outline>
    <contour>
      <point x="510" y="535" type="curve" smooth="yes"/>
      <point x="515.333" y="524.333"/>
      <point x="518.499" y="515.166"/>
      <point x="519.499" y="507.499" type="curve" smooth="yes"/>
      <point x="520.499" y="499.832"/>
      <point x="520.999" y="494.999"/>
      <point x="520.999" y="492.999" type="curve" smooth="yes"/>
      <point x="520.999" y="482.999" type="line" smooth="yes"/>
      <point x="520.999" y="458.332"/>
      <point x="512.332" y="437.332"/>
      <point x="494.999" y="419.999" type="curve" smooth="yes"/>
      <point x="477.666" y="402.666"/>
      <point x="456.666" y="393.999"/>
      <point x="431.999" y="393.999" type="curve" smooth="yes"/>
      <point x="407.999" y="393.999"/>
      <point x="387.499" y="402.499"/>
      <point x="370.499" y="419.499" type="curve" smooth="yes"/>
      <point x="353.499" y="436.499"/>
      <point x="344.666" y="456.666"/>
      <point x="343.999" y="479.999" type="curve" smooth="yes"/>
      <point x="342.999" y="534.999" type="line" smooth="yes"/>
      <point x="342.332" y="542.332"/>
      <point x="339.999" y="548.999"/>
      <point x="335.999" y="554.999" type="curve" smooth="yes"/>
      <point x="332.666" y="560.332"/>
      <point x="326.833" y="565.165"/>
      <point x="318.5" y="569.498" type="curve" smooth="yes"/>
      <point x="310.167" y="573.831"/>
      <point x="298.667" y="575.998"/>
      <point x="284" y="575.998" type="curve" smooth="yes"/>
      <point x="226" y="575.998" type="line"/>
      <point x="224" y="317.998" type="line"/>
      <point x="273" y="317.998" type="line" smooth="yes"/>
      <point x="289.667" y="317.998"/>
      <point x="300" y="325.331"/>
      <point x="304" y="339.998" type="curve" smooth="yes"/>
      <point x="305.333" y="343.331"/>
      <point x="306.5" y="346.331"/>
      <point x="307.5" y="348.998" type="curve" smooth="yes"/>
      <point x="308.5" y="351.665"/>
      <point x="310" y="354.332"/>
      <point x="312" y="356.999" type="curve" smooth="yes"/>
      <point x="318.667" y="363.666"/>
      <point x="326" y="366.999"/>
      <point x="334" y="366.999" type="curve" smooth="yes"/>
      <point x="351" y="366.999" type="line" smooth="yes"/>
      <point x="360.333" y="366.999"/>
      <point x="367.666" y="363.666"/>
      <point x="372.999" y="356.999" type="curve" smooth="yes"/>
      <point x="378.332" y="351.666"/>
      <point x="380.999" y="344.999"/>
      <point x="380.999" y="336.999" type="curve" smooth="yes"/>
      <point x="380.999" y="193.999" type="line" smooth="yes"/>
      <point x="380.999" y="187.332"/>
      <point x="378.666" y="180.665"/>
      <point x="373.999" y="173.998" type="curve" smooth="yes"/>
      <point x="367.332" y="167.331"/>
      <point x="359.665" y="163.998"/>
      <point x="350.998" y="163.998" type="curve" smooth="yes"/>
      <point x="333.998" y="163.998" type="line" smooth="yes"/>
      <point x="323.331" y="163.998"/>
      <point x="314.998" y="168.665"/>
      <point x="308.998" y="177.998" type="curve" smooth="yes"/>
      <point x="305.998" y="183.998" type="line" smooth="yes"/>
      <point x="301.998" y="191.331"/>
      <point x="297.498" y="197.331"/>
      <point x="292.498" y="201.998" type="curve" smooth="yes"/>
      <point x="287.498" y="206.665"/>
      <point x="280.998" y="208.998"/>
      <point x="272.998" y="208.998" type="curve" smooth="yes"/>
      <point x="223.998" y="208.998" type="line"/>
      <point x="223.998" y="0.998047" type="line"/>
      <point x="46.998" y="0.998047" type="line"/>
      <point x="46.998" y="589.998" type="line" smooth="yes"/>
      <point x="46.3311" y="597.331"/>
      <point x="44.1641" y="602.831"/>
      <point x="40.4971" y="606.498" type="curve" smooth="yes"/>
      <point x="36.8301" y="610.165"/>
      <point x="34.3301" y="612.332"/>
      <point x="32.9971" y="612.999" type="curve" smooth="yes"/>
      <point x="29.6641" y="614.999"/>
      <point x="27.9971" y="617.666"/>
      <point x="27.9971" y="620.999" type="curve" smooth="yes"/>
      <point x="27.9971" y="627.666"/>
      <point x="31.3301" y="630.999"/>
      <point x="37.9971" y="630.999" type="curve" smooth="yes"/>
      <point x="46.9971" y="630.999" type="line"/>
      <point x="160.997" y="630.999" type="line"/>
      <point x="203.997" y="630.999" type="line" smooth="yes"/>
      <point x="217.997" y="630.999"/>
      <point x="230.83" y="631.166"/>
      <point x="242.497" y="631.499" type="curve" smooth="yes"/>
      <point x="254.164" y="631.832"/>
      <point x="263.831" y="631.999"/>
      <point x="271.498" y="631.999" type="curve" smooth="yes"/>
      <point x="284.998" y="631.999" type="line" smooth="yes"/>
      <point x="322.998" y="631.999"/>
      <point x="355.165" y="628.832"/>
      <point x="381.498" y="622.499" type="curve" smooth="yes"/>
      <point x="407.831" y="616.166"/>
      <point x="429.831" y="608.333"/>
      <point x="447.498" y="599" type="curve" smooth="yes"/>
      <point x="465.165" y="589.667"/>
      <point x="478.832" y="579.167"/>
      <point x="488.499" y="567.5" type="curve" smooth="yes"/>
      <point x="498.166" y="555.833"/>
      <point x="505.333" y="545"/>
    </contour>
  </outline>
</glyph>
<glyph name="G" format="2">
  <advance width="550"/>
  <unicode hex="0047"/>
  <outline>
    <contour>
      <point x="511" y="138" type="line" smooth="yes"/>
      <point x="509.667" y="112"/>
      <point x="500.331" y="88.6631"/>
      <point x="482.998" y="67.9961" type="curve" smooth="yes"/>
      <point x="475.665" y="59.3291"/>
      <point x="466.332" y="50.8291"/>
      <point x="454.999" y="42.4961" type="curve" smooth="yes"/>
      <point x="443.666" y="34.1631"/>
      <point x="429.666" y="26.8301"/>
      <point x="412.999" y="20.4971" type="curve" smooth="yes"/>
      <point x="396.332" y="14.1641"/>
      <point x="376.665" y="8.99707"/>
      <point x="353.998" y="4.99707" type="curve" smooth="yes"/>
      <point x="331.331" y="0.99707"/>
      <point x="304.998" y="-1.00293"/>
      <point x="274.998" y="-1.00293" type="curve" smooth="yes"/>
      <point x="252.998" y="-1.00293"/>
      <point x="232.998" y="-0.00292969"/>
      <point x="214.998" y="1.99707" type="curve" smooth="yes"/>
      <point x="174.998" y="6.66406"/>
      <point x="143.331" y="15.3311"/>
      <point x="119.998" y="27.998" type="curve" smooth="yes"/>
      <point x="96.665" y="40.665"/>
      <point x="78.998" y="53.998"/>
      <point x="66.998" y="67.998" type="curve" smooth="yes"/>
      <point x="54.998" y="81.998"/>
      <point x="47.3311" y="95.3311"/>
      <point x="43.998" y="107.998" type="curve" smooth="yes"/>
      <point x="40.665" y="120.665"/>
      <point x="38.998" y="129.332"/>
      <point x="38.998" y="133.999" type="curve" smooth="yes"/>
      <point x="38.998" y="134.666"/>
      <point x="38.8311" y="135.999"/>
      <point x="38.498" y="137.999" type="curve" smooth="yes"/>
      <point x="38.165" y="139.999"/>
      <point x="37.998" y="144.499"/>
      <point x="37.998" y="151.499" type="curve" smooth="yes"/>
      <point x="37.998" y="183.999" type="line"/>
      <point x="37.998" y="245.499" type="line"/>
      <point x="37.998" y="344.999" type="line"/>
      <point x="37.998" y="491.999" type="line" smooth="yes"/>
      <point x="37.998" y="493.999"/>
      <point x="38.3311" y="498.832"/>
      <point x="38.998" y="506.499" type="curve" smooth="yes"/>
      <point x="39.665" y="514.166"/>
      <point x="42.665" y="523.333"/>
      <point x="47.998" y="534" type="curve" smooth="yes"/>
      <point x="52.665" y="544"/>
      <point x="59.832" y="554.833"/>
      <point x="69.499" y="566.5" type="curve" smooth="yes"/>
      <point x="79.166" y="578.167"/>
      <point x="92.833" y="588.667"/>
      <point x="110.5" y="598" type="curve" smooth="yes"/>
      <point x="128.167" y="607.333"/>
      <point x="150.167" y="615.166"/>
      <point x="176.5" y="621.499" type="curve" smooth="yes"/>
      <point x="202.833" y="627.832"/>
      <point x="235" y="630.999"/>
      <point x="273" y="630.999" type="curve" smooth="yes"/>
      <point x="327.667" y="630.999"/>
      <point x="370.667" y="624.999"/>
      <point x="402" y="612.999" type="curve" smooth="yes"/>
      <point x="433.333" y="600.999"/>
      <point x="456.833" y="587.166"/>
      <point x="472.5" y="571.499" type="curve" smooth="yes"/>
      <point x="488.167" y="555.832"/>
      <point x="498.167" y="540.499"/>
      <point x="502.5" y="525.499" type="curve" smooth="yes"/>
      <point x="506.833" y="510.499"/>
      <point x="509.333" y="500.332"/>
      <point x="510" y="494.999" type="curve" smooth="yes"/>
      <point x="510" y="492.999"/>
      <point x="510.167" y="490.832"/>
      <point x="510.5" y="488.499" type="curve" smooth="yes"/>
      <point x="510.833" y="486.166"/>
      <point x="511" y="483.666"/>
      <point x="511" y="480.999" type="curve" smooth="yes"/>
      <point x="510.333" y="456.999"/>
      <point x="501.5" y="436.499"/>
      <point x="484.5" y="419.499" type="curve" smooth="yes"/>
      <point x="467.5" y="402.499"/>
      <point x="447" y="393.666"/>
      <point x="423" y="392.999" type="curve" smooth="yes"/>
      <point x="398.333" y="392.999"/>
      <point x="377.333" y="401.666"/>
      <point x="360" y="418.999" type="curve" smooth="yes"/>
      <point x="342.667" y="436.332"/>
      <point x="334" y="457.332"/>
      <point x="334" y="481.999" type="curve" smooth="yes"/>
      <point x="333" y="534.999" type="line" smooth="yes"/>
      <point x="332.333" y="542.332"/>
      <point x="330" y="548.999"/>
      <point x="326" y="554.999" type="curve" smooth="yes"/>
      <point x="322.667" y="560.332"/>
      <point x="316.834" y="564.999"/>
      <point x="308.501" y="568.999" type="curve" smooth="yes"/>
      <point x="300.168" y="572.999"/>
      <point x="288.668" y="574.999"/>
      <point x="274.001" y="574.999" type="curve" smooth="yes"/>
      <point x="258.668" y="574.999"/>
      <point x="247.001" y="572.832"/>
      <point x="239.001" y="568.499" type="curve" smooth="yes"/>
      <point x="231.001" y="564.166"/>
      <point x="225.334" y="559.333"/>
      <point x="222.001" y="554" type="curve" smooth="yes"/>
      <point x="218.001" y="548"/>
      <point x="215.668" y="541.333"/>
      <point x="215.001" y="534" type="curve" smooth="yes"/>
      <point x="216.001" y="95" type="line" smooth="yes"/>
      <point x="216.668" y="87.667"/>
      <point x="219.001" y="81"/>
      <point x="223.001" y="75" type="curve" smooth="yes"/>
      <point x="226.334" y="69.667"/>
      <point x="232.001" y="65"/>
      <point x="240.001" y="61" type="curve" smooth="yes"/>
      <point x="248.001" y="57"/>
      <point x="259.334" y="55"/>
      <point x="274.001" y="55" type="curve" smooth="yes"/>
      <point x="288.668" y="55"/>
      <point x="300.168" y="57"/>
      <point x="308.501" y="61" type="curve" smooth="yes"/>
      <point x="316.834" y="65"/>
      <point x="322.667" y="69.667"/>
      <point x="326" y="75" type="curve" smooth="yes"/>
      <point x="330" y="81"/>
      <point x="332.333" y="87.667"/>
      <point x="333" y="95" type="curve" smooth="yes"/>
      <point x="334" y="132" type="line"/>
      <point x="334" y="276" type="line"/>
      <point x="271" y="276" type="line"/>
      <point x="271" y="315" type="line"/>
      <point x="490" y="315" type="line" smooth="yes"/>
      <point x="495.333" y="315"/>
      <point x="500" y="313"/>
      <point x="504" y="309" type="curve" smooth="yes"/>
      <point x="508" y="305"/>
      <point x="510" y="300.333"/>
      <point x="510" y="295" type="curve" smooth="yes"/>
      <point x="511" y="148" type="line"/>
    </contour>
  </outline>
</glyph>
<glyph name="I" format="2">
  <advance width="330"/>
  <unicode hex="0049"/>
  <outline>
    <contour>
      <point x="267" y="18" type="line"/>
      <point x="270.333" y="16.667"/>
      <point x="272" y="14"/>
      <point x="272" y="10" type="curve" smooth="yes"/>
      <point x="272" y="3.33301"/>
      <point x="269" y="0"/>
      <point x="263" y="0" type="curve" smooth="yes"/>
      <point x="67" y="0" type="line" smooth="yes"/>
      <point x="60.333" y="-0"/>
      <point x="57" y="3.33301"/>
      <point x="57" y="10" type="curve" smooth="yes"/>
      <point x="57" y="14"/>
      <point x="58.667" y="16.667"/>
      <point x="62" y="18" type="curve" smooth="yes"/>
      <point x="63" y="19" type="line" smooth="yes"/>
      <point x="63.667" y="19.667"/>
      <point x="66" y="21.667"/>
      <point x="70" y="25" type="curve" smooth="yes"/>
      <point x="74" y="28.333"/>
      <point x="76" y="34.333"/>
      <point x="76" y="43" type="curve" smooth="yes"/>
      <point x="76" y="46" type="line"/>
      <point x="76" y="64" type="line"/>
      <point x="76" y="112" type="line"/>
      <point x="76" y="205.5" type="line"/>
      <point x="76" y="359" type="line"/>
      <point x="76" y="588" type="line" smooth="yes"/>
      <point x="76" y="596.667"/>
      <point x="74" y="602.834"/>
      <point x="70" y="606.501" type="curve" smooth="yes"/>
      <point x="66" y="610.168"/>
      <point x="63.667" y="612.335"/>
      <point x="63" y="613.002" type="curve" smooth="yes"/>
      <point x="62" y="613.002" type="line" smooth="yes"/>
      <point x="58.667" y="615.002"/>
      <point x="57" y="617.669"/>
      <point x="57" y="621.002" type="curve" smooth="yes"/>
      <point x="57" y="627.669"/>
      <point x="60.333" y="631.002"/>
      <point x="67" y="631.002" type="curve" smooth="yes"/>
      <point x="263" y="631.002" type="line" smooth="yes"/>
      <point x="269" y="631.002"/>
      <point x="272" y="627.669"/>
      <point x="272" y="621.002" type="curve" smooth="yes"/>
      <point x="272" y="617.669"/>
      <point x="270.333" y="615.002"/>
      <point x="267" y="613.002" type="curve" smooth="yes"/>
      <point x="265.667" y="612.335"/>
      <point x="263" y="610.168"/>
      <point x="259" y="606.501" type="curve" smooth="yes"/>
      <point x="255" y="602.834"/>
      <point x="253" y="596.667"/>
      <point x="253" y="588" type="curve" smooth="yes"/>
      <point x="253" y="43" type="line" smooth="yes"/>
      <point x="253" y="34.333"/>
      <point x="255" y="28.333"/>
      <point x="259" y="25" type="curve" smooth="yes"/>
      <point x="263" y="21.667"/>
      <point x="265.667" y="19.667"/>
      <point x="267" y="19" type="curve" smooth="yes"/>
      <point x="267" y="18" type="line"/>
    </contour>
  </outline>
</glyph>
<glyph name="J" format="2">
  <advance width="550"/>
  <unicode hex="004A"/>
  <outline>
    <contour>
      <point x="521" y="621" type="curve" smooth="yes"/>
      <point x="521" y="618.333"/>
      <point x="519.665" y="615.672"/>
      <point x="516.998" y="613.005" type="curve" smooth="yes"/>
      <point x="515.998" y="613.005" type="line" smooth="yes"/>
      <point x="514.665" y="612.338"/>
      <point x="511.998" y="610.171"/>
      <point x="507.998" y="606.504" type="curve" smooth="yes"/>
      <point x="503.998" y="602.837"/>
      <point x="501.998" y="596.67"/>
      <point x="501.998" y="588.003" type="curve" smooth="yes"/>
      <point x="501.998" y="159.003" type="line" smooth="yes"/>
      <point x="501.998" y="136.336"/>
      <point x="497.831" y="116.836"/>
      <point x="489.498" y="100.503" type="curve" smooth="yes"/>
      <point x="481.165" y="84.1699"/>
      <point x="470.498" y="70.3369"/>
      <point x="457.498" y="59.0039" type="curve" smooth="yes"/>
      <point x="444.498" y="47.6709"/>
      <point x="430.498" y="38.5039"/>
      <point x="415.498" y="31.5039" type="curve" smooth="yes"/>
      <point x="400.498" y="24.5039"/>
      <point x="386.498" y="19.0039"/>
      <point x="373.498" y="15.0039" type="curve" smooth="yes"/>
      <point x="360.498" y="11.0039"/>
      <point x="349.498" y="8.33691"/>
      <point x="340.498" y="7.00391" type="curve" smooth="yes"/>
      <point x="331.498" y="5.6709"/>
      <point x="326.665" y="5.00391"/>
      <point x="325.998" y="5.00391" type="curve" smooth="yes"/>
      <point x="307.998" y="3.00391"/>
      <point x="287.998" y="2.00391"/>
      <point x="265.998" y="2.00391" type="curve" smooth="yes"/>
      <point x="235.998" y="2.00391"/>
      <point x="209.498" y="4.00391"/>
      <point x="186.498" y="8.00391" type="curve" smooth="yes"/>
      <point x="163.498" y="12.0039"/>
      <point x="143.831" y="17.1709"/>
      <point x="127.498" y="23.5039" type="curve" smooth="yes"/>
      <point x="111.165" y="29.8369"/>
      <point x="97.332" y="37.1699"/>
      <point x="85.999" y="45.5029" type="curve" smooth="yes"/>
      <point x="74.666" y="53.8359"/>
      <point x="65.333" y="62.3359"/>
      <point x="58" y="71.0029" type="curve" smooth="yes"/>
      <point x="40.667" y="91.6699"/>
      <point x="31.334" y="115.003"/>
      <point x="30.001" y="141.003" type="curve" smooth="yes"/>
      <point x="30.001" y="151.003" type="line" smooth="yes"/>
      <point x="30.001" y="175.67"/>
      <point x="38.668" y="196.503"/>
      <point x="56.001" y="213.503" type="curve" smooth="yes"/>
      <point x="73.334" y="230.503"/>
      <point x="94.334" y="239.003"/>
      <point x="119.001" y="239.003" type="curve" smooth="yes"/>
      <point x="143.001" y="239.003"/>
      <point x="163.501" y="230.67"/>
      <point x="180.501" y="214.003" type="curve" smooth="yes"/>
      <point x="197.501" y="197.336"/>
      <point x="206.334" y="177.003"/>
      <point x="207.001" y="153.003" type="curve" smooth="yes"/>
      <point x="208.001" y="98.0029" type="line" smooth="yes"/>
      <point x="208.668" y="90.6699"/>
      <point x="211.001" y="84.0029"/>
      <point x="215.001" y="78.0029" type="curve" smooth="yes"/>
      <point x="218.334" y="72.6699"/>
      <point x="224.001" y="68.0029"/>
      <point x="232.001" y="64.0029" type="curve" smooth="yes"/>
      <point x="240.001" y="60.0029"/>
      <point x="251.668" y="58.0029"/>
      <point x="267.001" y="58.0029" type="curve" smooth="yes"/>
      <point x="281.668" y="58.0029"/>
      <point x="293.001" y="60.0029"/>
      <point x="301.001" y="64.0029" type="curve" smooth="yes"/>
      <point x="309.001" y="68.0029"/>
      <point x="314.668" y="72.6699"/>
      <point x="318.001" y="78.0029" type="curve" smooth="yes"/>
      <point x="322.001" y="84.0029"/>
      <point x="324.334" y="90.6699"/>
      <point x="325.001" y="98.0029" type="curve" smooth="yes"/>
      <point x="325.001" y="542.003" type="line" smooth="yes"/>
      <point x="325.001" y="545.336"/>
      <point x="325.168" y="548.669"/>
      <point x="325.501" y="552.002" type="curve" smooth="yes"/>
      <point x="325.834" y="555.335"/>
      <point x="326.334" y="558.668"/>
      <point x="327.001" y="562.001" type="curve" smooth="yes"/>
      <point x="331.668" y="581.334"/>
      <point x="341.668" y="597.667"/>
      <point x="357.001" y="611" type="curve" smooth="yes"/>
      <point x="372.334" y="624.333"/>
      <point x="390.667" y="631"/>
      <point x="412" y="631" type="curve" smooth="yes"/>
      <point x="414" y="631" type="line"/>
      <point x="502" y="631" type="line"/>
      <point x="512" y="631" type="line" smooth="yes"/>
      <point x="518" y="631"/>
      <point x="521" y="627.667"/>
    </contour>
  </outline>
</glyph>
<glyph name="L" format="2">
  <advance width="550"/>
  <unicode hex="004C"/>
  <outline>
    <contour>
      <point x="520" y="137" type="line"/>
      <point x="518.667" y="111"/>
      <point x="509.332" y="87.6621"/>
      <point x="491.999" y="66.9951" type="curve" smooth="yes"/>
      <point x="484.666" y="58.3281"/>
      <point x="475.333" y="49.8281"/>
      <point x="464" y="41.4951" type="curve" smooth="yes"/>
      <point x="452.667" y="33.1621"/>
      <point x="438.667" y="25.8291"/>
      <point x="422" y="19.4961" type="curve" smooth="yes"/>
      <point x="405.333" y="13.1631"/>
      <point x="385.666" y="7.99609"/>
      <point x="362.999" y="3.99609" type="curve" smooth="yes"/>
      <point x="340.332" y="-0.00390625"/>
      <point x="313.999" y="-2.00391"/>
      <point x="283.999" y="-2.00391" type="curve" smooth="yes"/>
      <point x="266.499" y="-2.00391" type="line" smooth="yes"/>
      <point x="258.832" y="-2.00391"/>
      <point x="246.332" y="-1.83691"/>
      <point x="228.999" y="-1.50391" type="curve" smooth="yes"/>
      <point x="211.666" y="-1.1709"/>
      <point x="187.999" y="-1.00391"/>
      <point x="157.999" y="-1.00391" type="curve" smooth="yes"/>
      <point x="38.999" y="-1.00391" type="line"/>
      <point x="37.999" y="-1.00391" type="line" smooth="yes"/>
      <point x="31.999" y="-1.00391"/>
      <point x="28.999" y="1.99609"/>
      <point x="28.999" y="7.99609" type="curve" smooth="yes"/>
      <point x="28.999" y="11.9961"/>
      <point x="30.666" y="14.9961"/>
      <point x="33.999" y="16.9961" type="curve" smooth="yes"/>
      <point x="35.332" y="17.6631"/>
      <point x="37.999" y="19.8301"/>
      <point x="41.999" y="23.4971" type="curve" smooth="yes"/>
      <point x="45.999" y="27.1641"/>
      <point x="47.999" y="32.9971"/>
      <point x="47.999" y="40.9971" type="curve" smooth="yes"/>
      <point x="47.999" y="42.9971" type="line"/>
      <point x="47.999" y="583.997" type="line" smooth="yes"/>
      <point x="47.999" y="592.664"/>
      <point x="45.999" y="598.831"/>
      <point x="41.999" y="602.498" type="curve" smooth="yes"/>
      <point x="37.999" y="606.165"/>
      <point x="35.332" y="608.332"/>
      <point x="33.999" y="608.999" type="curve" smooth="yes"/>
      <point x="30.666" y="610.999"/>
      <point x="28.999" y="613.666"/>
      <point x="28.999" y="616.999" type="curve" smooth="yes"/>
      <point x="28.999" y="623.666"/>
      <point x="31.999" y="626.999"/>
      <point x="37.999" y="626.999" type="curve" smooth="yes"/>
      <point x="38.999" y="626.999" type="line"/>
      <point x="135.999" y="626.999" type="line"/>
      <point x="137.999" y="626.999" type="line" smooth="yes"/>
      <point x="159.332" y="626.999"/>
      <point x="177.832" y="620.332"/>
      <point x="193.499" y="606.999" type="curve" smooth="yes"/>
      <point x="209.166" y="593.666"/>
      <point x="218.999" y="577.333"/>
      <point x="222.999" y="558" type="curve" smooth="yes"/>
      <point x="222.999" y="556.667"/>
      <point x="223.166" y="554.5"/>
      <point x="223.499" y="551.5" type="curve" smooth="yes"/>
      <point x="223.832" y="548.5"/>
      <point x="223.999" y="542.167"/>
      <point x="223.999" y="532.5" type="curve" smooth="yes"/>
      <point x="223.999" y="522.833"/>
      <point x="224.166" y="508.5"/>
      <point x="224.499" y="489.5" type="curve" smooth="yes"/>
      <point x="224.832" y="470.5"/>
      <point x="224.999" y="444.167"/>
      <point x="224.999" y="410.5" type="curve" smooth="yes"/>
      <point x="224.999" y="282.5" type="line"/>
      <point x="224.999" y="94" type="line" smooth="yes"/>
      <point x="225.666" y="86.667"/>
      <point x="227.999" y="80"/>
      <point x="231.999" y="74" type="curve" smooth="yes"/>
      <point x="235.332" y="68.667"/>
      <point x="240.999" y="64"/>
      <point x="248.999" y="60" type="curve" smooth="yes"/>
      <point x="256.999" y="56"/>
      <point x="268.666" y="54"/>
      <point x="283.999" y="54" type="curve" smooth="yes"/>
      <point x="298.666" y="54"/>
      <point x="309.833" y="56"/>
      <point x="317.5" y="60" type="curve" smooth="yes"/>
      <point x="325.167" y="64"/>
      <point x="331" y="68.667"/>
      <point x="335" y="74" type="curve" smooth="yes"/>
      <point x="339" y="80"/>
      <point x="341.667" y="86.667"/>
      <point x="343" y="94" type="curve" smooth="yes"/>
      <point x="343" y="149" type="line" smooth="yes"/>
      <point x="343.667" y="173"/>
      <point x="352.5" y="193.333"/>
      <point x="369.5" y="210" type="curve" smooth="yes"/>
      <point x="386.5" y="226.667"/>
      <point x="407" y="235"/>
      <point x="431" y="235" type="curve" smooth="yes"/>
      <point x="455.667" y="235"/>
      <point x="476.667" y="226.5"/>
      <point x="494" y="209.5" type="curve" smooth="yes"/>
      <point x="511.333" y="192.5"/>
      <point x="520" y="171.667"/>
      <point x="520" y="147" type="curve" smooth="yes"/>
      <point x="520" y="137" type="line"/>
    </contour>
  </outline>
</glyph>
